<svg width="1030" height="290" viewBox="0 0 1030 290" fill="none" xmlns="http://www.w3.org/2000/svg">
<g id="c5-f1">
<g id="floor">
<path d="M123.979 1.00037H1.00006V184.5V289H123.979H1029V194V1.00037H123.979Z" fill="white"/>
<path d="M1029 194V1.00037H123.979H1.00006L1.00006 184.5L1.00006 289H123.979H1029V194ZM1029 194H805M673 194H805M805 194V164.5M805 101V126" stroke="#232323" stroke-width="2" stroke-linecap="round" stroke-linejoin="round"/>
</g>
<g id="stairs">
<rect id="Rectangle 18" x="745" y="225" width="30" height="30" rx="3" fill="#3377E4"/>
<path id="Vector 1" d="M763.833 235H769.5C769.776 235 770 235.224 770 235.5V250.5C770 250.776 769.776 251 769.5 251H750.5C750.224 251 750 250.776 750 250.5V246.167C750 245.891 750.224 245.667 750.5 245.667H756.167C756.443 245.667 756.667 245.443 756.667 245.167V240.833C756.667 240.557 756.891 240.333 757.167 240.333H762.833C763.109 240.333 763.333 240.109 763.333 239.833V235.5C763.333 235.224 763.557 235 763.833 235Z" fill="white"/>
<path id="Vector 2" d="M749.615 241.695L765.5 230" stroke="white" stroke-width="2" stroke-linecap="round" stroke-linejoin="round"/>
</g>
<g id="c5-f1-102">
<path id="Vector 70" d="M103 101L278 101L278 1L103 1.00001L103 101Z" fill="#C7E4FF" stroke="#232323" stroke-width="2" stroke-linecap="round" stroke-linejoin="round"/>
<g id="numbers">
<path id="2" d="M178.828 59L176.648 59L176.648 44.5508L172.277 46.1562L172.277 44.1875L178.488 41.8555L178.828 41.8555L178.828 59ZM195.879 51.7227C195.879 54.2617 195.445 56.1484 194.578 57.3828C193.711 58.6172 192.355 59.2344 190.512 59.2344C188.691 59.2344 187.344 58.6328 186.469 57.4297C185.594 56.2187 185.141 54.4141 185.109 52.0156L185.109 49.1211C185.109 46.6133 185.543 44.75 186.41 43.5312C187.277 42.3125 188.637 41.7031 190.488 41.7031C192.324 41.7031 193.676 42.293 194.543 43.4727C195.41 44.6445 195.855 46.457 195.879 48.9102L195.879 51.7227ZM193.711 48.7578C193.711 46.9219 193.453 45.5859 192.937 44.75C192.422 43.9062 191.605 43.4844 190.488 43.4844C189.379 43.4844 188.57 43.9023 188.062 44.7383C187.555 45.5742 187.293 46.8594 187.277 48.5937L187.277 52.0625C187.277 53.9062 187.543 55.2695 188.074 56.1523C188.613 57.0273 189.426 57.4648 190.512 57.4648C191.582 57.4648 192.375 57.0508 192.891 56.2227C193.414 55.3945 193.687 54.0898 193.711 52.3086L193.711 48.7578ZM209.836 59L198.656 59L198.656 57.4414L204.562 50.8789C205.437 49.8867 206.039 49.082 206.367 48.4648C206.703 47.8398 206.871 47.1953 206.871 46.5312C206.871 45.6406 206.602 44.9102 206.062 44.3398C205.523 43.7695 204.805 43.4844 203.906 43.4844C202.828 43.4844 201.988 43.793 201.387 44.4102C200.793 45.0195 200.496 45.8711 200.496 46.9648L198.328 46.9648C198.328 45.3945 198.832 44.125 199.84 43.1562C200.855 42.1875 202.211 41.7031 203.906 41.7031C205.492 41.7031 206.746 42.1211 207.668 42.957C208.59 43.7852 209.051 44.8906 209.051 46.2734C209.051 47.9531 207.98 49.9531 205.84 52.2734L201.27 57.2305L209.836 57.2305L209.836 59Z" fill="#232323"/>
</g>
</g>
<g id="c5-f1-103">
<path id="Vector 70_2" d="M278 101L401 101L401 1L278 1.00001L278 101Z" fill="#C7E4FF" stroke="#232323" stroke-width="2" stroke-linecap="round" stroke-linejoin="round"/>
<g id="numbers_2">
<path id="2_2" d="M327.828 59L325.648 59L325.648 44.5508L321.277 46.1562L321.277 44.1875L327.488 41.8555L327.828 41.8555L327.828 59ZM344.879 51.7227C344.879 54.2617 344.445 56.1484 343.578 57.3828C342.711 58.6172 341.355 59.2344 339.512 59.2344C337.691 59.2344 336.344 58.6328 335.469 57.4297C334.594 56.2187 334.141 54.4141 334.109 52.0156L334.109 49.1211C334.109 46.6133 334.543 44.75 335.41 43.5312C336.277 42.3125 337.637 41.7031 339.488 41.7031C341.324 41.7031 342.676 42.293 343.543 43.4727C344.41 44.6445 344.855 46.457 344.879 48.9102L344.879 51.7227ZM342.711 48.7578C342.711 46.9219 342.453 45.5859 341.937 44.75C341.422 43.9062 340.605 43.4844 339.488 43.4844C338.379 43.4844 337.57 43.9023 337.062 44.7383C336.555 45.5742 336.293 46.8594 336.277 48.5937L336.277 52.0625C336.277 53.9062 336.543 55.2695 337.074 56.1523C337.613 57.0273 338.426 57.4648 339.512 57.4648C340.582 57.4648 341.375 57.0508 341.891 56.2227C342.414 55.3945 342.687 54.0898 342.711 52.3086L342.711 48.7578ZM350.809 49.4141L352.437 49.4141C353.461 49.3984 354.266 49.1289 354.852 48.6055C355.437 48.082 355.73 47.375 355.73 46.4844C355.73 44.4844 354.734 43.4844 352.742 43.4844C351.805 43.4844 351.055 43.7539 350.492 44.293C349.937 44.8242 349.66 45.5312 349.66 46.4141L347.492 46.4141C347.492 45.0625 347.984 43.9414 348.969 43.0508C349.961 42.1523 351.219 41.7031 352.742 41.7031C354.352 41.7031 355.613 42.1289 356.527 42.9805C357.441 43.832 357.898 45.0156 357.898 46.5312C357.898 47.2734 357.656 47.9922 357.172 48.6875C356.695 49.3828 356.043 49.9023 355.215 50.2461C356.152 50.543 356.875 51.0352 357.383 51.7227C357.898 52.4102 358.156 53.25 358.156 54.2422C358.156 55.7734 357.656 56.9883 356.656 57.8867C355.656 58.7852 354.355 59.2344 352.754 59.2344C351.152 59.2344 349.848 58.8008 348.84 57.9336C347.84 57.0664 347.34 55.9219 347.34 54.5L349.52 54.5C349.52 55.3984 349.812 56.1172 350.398 56.6562C350.984 57.1953 351.77 57.4648 352.754 57.4648C353.801 57.4648 354.602 57.1914 355.156 56.6445C355.711 56.0977 355.988 55.3125 355.988 54.2891C355.988 53.2969 355.684 52.5352 355.074 52.0039C354.465 51.4727 353.586 51.1992 352.437 51.1836L350.809 51.1836L350.809 49.4141Z" fill="#232323"/>
</g>
</g>
<g id="c5-f1-106">
<path id="Vector 70_3" d="M617 101L673 101L673 1.00001L617 1.00001L617 101Z" fill="#C7E4FF" stroke="#232323" stroke-width="2" stroke-linecap="round" stroke-linejoin="round"/>
<g id="numbers_3">
<path id="2_3" d="M633.828 59L631.648 59L631.648 44.5508L627.277 46.1562L627.277 44.1875L633.488 41.8555L633.828 41.8555L633.828 59ZM650.879 51.7227C650.879 54.2617 650.445 56.1484 649.578 57.3828C648.711 58.6172 647.355 59.2344 645.512 59.2344C643.691 59.2344 642.344 58.6328 641.469 57.4297C640.594 56.2187 640.141 54.4141 640.109 52.0156L640.109 49.1211C640.109 46.6133 640.543 44.75 641.41 43.5312C642.277 42.3125 643.637 41.7031 645.488 41.7031C647.324 41.7031 648.676 42.293 649.543 43.4727C650.41 44.6445 650.855 46.457 650.879 48.9102L650.879 51.7227ZM648.711 48.7578C648.711 46.9219 648.453 45.5859 647.937 44.75C647.422 43.9062 646.605 43.4844 645.488 43.4844C644.379 43.4844 643.57 43.9023 643.062 44.7383C642.555 45.5742 642.293 46.8594 642.277 48.5937L642.277 52.0625C642.277 53.9062 642.543 55.2695 643.074 56.1523C643.613 57.0273 644.426 57.4648 645.512 57.4648C646.582 57.4648 647.375 57.0508 647.891 56.2227C648.414 55.3945 648.687 54.0898 648.711 52.3086L648.711 48.7578ZM662.164 41.9258L662.164 43.7656L661.766 43.7656C660.078 43.7969 658.734 44.2969 657.734 45.2656C656.734 46.2344 656.156 47.5977 656 49.3555C656.898 48.3242 658.125 47.8086 659.68 47.8086C661.164 47.8086 662.348 48.332 663.23 49.3789C664.121 50.4258 664.566 51.7773 664.566 53.4336C664.566 55.1914 664.086 56.5977 663.125 57.6523C662.172 58.707 660.891 59.2344 659.281 59.2344C657.648 59.2344 656.324 58.6094 655.309 57.3594C654.293 56.1016 653.785 54.4844 653.785 52.5078L653.785 51.6758C653.785 48.5352 654.453 46.1367 655.789 44.4805C657.133 42.8164 659.129 41.9648 661.777 41.9258L662.164 41.9258ZM659.316 49.6133C658.574 49.6133 657.891 49.8359 657.266 50.2812C656.641 50.7266 656.207 51.2852 655.965 51.957L655.965 52.7539C655.965 54.1602 656.281 55.293 656.914 56.1523C657.547 57.0117 658.336 57.4414 659.281 57.4414C660.258 57.4414 661.023 57.082 661.578 56.3633C662.141 55.6445 662.422 54.7031 662.422 53.5391C662.422 52.3672 662.137 51.4219 661.566 50.7031C661.004 49.9766 660.254 49.6133 659.316 49.6133Z" fill="#232323"/>
</g>
</g>
<g id="c5-f1-108">
<path id="Vector 70_4" d="M972 101L1029 101L1029 1L972 1.00001L972 101Z" fill="#C7E4FF" stroke="#232323" stroke-width="2" stroke-linecap="round" stroke-linejoin="round"/>
<g id="numbers_4">
<path id="2_4" d="M989.254 59L987.075 59L987.075 44.5508L982.703 46.1562L982.703 44.1875L988.914 41.8555L989.254 41.8555L989.254 59ZM1006.3 51.7227C1006.3 54.2617 1005.87 56.1484 1005 57.3828C1004.14 58.6172 1002.78 59.2344 1000.94 59.2344C999.117 59.2344 997.77 58.6328 996.895 57.4297C996.02 56.2187 995.567 54.4141 995.535 52.0156L995.535 49.1211C995.535 46.6133 995.969 44.75 996.836 43.5312C997.703 42.3125 999.063 41.7031 1000.91 41.7031C1002.75 41.7031 1004.1 42.293 1004.97 43.4727C1005.84 44.6445 1006.28 46.457 1006.3 48.9102L1006.3 51.7227ZM1004.14 48.7578C1004.14 46.9219 1003.88 45.5859 1003.36 44.75C1002.85 43.9062 1002.03 43.4844 1000.91 43.4844C999.805 43.4844 998.996 43.9023 998.489 44.7383C997.981 45.5742 997.719 46.8594 997.703 48.5937L997.703 52.0625C997.703 53.9062 997.969 55.2695 998.5 56.1523C999.039 57.0273 999.852 57.4648 1000.94 57.4648C1002.01 57.4648 1002.8 57.0508 1003.32 56.2227C1003.84 55.3945 1004.11 54.0898 1004.14 52.3086L1004.14 48.7578ZM1019.43 46.3906C1019.43 47.2422 1019.2 48 1018.75 48.6641C1018.3 49.3281 1017.7 49.8477 1016.93 50.2227C1017.82 50.6055 1018.53 51.1641 1019.04 51.8984C1019.57 52.6328 1019.83 53.4648 1019.83 54.3945C1019.83 55.8711 1019.33 57.0469 1018.33 57.9219C1017.34 58.7969 1016.03 59.2344 1014.4 59.2344C1012.76 59.2344 1011.45 58.7969 1010.45 57.9219C1009.47 57.0391 1008.98 55.8633 1008.98 54.3945C1008.98 53.4727 1009.23 52.6406 1009.73 51.8984C1010.23 51.1562 1010.93 50.5937 1011.82 50.2109C1011.07 49.8359 1010.47 49.3164 1010.03 48.6523C1009.59 47.9883 1009.38 47.2344 1009.38 46.3906C1009.38 44.9531 1009.84 43.8125 1010.76 42.9687C1011.68 42.125 1012.89 41.7031 1014.4 41.7031C1015.9 41.7031 1017.11 42.125 1018.04 42.9687C1018.97 43.8125 1019.43 44.9531 1019.43 46.3906ZM1017.66 54.3477C1017.66 53.3945 1017.36 52.6172 1016.75 52.0156C1016.14 51.4141 1015.36 51.1133 1014.38 51.1133C1013.4 51.1133 1012.62 51.4102 1012.02 52.0039C1011.44 52.5977 1011.14 53.3789 1011.14 54.3477C1011.14 55.3164 1011.43 56.0781 1012 56.6328C1012.58 57.1875 1013.38 57.4648 1014.4 57.4648C1015.42 57.4648 1016.22 57.1875 1016.79 56.6328C1017.37 56.0703 1017.66 55.3086 1017.66 54.3477ZM1014.4 43.4844C1013.55 43.4844 1012.86 43.75 1012.33 44.2812C1011.8 44.8047 1011.54 45.5195 1011.54 46.4258C1011.54 47.293 1011.8 47.9961 1012.32 48.5352C1012.84 49.0664 1013.54 49.332 1014.4 49.332C1015.27 49.332 1015.96 49.0664 1016.48 48.5352C1017 47.9961 1017.26 47.293 1017.26 46.4258C1017.26 45.5586 1016.99 44.8516 1016.45 44.3047C1015.91 43.7578 1015.23 43.4844 1014.4 43.4844Z" fill="#232323"/>
</g>
</g>
<g id="c5-f1-112">
<path id="Vector 70_5" d="M972 194L1029 194L1029 101L972 101L972 194Z" fill="#C7E4FF" stroke="#232323" stroke-width="2" stroke-linecap="round" stroke-linejoin="round"/>
<g id="numbers_5">
<path id="2_5" d="M989.254 155L987.075 155L987.075 140.551L982.703 142.156L982.703 140.187L988.914 137.855L989.254 137.855L989.254 155ZM1002.73 155L1000.55 155L1000.55 140.551L996.18 142.156L996.18 140.187L1002.39 137.855L1002.73 137.855L1002.73 155ZM1020.26 155L1009.08 155L1009.08 153.441L1014.99 146.879C1015.86 145.887 1016.47 145.082 1016.79 144.465C1017.13 143.84 1017.3 143.195 1017.3 142.531C1017.3 141.641 1017.03 140.91 1016.49 140.34C1015.95 139.77 1015.23 139.484 1014.33 139.484C1013.25 139.484 1012.41 139.793 1011.81 140.41C1011.22 141.02 1010.92 141.871 1010.92 142.965L1008.75 142.965C1008.75 141.395 1009.26 140.125 1010.27 139.156C1011.28 138.187 1012.64 137.703 1014.33 137.703C1015.92 137.703 1017.17 138.121 1018.09 138.957C1019.02 139.785 1019.48 140.891 1019.48 142.273C1019.48 143.953 1018.41 145.953 1016.27 148.273L1011.7 153.23L1020.26 153.23L1020.26 155Z" fill="#232323"/>
</g>
</g>
<g id="c5-f1-105">
<path id="Vector 70_6" d="M514 101L617 101L617 1L514 1.00001L514 101Z" fill="#C7E4FF" stroke="#232323" stroke-width="2" stroke-linecap="round" stroke-linejoin="round"/>
<g id="numbers_6">
<path id="2_6" d="M553.828 59L551.648 59L551.648 44.5508L547.277 46.1562L547.277 44.1875L553.488 41.8555L553.828 41.8555L553.828 59ZM570.879 51.7227C570.879 54.2617 570.445 56.1484 569.578 57.3828C568.711 58.6172 567.355 59.2344 565.512 59.2344C563.691 59.2344 562.344 58.6328 561.469 57.4297C560.594 56.2187 560.141 54.4141 560.109 52.0156L560.109 49.1211C560.109 46.6133 560.543 44.75 561.41 43.5312C562.277 42.3125 563.637 41.7031 565.488 41.7031C567.324 41.7031 568.676 42.293 569.543 43.4727C570.41 44.6445 570.855 46.457 570.879 48.9102L570.879 51.7227ZM568.711 48.7578C568.711 46.9219 568.453 45.5859 567.937 44.75C567.422 43.9062 566.605 43.4844 565.488 43.4844C564.379 43.4844 563.57 43.9023 563.062 44.7383C562.555 45.5742 562.293 46.8594 562.277 48.5937L562.277 52.0625C562.277 53.9062 562.543 55.2695 563.074 56.1523C563.613 57.0273 564.426 57.4648 565.512 57.4648C566.582 57.4648 567.375 57.0508 567.891 56.2227C568.414 55.3945 568.687 54.0898 568.711 52.3086L568.711 48.7578ZM574.652 50.4453L575.52 41.9375L584.262 41.9375L584.262 43.9414L577.359 43.9414L576.844 48.5937C577.68 48.1016 578.629 47.8555 579.691 47.8555C581.246 47.8555 582.48 48.3711 583.395 49.4023C584.309 50.4258 584.766 51.8125 584.766 53.5625C584.766 55.3203 584.289 56.707 583.336 57.7227C582.391 58.7305 581.066 59.2344 579.363 59.2344C577.855 59.2344 576.625 58.8164 575.672 57.9805C574.719 57.1445 574.176 55.9883 574.043 54.5117L576.094 54.5117C576.227 55.4883 576.574 56.2266 577.137 56.7266C577.699 57.2187 578.441 57.4648 579.363 57.4648C580.371 57.4648 581.16 57.1211 581.73 56.4336C582.309 55.7461 582.598 54.7969 582.598 53.5859C582.598 52.4453 582.285 51.5312 581.66 50.8437C581.043 50.1484 580.219 49.8008 579.187 49.8008C578.242 49.8008 577.5 50.0078 576.961 50.4219L576.387 50.8906L574.652 50.4453Z" fill="#232323"/>
</g>
</g>
<g id="c5-f1-104">
<path id="Vector 70_7" d="M514 101L456 101L456 51L401 51L401 0.999995L514 0.999992L514 101Z" fill="#C7E4FF" stroke="#232323" stroke-width="2" stroke-linecap="round" stroke-linejoin="round"/>
<g id="numbers_7">
<path id="2_7" d="M469.828 59L467.648 59L467.648 44.5508L463.277 46.1562L463.277 44.1875L469.488 41.8555L469.828 41.8555L469.828 59ZM486.879 51.7227C486.879 54.2617 486.445 56.1484 485.578 57.3828C484.711 58.6172 483.355 59.2344 481.512 59.2344C479.691 59.2344 478.344 58.6328 477.469 57.4297C476.594 56.2187 476.141 54.4141 476.109 52.0156L476.109 49.1211C476.109 46.6133 476.543 44.75 477.41 43.5312C478.277 42.3125 479.637 41.7031 481.488 41.7031C483.324 41.7031 484.676 42.293 485.543 43.4727C486.41 44.6445 486.855 46.457 486.879 48.9102L486.879 51.7227ZM484.711 48.7578C484.711 46.9219 484.453 45.5859 483.937 44.75C483.422 43.9062 482.605 43.4844 481.488 43.4844C480.379 43.4844 479.57 43.9023 479.062 44.7383C478.555 45.5742 478.293 46.8594 478.277 48.5937L478.277 52.0625C478.277 53.9062 478.543 55.2695 479.074 56.1523C479.613 57.0273 480.426 57.4648 481.512 57.4648C482.582 57.4648 483.375 57.0508 483.891 56.2227C484.414 55.3945 484.687 54.0898 484.711 52.3086L484.711 48.7578ZM498.809 53.2695L501.176 53.2695L501.176 55.0391L498.809 55.0391L498.809 59L496.629 59L496.629 55.0391L488.859 55.0391L488.859 53.7617L496.5 41.9375L498.809 41.9375L498.809 53.2695ZM491.32 53.2695L496.629 53.2695L496.629 44.9023L496.371 45.3711L491.32 53.2695Z" fill="#232323"/>
</g>
</g>
<g id="c5-f1-cp1">
<path id="Vector 70_8" d="M401 101L456 101L456 51L401 51L401 101Z" fill="#C7E4FF" stroke="#232323" stroke-width="2" stroke-linecap="round" stroke-linejoin="round"/>
<g id="numbers_8">
<path id="2_8" d="M422.02 82.4648C422.793 82.4648 423.469 82.2305 424.047 81.7617C424.625 81.293 424.945 80.707 425.008 80.0039L427.059 80.0039C427.02 80.7305 426.77 81.4219 426.309 82.0781C425.848 82.7344 425.23 83.2578 424.457 83.6484C423.691 84.0391 422.879 84.2344 422.02 84.2344C420.293 84.2344 418.918 83.6602 417.895 82.5117C416.879 81.3555 416.371 79.7773 416.371 77.7773L416.371 77.4141C416.371 76.1797 416.598 75.082 417.051 74.1211C417.504 73.1602 418.152 72.4141 418.996 71.8828C419.848 71.3516 420.852 71.0859 422.008 71.0859C423.43 71.0859 424.609 71.5117 425.547 72.3633C426.492 73.2148 426.996 74.3203 427.059 75.6797L425.008 75.6797C424.945 74.8594 424.633 74.1875 424.07 73.6641C423.516 73.1328 422.828 72.8672 422.008 72.8672C420.906 72.8672 420.051 73.2656 419.441 74.0625C418.84 74.8516 418.539 75.9961 418.539 77.4961L418.539 77.9062C418.539 79.3672 418.84 80.4922 419.441 81.2812C420.043 82.0703 420.902 82.4648 422.02 82.4648ZM439.867 84L437.699 84L437.699 73.1133L431.863 73.1133L431.863 84L429.684 84L429.684 71.3203L439.867 71.3203L439.867 84Z" fill="#232323"/>
</g>
</g>
<g id="c5-f1-107">
<path id="Vector 70_9" d="M745 101L972 101L972 0.999998L745 1.00001L745 101Z" fill="#C7E4FF" stroke="#232323" stroke-width="2" stroke-linecap="round" stroke-linejoin="round"/>
<g id="numbers_9">
<path id="2_9" d="M846.828 59L844.648 59L844.648 44.5508L840.277 46.1562L840.277 44.1875L846.488 41.8555L846.828 41.8555L846.828 59ZM863.879 51.7227C863.879 54.2617 863.445 56.1484 862.578 57.3828C861.711 58.6172 860.355 59.2344 858.512 59.2344C856.691 59.2344 855.344 58.6328 854.469 57.4297C853.594 56.2187 853.141 54.4141 853.109 52.0156L853.109 49.1211C853.109 46.6133 853.543 44.75 854.41 43.5312C855.277 42.3125 856.637 41.7031 858.488 41.7031C860.324 41.7031 861.676 42.293 862.543 43.4727C863.41 44.6445 863.855 46.457 863.879 48.9102L863.879 51.7227ZM861.711 48.7578C861.711 46.9219 861.453 45.5859 860.937 44.75C860.422 43.9062 859.605 43.4844 858.488 43.4844C857.379 43.4844 856.57 43.9023 856.062 44.7383C855.555 45.5742 855.293 46.8594 855.277 48.5937L855.277 52.0625C855.277 53.9062 855.543 55.2695 856.074 56.1523C856.613 57.0273 857.426 57.4648 858.512 57.4648C859.582 57.4648 860.375 57.0508 860.891 56.2227C861.414 55.3945 861.687 54.0898 861.711 52.3086L861.711 48.7578ZM877.672 43.1562L870.605 59L868.332 59L875.375 43.7187L866.141 43.7187L866.141 41.9375L877.672 41.9375L877.672 43.1562Z" fill="#232323"/>
</g>
</g>
<g id="c5-f1-111">
<path id="Vector 70_10" d="M972 289L1029 289L1029 194L972 194L972 289Z" fill="#C7E4FF" stroke="#232323" stroke-width="2" stroke-linecap="round" stroke-linejoin="round"/>
<g id="numbers_10">
<path id="2_10" d="M989.254 249L987.075 249L987.075 234.551L982.703 236.156L982.703 234.187L988.914 231.855L989.254 231.855L989.254 249ZM1002.73 249L1000.55 249L1000.55 234.551L996.18 236.156L996.18 234.187L1002.39 231.855L1002.73 231.855L1002.73 249ZM1016.21 249L1014.03 249L1014.03 234.551L1009.66 236.156L1009.66 234.187L1015.87 231.855L1016.21 231.855L1016.21 249Z" fill="#232323"/>
</g>
</g>
<g id="c5-f1-101">
<path id="Vector 70_11" d="M242 289L297 289L297 194L242 194L242 289Z" fill="#C7E4FF" stroke="#232323" stroke-width="2" stroke-linecap="round" stroke-linejoin="round"/>
<g id="numbers_11">
<path id="2_11" d="M257.828 250L255.648 250L255.648 235.551L251.277 237.156L251.277 235.187L257.488 232.855L257.828 232.855L257.828 250ZM274.879 242.723C274.879 245.262 274.445 247.148 273.578 248.383C272.711 249.617 271.355 250.234 269.512 250.234C267.691 250.234 266.344 249.633 265.469 248.43C264.594 247.219 264.141 245.414 264.109 243.016L264.109 240.121C264.109 237.613 264.543 235.75 265.41 234.531C266.277 233.312 267.637 232.703 269.488 232.703C271.324 232.703 272.676 233.293 273.543 234.473C274.41 235.645 274.855 237.457 274.879 239.91L274.879 242.723ZM272.711 239.758C272.711 237.922 272.453 236.586 271.937 235.75C271.422 234.906 270.605 234.484 269.488 234.484C268.379 234.484 267.57 234.902 267.062 235.738C266.555 236.574 266.293 237.859 266.277 239.594L266.277 243.062C266.277 244.906 266.543 246.27 267.074 247.152C267.613 248.027 268.426 248.465 269.512 248.465C270.582 248.465 271.375 248.051 271.891 247.223C272.414 246.395 272.687 245.09 272.711 243.309L272.711 239.758ZM284.781 250L282.602 250L282.602 235.551L278.23 237.156L278.23 235.187L284.441 232.855L284.781 232.855L284.781 250Z" fill="#232323"/>
</g>
</g>
<g id="c5-f1-100">
<path id="Vector 70_12" d="M346 289L401 289L401 194L346 194L346 289Z" fill="#C7E4FF" stroke="#232323" stroke-width="2" stroke-linecap="round" stroke-linejoin="round"/>
<g id="numbers_12">
<path id="2_12" d="M361.828 250L359.648 250L359.648 235.551L355.277 237.156L355.277 235.187L361.488 232.855L361.828 232.855L361.828 250ZM378.879 242.723C378.879 245.262 378.445 247.148 377.578 248.383C376.711 249.617 375.355 250.234 373.512 250.234C371.691 250.234 370.344 249.633 369.469 248.43C368.594 247.219 368.141 245.414 368.109 243.016L368.109 240.121C368.109 237.613 368.543 235.75 369.41 234.531C370.277 233.312 371.637 232.703 373.488 232.703C375.324 232.703 376.676 233.293 377.543 234.473C378.41 235.645 378.855 237.457 378.879 239.91L378.879 242.723ZM376.711 239.758C376.711 237.922 376.453 236.586 375.937 235.75C375.422 234.906 374.605 234.484 373.488 234.484C372.379 234.484 371.57 234.902 371.062 235.738C370.555 236.574 370.293 237.859 370.277 239.594L370.277 243.062C370.277 244.906 370.543 246.27 371.074 247.152C371.613 248.027 372.426 248.465 373.512 248.465C374.582 248.465 375.375 248.051 375.891 247.223C376.414 246.395 376.687 245.09 376.711 243.309L376.711 239.758ZM392.355 242.723C392.355 245.262 391.922 247.148 391.055 248.383C390.187 249.617 388.832 250.234 386.988 250.234C385.168 250.234 383.82 249.633 382.945 248.43C382.07 247.219 381.617 245.414 381.586 243.016L381.586 240.121C381.586 237.613 382.02 235.75 382.887 234.531C383.754 233.312 385.113 232.703 386.965 232.703C388.801 232.703 390.152 233.293 391.02 234.473C391.887 235.645 392.332 237.457 392.355 239.91L392.355 242.723ZM390.187 239.758C390.187 237.922 389.93 236.586 389.414 235.75C388.898 234.906 388.082 234.484 386.965 234.484C385.855 234.484 385.047 234.902 384.539 235.738C384.031 236.574 383.77 237.859 383.754 239.594L383.754 243.062C383.754 244.906 384.02 246.27 384.551 247.152C385.09 248.027 385.902 248.465 386.988 248.465C388.059 248.465 388.852 248.051 389.367 247.223C389.891 246.395 390.164 245.09 390.187 243.309L390.187 239.758Z" fill="#232323"/>
</g>
</g>
<g id="c5-f1-watchman">
<path id="Vector 70_13" d="M401 289L456 289L456 194L401 194L401 289Z" fill="#C7E4FF" stroke="#232323" stroke-width="2" stroke-linecap="round" stroke-linejoin="round"/>
<g id="watchman">
<rect id="Rectangle 18_2" x="414" y="227" width="30" height="30" rx="3" fill="#3377E4"/>
<path id="&#208;&#146;" d="M431.011 250C434.011 250 435.667 248.152 435.667 245.68C435.667 243.712 434.275 242.008 432.571 241.744C434.059 241.432 435.355 240.088 435.355 238.072C435.355 235.816 433.723 233.992 430.795 233.992H422.923V250H431.011ZM430.219 240.616H425.731V236.464H430.219C431.659 236.464 432.475 237.352 432.475 238.552C432.475 239.752 431.659 240.616 430.219 240.616ZM430.339 247.528H425.731V243.088H430.339C431.947 243.088 432.787 244.096 432.787 245.296C432.787 246.688 431.875 247.528 430.339 247.528Z" fill="white"/>
</g>
</g>
<g id="c5-f1-110">
<path id="Vector 70_14" d="M914 289L972 289L972 194L914 194L914 289Z" fill="#C7E4FF" stroke="#232323" stroke-width="2" stroke-linecap="round" stroke-linejoin="round"/>
<g id="numbers_13">
<path id="2_13" d="M930.898 249L928.718 249L928.718 234.551L924.347 236.156L924.347 234.187L930.558 231.855L930.898 231.855L930.898 249ZM944.374 249L942.195 249L942.195 234.551L937.823 236.156L937.823 234.187L944.034 231.855L944.374 231.855L944.374 249ZM961.425 241.723C961.425 244.262 960.991 246.148 960.124 247.383C959.257 248.617 957.902 249.234 956.058 249.234C954.238 249.234 952.89 248.633 952.015 247.43C951.14 246.219 950.687 244.414 950.656 242.016L950.656 239.121C950.656 236.613 951.089 234.75 951.956 233.531C952.823 232.312 954.183 231.703 956.034 231.703C957.87 231.703 959.222 232.293 960.089 233.473C960.956 234.645 961.402 236.457 961.425 238.91L961.425 241.723ZM959.257 238.758C959.257 236.922 958.999 235.586 958.484 234.75C957.968 233.906 957.152 233.484 956.034 233.484C954.925 233.484 954.116 233.902 953.609 234.738C953.101 235.574 952.839 236.859 952.823 238.594L952.823 242.062C952.823 243.906 953.089 245.27 953.62 246.152C954.159 247.027 954.972 247.465 956.058 247.465C957.128 247.465 957.921 247.051 958.437 246.223C958.96 245.395 959.234 244.09 959.257 242.309L959.257 238.758Z" fill="#232323"/>
</g>
</g>
<g id="c5-f1-109">
<path id="Vector 70_15" d="M805 289L914 289L914 194L805 194L805 289Z" fill="#C7E4FF" stroke="#232323" stroke-width="2" stroke-linecap="round" stroke-linejoin="round"/>
<g id="numbers_14">
<path id="2_14" d="M847.828 250L845.648 250L845.648 235.551L841.277 237.156L841.277 235.187L847.488 232.855L847.828 232.855L847.828 250ZM864.879 242.723C864.879 245.262 864.445 247.148 863.578 248.383C862.711 249.617 861.355 250.234 859.512 250.234C857.691 250.234 856.344 249.633 855.469 248.43C854.594 247.219 854.141 245.414 854.109 243.016L854.109 240.121C854.109 237.613 854.543 235.75 855.41 234.531C856.277 233.312 857.637 232.703 859.488 232.703C861.324 232.703 862.676 233.293 863.543 234.473C864.41 235.645 864.855 237.457 864.879 239.91L864.879 242.723ZM862.711 239.758C862.711 237.922 862.453 236.586 861.937 235.75C861.422 234.906 860.605 234.484 859.488 234.484C858.379 234.484 857.57 234.902 857.062 235.738C856.555 236.574 856.293 237.859 856.277 239.594L856.277 243.062C856.277 244.906 856.543 246.27 857.074 247.152C857.613 248.027 858.426 248.465 859.512 248.465C860.582 248.465 861.375 248.051 861.891 247.223C862.414 246.395 862.687 245.09 862.711 243.309L862.711 239.758ZM875.965 242.5C875.512 243.039 874.969 243.473 874.336 243.801C873.711 244.129 873.023 244.293 872.273 244.293C871.289 244.293 870.43 244.051 869.695 243.566C868.969 243.082 868.406 242.402 868.008 241.527C867.609 240.645 867.41 239.672 867.41 238.609C867.41 237.469 867.625 236.441 868.055 235.527C868.492 234.613 869.109 233.914 869.906 233.43C870.703 232.945 871.633 232.703 872.695 232.703C874.383 232.703 875.711 233.336 876.68 234.602C877.656 235.859 878.145 237.578 878.145 239.758L878.145 240.391C878.145 243.711 877.488 246.137 876.176 247.668C874.863 249.191 872.883 249.973 870.234 250.012L869.812 250.012L869.812 248.184L870.27 248.184C872.059 248.152 873.434 247.687 874.395 246.789C875.355 245.883 875.879 244.453 875.965 242.5ZM872.625 242.5C873.352 242.5 874.02 242.277 874.629 241.832C875.246 241.387 875.695 240.836 875.977 240.18L875.977 239.312C875.977 237.891 875.668 236.734 875.051 235.844C874.434 234.953 873.652 234.508 872.707 234.508C871.754 234.508 870.988 234.875 870.41 235.609C869.832 236.336 869.543 237.297 869.543 238.492C869.543 239.656 869.82 240.617 870.375 241.375C870.937 242.125 871.687 242.5 872.625 242.5Z" fill="#232323"/>
</g>
</g>
<g id="c5-f1-cp2">
<path id="Vector 70_16" d="M709 101L745 101L745 51L709 51L709 101Z" fill="#C7E4FF" stroke="#232323" stroke-width="2" stroke-linecap="round" stroke-linejoin="round"/>
<g id="numbers_15">
<path id="2_15" d="M721.02 82.4648C721.793 82.4648 722.469 82.2305 723.047 81.7617C723.625 81.293 723.945 80.707 724.008 80.0039L726.059 80.0039C726.02 80.7305 725.77 81.4219 725.309 82.0781C724.848 82.7344 724.23 83.2578 723.457 83.6484C722.691 84.0391 721.879 84.2344 721.02 84.2344C719.293 84.2344 717.918 83.6602 716.895 82.5117C715.879 81.3555 715.371 79.7773 715.371 77.7773L715.371 77.4141C715.371 76.1797 715.598 75.082 716.051 74.1211C716.504 73.1602 717.152 72.4141 717.996 71.8828C718.848 71.3516 719.852 71.0859 721.008 71.0859C722.43 71.0859 723.609 71.5117 724.547 72.3633C725.492 73.2148 725.996 74.3203 726.059 75.6797L724.008 75.6797C723.945 74.8594 723.633 74.1875 723.07 73.6641C722.516 73.1328 721.828 72.8672 721.008 72.8672C719.906 72.8672 719.051 73.2656 718.441 74.0625C717.84 74.8516 717.539 75.9961 717.539 77.4961L717.539 77.9062C717.539 79.3672 717.84 80.4922 718.441 81.2812C719.043 82.0703 719.902 82.4648 721.02 82.4648ZM738.867 84L736.699 84L736.699 73.1133L730.863 73.1133L730.863 84L728.684 84L728.684 71.3203L738.867 71.3203L738.867 84Z" fill="#232323"/>
</g>
</g>
<g id="c5-f1-wc">
<path id="Vector 70_17" d="M673 0.999992L673 101L709 101L709 51L745 51L745 0.999989L673 0.999992Z" fill="white" stroke="#232323" stroke-width="2" stroke-linecap="round" stroke-linejoin="round"/>
<g id="wc">
<rect id="Rectangle 18_3" x="694" y="15" width="30" height="30" rx="3" fill="#3377E4"/>
<g id="Group">
<path id="Vector" fill-rule="evenodd" clip-rule="evenodd" d="M718.83 37.4099C719.282 38.4093 718.829 39.5588 717.527 39.5588L710.136 39.5606C708.757 39.5606 708.501 38.3461 708.913 37.3533L712.606 29.1939C713.198 27.8769 714.538 28.0468 715.133 29.2519L718.83 37.4099ZM704.129 21C705.984 21 707.358 22.492 707.358 24.1619C707.358 25.8319 705.985 27.3239 704.129 27.3239C702.275 27.3239 700.9 25.8323 700.9 24.1619C700.9 22.492 702.275 21 704.129 21ZM705.398 38.5749C704.805 39.7772 703.462 39.9466 702.871 38.633L699.178 30.4731C698.767 29.4812 699.026 28.2667 700.401 28.2667L704.122 28.2667L707.792 28.2681C709.094 28.2681 709.547 29.4171 709.095 30.4165L705.398 38.5749ZM713.864 21C715.719 21 717.093 22.492 717.093 24.1619C717.093 25.8319 715.719 27.3239 713.864 27.3239C712.01 27.3239 710.635 25.8323 710.635 24.1619C710.635 22.492 712.01 21 713.864 21Z" fill="white"/>
</g>
</g>
</g>
<g id="c5-f1-buffet">
<path id="Vector 70_18" d="M1 289L242 289L242 101L103 101L103 0.999996L1.00001 1L1 289Z" fill="#C7E4FF" stroke="#232323" stroke-width="2" stroke-linecap="round" stroke-linejoin="round"/>
<g id="buffet">
<rect id="Rectangle 18_4" x="107" y="179" width="30" height="30" rx="3" fill="#3377E4"/>
<g id="Group_2">
<g id="Group_3">
<path id="Vector_2" d="M126.068 184.617C126.201 185.017 126.25 185.441 126.25 185.865C126.25 186.29 126.201 186.702 126.068 187.102C126.02 187.223 125.983 187.502 125.983 187.768C125.983 188.035 126.02 188.314 126.068 188.435C126.226 188.908 125.971 189.429 125.498 189.587C125.013 189.744 124.504 189.49 124.347 189.017C124.213 188.605 124.165 188.192 124.165 187.768C124.165 187.344 124.213 186.932 124.347 186.52C124.383 186.386 124.432 186.12 124.432 185.865C124.432 185.598 124.383 185.319 124.347 185.186C124.189 184.713 124.444 184.204 124.916 184.046C125.401 183.889 125.91 184.144 126.068 184.617Z" fill="white"/>
<path id="Vector_3" d="M121.037 189.017C120.904 188.605 120.855 188.193 120.855 187.768C120.855 187.344 120.904 186.932 121.037 186.532C121.074 186.399 121.122 186.132 121.122 185.865C121.122 185.599 121.074 185.32 121.037 185.199C120.88 184.714 121.134 184.205 121.607 184.047C122.08 183.89 122.601 184.144 122.758 184.617C122.892 185.017 122.94 185.441 122.94 185.866C122.94 186.29 122.892 186.702 122.758 187.102C122.71 187.223 122.674 187.502 122.674 187.769C122.674 188.035 122.71 188.314 122.758 188.435C122.916 188.908 122.662 189.429 122.189 189.587C121.704 189.744 121.195 189.49 121.037 189.017Z" fill="white"/>
<path id="Vector_4" d="M118.298 184.047C118.77 183.889 119.292 184.144 119.449 184.617C119.582 185.017 119.619 185.441 119.631 185.865C119.619 186.29 119.582 186.702 119.449 187.102C119.401 187.223 119.364 187.502 119.364 187.768C119.364 188.035 119.401 188.314 119.449 188.435C119.607 188.908 119.352 189.429 118.879 189.587C118.394 189.744 117.885 189.49 117.728 189.017C117.594 188.605 117.546 188.192 117.546 187.768C117.546 187.344 117.594 186.932 117.728 186.52C117.764 186.386 117.813 186.12 117.813 185.865C117.813 185.598 117.764 185.319 117.728 185.186C117.57 184.714 117.825 184.204 118.298 184.047Z" fill="white"/>
<path id="Vector_5" d="M126.274 204.001H117.728C115.885 204.001 114.394 202.51 114.394 200.667L114.394 195.139L112.6 194.509C112.127 194.339 111.884 193.818 112.054 193.345C112.212 192.872 112.733 192.63 113.206 192.787L114.394 193.212V192.654C114.103 192.508 113.921 192.206 113.921 191.866C113.921 191.357 114.321 190.957 114.83 190.957H115.303L128.698 190.957H129.171C129.668 190.957 130.08 191.357 130.08 191.866C130.08 192.205 129.886 192.508 129.608 192.654V193.2L130.784 192.787C131.256 192.63 131.778 192.872 131.947 193.345C132.117 193.818 131.862 194.339 131.39 194.509L129.608 195.139V200.667C129.596 202.51 128.105 204.001 126.274 204.001Z" fill="white"/>
</g>
</g>
</g>
</g>
<g id="danger">
<path id="Polygon 1" d="M781.903 87.7647C783.28 85.4118 786.72 85.4118 788.097 87.7647L801.516 110.706C802.892 113.059 801.172 116 798.419 116H771.581C768.828 116 767.108 113.059 768.484 110.706L781.903 87.7647Z" fill="#FE7A00"/>
<path id="Polygon 1 (Stroke)" fill-rule="evenodd" clip-rule="evenodd" d="M789.823 86.7549L803.242 109.696C805.421 113.422 802.671 118 798.419 118H771.581C767.329 118 764.579 113.422 766.758 109.696L780.177 86.7549C782.326 83.0817 787.674 83.0817 789.823 86.7549ZM788.097 87.7647C786.72 85.4118 783.28 85.4118 781.903 87.7647L768.484 110.706C767.108 113.059 768.828 116 771.581 116H798.419C801.172 116 802.892 113.059 801.516 110.706L788.097 87.7647Z" fill="white"/>
<path id="Vector_6" d="M788.634 102.472H785L787.341 96.4746C787.426 96.2589 787.256 96 787 96H782.341C782.17 96 782.043 96.1294 782 96.302L780.666 105.069C780.623 105.284 780.794 105.5 781.007 105.5H784L782.242 112.568C782.157 112.956 782.668 113.172 782.881 112.827L788.932 103.033C789.103 102.817 788.932 102.472 788.634 102.472Z" fill="white"/>
</g>
</g>
</svg>
