<svg width="1030" height="290" viewBox="0 0 1030 290" fill="none" xmlns="http://www.w3.org/2000/svg">
<g id="c4-f4">
<g id="floor">
<path d="M123.979 1.00024H1V194V289H123.979H1029V194V1.00024H123.979Z" fill="white"/>
<path d="M1 194L1 289H123.979H1029V194M1 194L1 1.00024H123.979H1029V194M1 194H276M1029 194H858M724.5 194H858M858 194V165M858 101V127.5" stroke="#232323" stroke-width="2" stroke-linecap="round" stroke-linejoin="round"/>
</g>
<g id="stairs">
<rect id="Rectangle 18" x="157" y="227" width="30" height="30" rx="3" fill="#3377E4"/>
<path id="Vector 1" d="M175.833 237H181.5C181.776 237 182 237.224 182 237.5V252.5C182 252.776 181.776 253 181.5 253H162.5C162.224 253 162 252.776 162 252.5V248.167C162 247.891 162.224 247.667 162.5 247.667H168.167C168.443 247.667 168.667 247.443 168.667 247.167V242.833C168.667 242.557 168.891 242.333 169.167 242.333H174.833C175.109 242.333 175.333 242.109 175.333 241.833V237.5C175.333 237.224 175.557 237 175.833 237Z" fill="white"/>
<path id="Vector 2" d="M161.615 243.695L177.5 232" stroke="white" stroke-width="2" stroke-linecap="round" stroke-linejoin="round"/>
</g>
<g id="stairs_2">
<rect id="Rectangle 18_2" x="801" y="227" width="30" height="30" rx="3" fill="#3377E4"/>
<path id="Vector 1_2" d="M819.833 237H825.5C825.776 237 826 237.224 826 237.5V252.5C826 252.776 825.776 253 825.5 253H806.5C806.224 253 806 252.776 806 252.5V248.167C806 247.891 806.224 247.667 806.5 247.667H812.167C812.443 247.667 812.667 247.443 812.667 247.167V242.833C812.667 242.557 812.891 242.333 813.167 242.333H818.833C819.109 242.333 819.333 242.109 819.333 241.833V237.5C819.333 237.224 819.557 237 819.833 237Z" fill="white"/>
<path id="Vector 2_2" d="M805.615 243.695L821.5 232" stroke="white" stroke-width="2" stroke-linecap="round" stroke-linejoin="round"/>
</g>
<g id="c4-f4-42">
<path id="Vector 70" d="M1 101L217 101L217 0.999983L0.999996 0.999992L1 101Z" fill="#C7E4FF" stroke="#232323" stroke-width="2" stroke-linecap="round" stroke-linejoin="round"/>
<g id="numbers">
<path id="2" d="M105.594 53.2695L107.961 53.2695L107.961 55.0391L105.594 55.0391L105.594 59L103.414 59L103.414 55.0391L95.6445 55.0391L95.6445 53.7617L103.285 41.9375L105.594 41.9375L105.594 53.2695ZM98.1055 53.2695L103.414 53.2695L103.414 44.9023L103.156 45.3711L98.1055 53.2695ZM121.098 59L109.918 59L109.918 57.4414L115.824 50.8789C116.699 49.8867 117.301 49.082 117.629 48.4648C117.965 47.8398 118.133 47.1953 118.133 46.5312C118.133 45.6406 117.863 44.9102 117.324 44.3398C116.785 43.7695 116.066 43.4844 115.168 43.4844C114.09 43.4844 113.25 43.793 112.648 44.4102C112.055 45.0195 111.758 45.8711 111.758 46.9648L109.59 46.9648C109.59 45.3945 110.094 44.125 111.102 43.1562C112.117 42.1875 113.473 41.7031 115.168 41.7031C116.754 41.7031 118.008 42.1211 118.93 42.957C119.852 43.7852 120.312 44.8906 120.312 46.2734C120.312 47.9531 119.242 49.9531 117.102 52.2734L112.531 57.2305L121.098 57.2305L121.098 59Z" fill="#232323"/>
</g>
</g>
<g id="c4-f4-44">
<path id="Vector 70_2" d="M479.2 101L566.6 101L566.6 0.999988L479.2 0.999992L479.2 101Z" fill="#C7E4FF" stroke="#232323" stroke-width="2" stroke-linecap="round" stroke-linejoin="round"/>
<g id="numbers_2">
<path id="2_2" d="M519.594 53.2695L521.961 53.2695L521.961 55.0391L519.594 55.0391L519.594 59L517.414 59L517.414 55.0391L509.645 55.0391L509.645 53.7617L517.285 41.9375L519.594 41.9375L519.594 53.2695ZM512.105 53.2695L517.414 53.2695L517.414 44.9023L517.156 45.3711L512.105 53.2695ZM533.07 53.2695L535.437 53.2695L535.437 55.0391L533.07 55.0391L533.07 59L530.891 59L530.891 55.0391L523.121 55.0391L523.121 53.7617L530.762 41.9375L533.07 41.9375L533.07 53.2695ZM525.582 53.2695L530.891 53.2695L530.891 44.9023L530.633 45.3711L525.582 53.2695Z" fill="#232323"/>
</g>
</g>
<g id="c4-f4-45">
<path id="Vector 70_3" d="M566.6 101L654 101L654 0.999988L566.6 0.999992L566.6 101Z" fill="#C7E4FF" stroke="#232323" stroke-width="2" stroke-linecap="round" stroke-linejoin="round"/>
<g id="numbers_3">
<path id="2_3" d="M607.594 53.2695L609.961 53.2695L609.961 55.0391L607.594 55.0391L607.594 59L605.414 59L605.414 55.0391L597.645 55.0391L597.645 53.7617L605.285 41.9375L607.594 41.9375L607.594 53.2695ZM600.105 53.2695L605.414 53.2695L605.414 44.9023L605.156 45.3711L600.105 53.2695ZM612.914 50.4453L613.781 41.9375L622.523 41.9375L622.523 43.9414L615.621 43.9414L615.105 48.5937C615.941 48.1016 616.891 47.8555 617.953 47.8555C619.508 47.8555 620.742 48.3711 621.656 49.4023C622.57 50.4258 623.027 51.8125 623.027 53.5625C623.027 55.3203 622.551 56.707 621.598 57.7227C620.652 58.7305 619.328 59.2344 617.625 59.2344C616.117 59.2344 614.887 58.8164 613.934 57.9805C612.98 57.1445 612.437 55.9883 612.305 54.5117L614.355 54.5117C614.488 55.4883 614.836 56.2266 615.398 56.7266C615.961 57.2187 616.703 57.4648 617.625 57.4648C618.633 57.4648 619.422 57.1211 619.992 56.4336C620.57 55.7461 620.859 54.7969 620.859 53.5859C620.859 52.4453 620.547 51.5312 619.922 50.8437C619.305 50.1484 618.48 49.8008 617.449 49.8008C616.504 49.8008 615.762 50.0078 615.223 50.4219L614.648 50.8906L612.914 50.4453Z" fill="#232323"/>
</g>
</g>
<g id="c4-f4-43a">
<path id="Vector 70_4" d="M391.8 101L479.2 101L479.2 0.999988L391.8 0.999992L391.8 101Z" fill="#C7E4FF" stroke="#232323" stroke-width="2" stroke-linecap="round" stroke-linejoin="round"/>
<g id="numbers_4">
<path id="2_4" d="M426.066 53.2695L428.434 53.2695L428.434 55.0391L426.066 55.0391L426.066 59L423.887 59L423.887 55.0391L416.117 55.0391L416.117 53.7617L423.758 41.9375L426.066 41.9375L426.066 53.2695ZM418.578 53.2695L423.887 53.2695L423.887 44.9023L423.629 45.3711L418.578 53.2695ZM433.543 49.4141L435.172 49.4141C436.195 49.3984 437 49.1289 437.586 48.6055C438.172 48.082 438.465 47.375 438.465 46.4844C438.465 44.4844 437.469 43.4844 435.477 43.4844C434.539 43.4844 433.789 43.7539 433.227 44.293C432.672 44.8242 432.395 45.5312 432.395 46.4141L430.227 46.4141C430.227 45.0625 430.719 43.9414 431.703 43.0508C432.695 42.1523 433.953 41.7031 435.477 41.7031C437.086 41.7031 438.348 42.1289 439.262 42.9805C440.176 43.832 440.633 45.0156 440.633 46.5312C440.633 47.2734 440.391 47.9922 439.906 48.6875C439.43 49.3828 438.777 49.9023 437.949 50.2461C438.887 50.543 439.609 51.0352 440.117 51.7227C440.633 52.4102 440.891 53.25 440.891 54.2422C440.891 55.7734 440.391 56.9883 439.391 57.8867C438.391 58.7852 437.09 59.2344 435.488 59.2344C433.887 59.2344 432.582 58.8008 431.574 57.9336C430.574 57.0664 430.074 55.9219 430.074 54.5L432.254 54.5C432.254 55.3984 432.547 56.1172 433.133 56.6562C433.719 57.1953 434.504 57.4648 435.488 57.4648C436.535 57.4648 437.336 57.1914 437.891 56.6445C438.445 56.0977 438.723 55.3125 438.723 54.2891C438.723 53.2969 438.418 52.5352 437.809 52.0039C437.199 51.4727 436.32 51.1992 435.172 51.1836L433.543 51.1836L433.543 49.4141ZM451.918 59C451.793 58.75 451.691 58.3047 451.613 57.6641C450.605 58.7109 449.402 59.2344 448.004 59.2344C446.754 59.2344 445.727 58.8828 444.922 58.1797C444.125 57.4687 443.727 56.5703 443.727 55.4844C443.727 54.1641 444.227 53.1406 445.227 52.4141C446.234 51.6797 447.648 51.3125 449.469 51.3125L451.578 51.3125L451.578 50.3164C451.578 49.5586 451.352 48.957 450.898 48.5117C450.445 48.0586 449.777 47.832 448.895 47.832C448.121 47.832 447.473 48.0273 446.949 48.418C446.426 48.8086 446.164 49.2812 446.164 49.8359L443.984 49.8359C443.984 49.2031 444.207 48.5937 444.652 48.0078C445.105 47.4141 445.715 46.9453 446.48 46.6016C447.254 46.2578 448.102 46.0859 449.023 46.0859C450.484 46.0859 451.629 46.4531 452.457 47.1875C453.285 47.9141 453.715 48.918 453.746 50.1992L453.746 56.0352C453.746 57.1992 453.895 58.125 454.191 58.8125L454.191 59L451.918 59ZM448.32 57.3477C449 57.3477 449.645 57.1719 450.254 56.8203C450.863 56.4687 451.305 56.0117 451.578 55.4492L451.578 52.8477L449.879 52.8477C447.223 52.8477 445.895 53.625 445.895 55.1797C445.895 55.8594 446.121 56.3906 446.574 56.7734C447.027 57.1562 447.609 57.3477 448.32 57.3477Z" fill="#232323"/>
</g>
</g>
<g id="c4-f4-43">
<path id="Vector 70_5" d="M304.4 101L391.8 101L391.8 0.999988L304.4 0.999992L304.4 101Z" fill="#C7E4FF" stroke="#232323" stroke-width="2" stroke-linecap="round" stroke-linejoin="round"/>
<g id="numbers_5">
<path id="2_5" d="M345.594 53.2695L347.961 53.2695L347.961 55.0391L345.594 55.0391L345.594 59L343.414 59L343.414 55.0391L335.645 55.0391L335.645 53.7617L343.285 41.9375L345.594 41.9375L345.594 53.2695ZM338.105 53.2695L343.414 53.2695L343.414 44.9023L343.156 45.3711L338.105 53.2695ZM353.07 49.4141L354.699 49.4141C355.723 49.3984 356.527 49.1289 357.113 48.6055C357.699 48.082 357.992 47.375 357.992 46.4844C357.992 44.4844 356.996 43.4844 355.004 43.4844C354.066 43.4844 353.316 43.7539 352.754 44.293C352.199 44.8242 351.922 45.5312 351.922 46.4141L349.754 46.4141C349.754 45.0625 350.246 43.9414 351.23 43.0508C352.223 42.1523 353.48 41.7031 355.004 41.7031C356.613 41.7031 357.875 42.1289 358.789 42.9805C359.703 43.832 360.16 45.0156 360.16 46.5312C360.16 47.2734 359.918 47.9922 359.434 48.6875C358.957 49.3828 358.305 49.9023 357.477 50.2461C358.414 50.543 359.137 51.0352 359.645 51.7227C360.16 52.4102 360.418 53.25 360.418 54.2422C360.418 55.7734 359.918 56.9883 358.918 57.8867C357.918 58.7852 356.617 59.2344 355.016 59.2344C353.414 59.2344 352.109 58.8008 351.102 57.9336C350.102 57.0664 349.602 55.9219 349.602 54.5L351.781 54.5C351.781 55.3984 352.074 56.1172 352.66 56.6562C353.246 57.1953 354.031 57.4648 355.016 57.4648C356.062 57.4648 356.863 57.1914 357.418 56.6445C357.973 56.0977 358.25 55.3125 358.25 54.2891C358.25 53.2969 357.945 52.5352 357.336 52.0039C356.727 51.4727 355.848 51.1992 354.699 51.1836L353.07 51.1836L353.07 49.4141Z" fill="#232323"/>
</g>
</g>
<g id="c4-f4-sp">
<path id="Vector 70_6" d="M217 101L304.4 101L304.4 0.999988L217 0.999992L217 101Z" fill="#C7E4FF" stroke="#232323" stroke-width="2" stroke-linecap="round" stroke-linejoin="round"/>
<g id="numbers_6">
<path id="2_6" d="M254.02 57.4648C254.793 57.4648 255.469 57.2305 256.047 56.7617C256.625 56.293 256.945 55.707 257.008 55.0039L259.059 55.0039C259.02 55.7305 258.77 56.4219 258.309 57.0781C257.848 57.7344 257.23 58.2578 256.457 58.6484C255.691 59.0391 254.879 59.2344 254.02 59.2344C252.293 59.2344 250.918 58.6602 249.895 57.5117C248.879 56.3555 248.371 54.7773 248.371 52.7773L248.371 52.4141C248.371 51.1797 248.598 50.082 249.051 49.1211C249.504 48.1602 250.152 47.4141 250.996 46.8828C251.848 46.3516 252.852 46.0859 254.008 46.0859C255.43 46.0859 256.609 46.5117 257.547 47.3633C258.492 48.2148 258.996 49.3203 259.059 50.6797L257.008 50.6797C256.945 49.8594 256.633 49.1875 256.07 48.6641C255.516 48.1328 254.828 47.8672 254.008 47.8672C252.906 47.8672 252.051 48.2656 251.441 49.0625C250.84 49.8516 250.539 50.9961 250.539 52.4961L250.539 52.9062C250.539 54.3672 250.84 55.4922 251.441 56.2812C252.043 57.0703 252.902 57.4648 254.02 57.4648ZM271.867 59L269.699 59L269.699 48.1133L263.863 48.1133L263.863 59L261.684 59L261.684 46.3203L271.867 46.3203L271.867 59Z" fill="#232323"/>
</g>
</g>
<g id="c4-f4-46">
<path id="Vector 70_7" d="M756 101L925 101L925 1L756 1.00001L756 101Z" fill="#C7E4FF" stroke="#232323" stroke-width="2" stroke-linecap="round" stroke-linejoin="round"/>
<g id="numbers_7">
<path id="2_7" d="M837.594 53.2695L839.961 53.2695L839.961 55.0391L837.594 55.0391L837.594 59L835.414 59L835.414 55.0391L827.645 55.0391L827.645 53.7617L835.285 41.9375L837.594 41.9375L837.594 53.2695ZM830.105 53.2695L835.414 53.2695L835.414 44.9023L835.156 45.3711L830.105 53.2695ZM850.426 41.9258L850.426 43.7656L850.027 43.7656C848.34 43.7969 846.996 44.2969 845.996 45.2656C844.996 46.2344 844.418 47.5977 844.262 49.3555C845.16 48.3242 846.387 47.8086 847.941 47.8086C849.426 47.8086 850.609 48.332 851.492 49.3789C852.383 50.4258 852.828 51.7773 852.828 53.4336C852.828 55.1914 852.348 56.5977 851.387 57.6523C850.434 58.707 849.152 59.2344 847.543 59.2344C845.91 59.2344 844.586 58.6094 843.57 57.3594C842.555 56.1016 842.047 54.4844 842.047 52.5078L842.047 51.6758C842.047 48.5352 842.715 46.1367 844.051 44.4805C845.395 42.8164 847.391 41.9648 850.039 41.9258L850.426 41.9258ZM847.578 49.6133C846.836 49.6133 846.152 49.8359 845.527 50.2812C844.902 50.7266 844.469 51.2852 844.227 51.957L844.227 52.7539C844.227 54.1602 844.543 55.293 845.176 56.1523C845.809 57.0117 846.598 57.4414 847.543 57.4414C848.52 57.4414 849.285 57.082 849.84 56.3633C850.402 55.6445 850.684 54.7031 850.684 53.5391C850.684 52.3672 850.398 51.4219 849.828 50.7031C849.266 49.9766 848.516 49.6133 847.578 49.6133Z" fill="#232323"/>
</g>
</g>
<g id="c4-f4-49">
<path id="Vector 70_8" d="M858 289L943.5 289L943.5 194L858 194L858 289Z" fill="#C7E4FF" stroke="#232323" stroke-width="2" stroke-linecap="round" stroke-linejoin="round"/>
<g id="numbers_8">
<path id="2_8" d="M897.594 244.27L899.961 244.27L899.961 246.039L897.594 246.039L897.594 250L895.414 250L895.414 246.039L887.645 246.039L887.645 244.762L895.285 232.937L897.594 232.937L897.594 244.27ZM890.105 244.27L895.414 244.27L895.414 235.902L895.156 236.371L890.105 244.27ZM910.227 242.5C909.773 243.039 909.23 243.473 908.598 243.801C907.973 244.129 907.285 244.293 906.535 244.293C905.551 244.293 904.691 244.051 903.957 243.566C903.23 243.082 902.668 242.402 902.27 241.527C901.871 240.645 901.672 239.672 901.672 238.609C901.672 237.469 901.887 236.441 902.316 235.527C902.754 234.613 903.371 233.914 904.168 233.43C904.965 232.945 905.895 232.703 906.957 232.703C908.645 232.703 909.973 233.336 910.941 234.602C911.918 235.859 912.406 237.578 912.406 239.758L912.406 240.391C912.406 243.711 911.75 246.137 910.437 247.668C909.125 249.191 907.145 249.973 904.496 250.012L904.074 250.012L904.074 248.184L904.531 248.184C906.32 248.152 907.695 247.687 908.656 246.789C909.617 245.883 910.141 244.453 910.227 242.5ZM906.887 242.5C907.613 242.5 908.281 242.277 908.891 241.832C909.508 241.387 909.957 240.836 910.238 240.18L910.238 239.312C910.238 237.891 909.93 236.734 909.312 235.844C908.695 234.953 907.914 234.508 906.969 234.508C906.016 234.508 905.25 234.875 904.672 235.609C904.094 236.336 903.805 237.297 903.805 238.492C903.805 239.656 904.082 240.617 904.637 241.375C905.199 242.125 905.949 242.5 906.887 242.5Z" fill="#232323"/>
</g>
</g>
<g id="c4-f4-47">
<path id="Vector 70_9" d="M943.5 289L1029 289L1029 194L943.5 194L943.5 289Z" fill="#C7E4FF" stroke="#232323" stroke-width="2" stroke-linecap="round" stroke-linejoin="round"/>
<g id="numbers_9">
<path id="2_9" d="M983.594 244.27L985.961 244.27L985.961 246.039L983.594 246.039L983.594 250L981.414 250L981.414 246.039L973.645 246.039L973.645 244.762L981.285 232.937L983.594 232.937L983.594 244.27ZM976.105 244.27L981.414 244.27L981.414 235.902L981.156 236.371L976.105 244.27ZM998.934 234.156L991.867 250L989.594 250L996.637 234.719L987.402 234.719L987.402 232.937L998.934 232.937L998.934 234.156Z" fill="#232323"/>
</g>
</g>
<g id="c4-f4-48">
<path id="Vector 70_10" d="M925 101L1029 101L1029 1L925 1.00001L925 101Z" fill="#C7E4FF" stroke="#232323" stroke-width="2" stroke-linecap="round" stroke-linejoin="round"/>
<g id="numbers_10">
<path id="2_10" d="M974.594 53.2695L976.961 53.2695L976.961 55.0391L974.594 55.0391L974.594 59L972.414 59L972.414 55.0391L964.645 55.0391L964.645 53.7617L972.285 41.9375L974.594 41.9375L974.594 53.2695ZM967.105 53.2695L972.414 53.2695L972.414 44.9023L972.156 45.3711L967.105 53.2695ZM989.266 46.3906C989.266 47.2422 989.039 48 988.586 48.6641C988.141 49.3281 987.535 49.8477 986.77 50.2227C987.66 50.6055 988.363 51.1641 988.879 51.8984C989.402 52.6328 989.664 53.4648 989.664 54.3945C989.664 55.8711 989.164 57.0469 988.164 57.9219C987.172 58.7969 985.863 59.2344 984.238 59.2344C982.598 59.2344 981.281 58.7969 980.289 57.9219C979.305 57.0391 978.812 55.8633 978.812 54.3945C978.812 53.4727 979.062 52.6406 979.562 51.8984C980.07 51.1562 980.77 50.5937 981.66 50.2109C980.902 49.8359 980.305 49.3164 979.867 48.6523C979.43 47.9883 979.211 47.2344 979.211 46.3906C979.211 44.9531 979.672 43.8125 980.594 42.9687C981.516 42.125 982.73 41.7031 984.238 41.7031C985.738 41.7031 986.949 42.125 987.871 42.9687C988.801 43.8125 989.266 44.9531 989.266 46.3906ZM987.496 54.3477C987.496 53.3945 987.191 52.6172 986.582 52.0156C985.98 51.4141 985.191 51.1133 984.215 51.1133C983.238 51.1133 982.453 51.4102 981.859 52.0039C981.273 52.5977 980.98 53.3789 980.98 54.3477C980.98 55.3164 981.266 56.0781 981.836 56.6328C982.414 57.1875 983.215 57.4648 984.238 57.4648C985.254 57.4648 986.051 57.1875 986.629 56.6328C987.207 56.0703 987.496 55.3086 987.496 54.3477ZM984.238 43.4844C983.387 43.4844 982.695 43.75 982.164 44.2812C981.641 44.8047 981.379 45.5195 981.379 46.4258C981.379 47.293 981.637 47.9961 982.152 48.5352C982.676 49.0664 983.371 49.332 984.238 49.332C985.105 49.332 985.797 49.0664 986.312 48.5352C986.836 47.9961 987.098 47.293 987.098 46.4258C987.098 45.5586 986.828 44.8516 986.289 44.3047C985.75 43.7578 985.066 43.4844 984.238 43.4844Z" fill="#232323"/>
</g>
</g>
<g id="c4-f4-4">
<path id="Vector 70_11" d="M705 101L756 101L756 51L705 51L705 101Z" fill="#C7E4FF" stroke="#232323" stroke-width="2" stroke-linecap="round" stroke-linejoin="round"/>
<g id="numbers_11">
<path id="2_11" d="M734.832 78.2695L737.199 78.2695L737.199 80.0391L734.832 80.0391L734.832 84L732.652 84L732.652 80.0391L724.883 80.0391L724.883 78.7617L732.523 66.9375L734.832 66.9375L734.832 78.2695ZM727.344 78.2695L732.652 78.2695L732.652 69.9023L732.395 70.3711L727.344 78.2695Z" fill="#232323"/>
</g>
</g>
<g id="c4-f4-wc">
<path id="Vector 70_12" d="M654 1.00001L654 101L705 101L705 51L756 51L756 1L654 1.00001Z" fill="white" stroke="#232323" stroke-width="2" stroke-linecap="round" stroke-linejoin="round"/>
<g id="wc">
<rect id="Rectangle 18_3" x="669" y="15" width="30" height="30" rx="3" fill="#3377E4"/>
<g id="Group">
<path id="Vector" fill-rule="evenodd" clip-rule="evenodd" d="M693.83 37.4099C694.282 38.4093 693.829 39.5588 692.527 39.5588L685.136 39.5606C683.757 39.5606 683.501 38.3461 683.913 37.3533L687.606 29.1939C688.198 27.8769 689.538 28.0468 690.133 29.2519L693.83 37.4099ZM679.129 21C680.984 21 682.358 22.492 682.358 24.1619C682.358 25.8319 680.985 27.3239 679.129 27.3239C677.275 27.3239 675.9 25.8323 675.9 24.1619C675.9 22.492 677.275 21 679.129 21ZM680.398 38.5749C679.805 39.7772 678.462 39.9466 677.871 38.633L674.178 30.4731C673.767 29.4812 674.026 28.2667 675.401 28.2667L679.122 28.2667L682.792 28.2681C684.094 28.2681 684.547 29.4171 684.095 30.4165L680.398 38.5749ZM688.864 21C690.719 21 692.093 22.492 692.093 24.1619C692.093 25.8319 690.719 27.3239 688.864 27.3239C687.01 27.3239 685.635 25.8323 685.635 24.1619C685.635 22.492 687.01 21 688.864 21Z" fill="white"/>
</g>
</g>
</g>
<g id="c4-f4-41">
<path id="Vector 70_13" d="M1 289L132 289L132 101L0.999993 101L1 289Z" fill="#C7E4FF" stroke="#232323" stroke-width="2" stroke-linecap="round" stroke-linejoin="round"/>
<g id="numbers_12">
<path id="2_12" d="M63.5937 197.27L65.9609 197.27L65.9609 199.039L63.5937 199.039L63.5937 203L61.4141 203L61.4141 199.039L53.6445 199.039L53.6445 197.762L61.2852 185.937L63.5937 185.937L63.5937 197.27ZM56.1055 197.27L61.4141 197.27L61.4141 188.902L61.1562 189.371L56.1055 197.27ZM75.043 203L72.8633 203L72.8633 188.551L68.4922 190.156L68.4922 188.187L74.7031 185.855L75.043 185.855L75.043 203Z" fill="#232323"/>
</g>
</g>
<g id="danger">
<path id="Polygon 1" d="M829.903 87.7647C831.28 85.4118 834.72 85.4118 836.097 87.7647L849.516 110.706C850.892 113.059 849.172 116 846.419 116H819.581C816.828 116 815.108 113.059 816.484 110.706L829.903 87.7647Z" fill="#FE7A00"/>
<path id="Polygon 1 (Stroke)" fill-rule="evenodd" clip-rule="evenodd" d="M837.823 86.7549L851.242 109.696C853.421 113.422 850.67 118 846.419 118H819.581C815.329 118 812.579 113.422 814.758 109.696L828.177 86.7549C830.325 83.0817 835.674 83.0817 837.823 86.7549ZM836.097 87.7647C834.72 85.4118 831.28 85.4118 829.903 87.7647L816.484 110.706C815.108 113.059 816.828 116 819.581 116H846.419C849.171 116 850.892 113.059 849.516 110.706L836.097 87.7647Z" fill="white"/>
<path id="Vector_2" d="M836.634 102.472H833L835.341 96.4746C835.426 96.2589 835.256 96 835 96H830.341C830.171 96 830.043 96.1294 830 96.302L828.666 105.069C828.623 105.284 828.794 105.5 829.007 105.5H832L830.242 112.568C830.157 112.956 830.668 113.172 830.882 112.827L836.932 103.033C837.103 102.817 836.932 102.472 836.634 102.472Z" fill="white"/>
</g>
</g>
</svg>
