<svg width="1442" height="780" viewBox="0 0 1442 780" fill="none" xmlns="http://www.w3.org/2000/svg">
<g id="c2-f1">
<g id="Vector 1">
<path d="M244 390.082L403 206V1H528.096V104H1393.95V184.074H1441V288H1393.95H1341V390H1294L528.096 390.082V514H398.796V779H119V514H1V390.082H244Z" fill="white"/>
<path d="M1393.95 184.074V104H528.096V1H403V206L244 390.082H1V514H119V779H398.796V514H528.096V390.082M1393.95 184.074H1441V288H1393.95M1393.95 184.074V206M1393.95 288V206M1393.95 288H1341V390H1294L528.096 390.082M528.096 390.082V288H603.999M1340 206H1393.95" stroke="black" stroke-width="2" stroke-linecap="round" stroke-linejoin="round"/>
</g>
<g id="bank">
<rect id="Rectangle 18" x="415" y="211" width="30" height="30" rx="3" fill="#0ABFEA"/>
<path id="&#208;&#145;" d="M434.968 218H424V234.008H431.032C434.392 234.008 436.264 231.704 436.264 228.992C436.264 226.28 434.368 223.976 431.032 223.976H426.808V220.472H434.968V218ZM426.808 226.448H430.648C432.232 226.448 433.384 227.456 433.384 228.992C433.384 230.528 432.232 231.536 430.648 231.536H426.808V226.448Z" fill="white"/>
</g>
<g id="enter">
<rect id="Rectangle 18_2" x="300" y="292" width="30" height="30" rx="3" fill="#3377E4"/>
<g id="Group">
<g id="Group_2">
<g id="Group_3">
<path id="Vector" d="M309.421 302.893C309.421 302.012 309.421 301.13 309.421 300.25C309.421 300.109 309.411 299.961 309.429 299.82C309.415 299.925 309.401 300.03 309.387 300.137C309.397 300.076 309.413 300.018 309.437 299.961C309.397 300.056 309.357 300.151 309.318 300.244C309.341 300.188 309.371 300.139 309.407 300.09C309.345 300.169 309.282 300.25 309.22 300.329C309.262 300.275 309.31 300.228 309.363 300.186C309.284 300.248 309.202 300.311 309.122 300.372C309.172 300.337 309.222 300.307 309.278 300.281C309.182 300.321 309.087 300.361 308.993 300.4C309.059 300.372 309.126 300.355 309.196 300.343C309.091 300.357 308.985 300.37 308.878 300.384C309.013 300.368 309.154 300.376 309.29 300.376C309.578 300.376 309.867 300.376 310.156 300.376C311.121 300.376 312.087 300.376 313.053 300.376C314.226 300.376 315.396 300.376 316.569 300.376C317.573 300.376 318.578 300.376 319.582 300.376C320.061 300.376 320.543 300.374 321.023 300.376C321.065 300.376 321.105 300.378 321.147 300.384C321.041 300.37 320.935 300.357 320.828 300.343C320.9 300.355 320.965 300.372 321.033 300.4C320.937 300.361 320.842 300.321 320.748 300.281C320.812 300.311 320.872 300.345 320.928 300.388C320.848 300.327 320.766 300.264 320.687 300.202C320.734 300.24 320.774 300.283 320.814 300.329C320.752 300.25 320.689 300.169 320.627 300.09C320.663 300.139 320.693 300.188 320.718 300.244C320.679 300.149 320.639 300.054 320.599 299.961C320.623 300.018 320.639 300.076 320.651 300.137C320.637 300.032 320.623 299.927 320.609 299.82C320.629 299.971 320.617 300.127 320.617 300.279C320.617 300.614 320.617 300.95 320.617 301.284C320.617 301.785 320.617 302.285 320.617 302.788C320.617 303.401 320.617 304.014 320.617 304.628C320.617 305.304 320.617 305.981 320.617 306.657C320.617 307.338 320.617 308.016 320.617 308.697C320.617 309.33 320.617 309.963 320.617 310.596C320.617 311.13 320.617 311.662 320.617 312.196C320.617 312.576 320.617 312.958 320.617 313.338C320.617 313.514 320.617 313.688 320.617 313.864C320.617 313.906 320.615 313.947 320.609 313.991C320.623 313.886 320.637 313.781 320.651 313.674C320.641 313.735 320.623 313.795 320.599 313.854C320.639 313.759 320.679 313.664 320.718 313.571C320.689 313.636 320.655 313.696 320.611 313.751C320.673 313.672 320.736 313.591 320.798 313.512C320.758 313.559 320.716 313.603 320.667 313.642C320.746 313.581 320.828 313.518 320.908 313.456C320.85 313.5 320.79 313.536 320.726 313.563C320.822 313.524 320.918 313.484 321.011 313.445C320.951 313.468 320.894 313.484 320.83 313.496C320.935 313.482 321.041 313.468 321.149 313.454C321.013 313.472 320.872 313.462 320.736 313.462C320.448 313.462 320.159 313.462 319.87 313.462C318.905 313.462 317.939 313.462 316.973 313.462C315.8 313.462 314.63 313.462 313.457 313.462C312.453 313.462 311.448 313.462 310.444 313.462C309.965 313.462 309.483 313.464 309.003 313.462C308.961 313.462 308.921 313.46 308.879 313.454C308.985 313.468 309.091 313.482 309.198 313.496C309.136 313.486 309.077 313.468 309.019 313.445C309.114 313.484 309.21 313.524 309.304 313.563C309.248 313.538 309.194 313.508 309.144 313.472C309.224 313.534 309.306 313.597 309.385 313.658C309.329 313.615 309.28 313.567 309.236 313.512C309.298 313.591 309.361 313.672 309.423 313.751C309.381 313.694 309.345 313.635 309.318 313.571C309.357 313.666 309.397 313.761 309.437 313.854C309.413 313.795 309.397 313.737 309.387 313.674C309.401 313.779 309.415 313.884 309.429 313.991C309.413 313.872 309.421 313.747 309.421 313.627C309.421 313.393 309.421 313.16 309.421 312.928C309.421 312.394 309.421 311.858 309.421 311.324C309.421 311.199 309.421 311.073 309.421 310.948C309.421 310.643 309.288 310.325 309.071 310.109C308.864 309.9 308.523 309.743 308.226 309.757C307.918 309.771 307.597 309.872 307.382 310.105C307.165 310.337 307.032 310.622 307.032 310.944C307.032 311.795 307.032 312.645 307.032 313.496C307.032 313.621 307.03 313.745 307.032 313.87C307.04 314.558 307.41 315.251 308.035 315.581C308.346 315.745 308.668 315.828 309.019 315.83C309.077 315.83 309.136 315.83 309.194 315.83C309.833 315.83 310.472 315.83 311.111 315.83C312.153 315.83 313.194 315.83 314.236 315.83C315.351 315.83 316.466 315.83 317.583 315.83C318.445 315.83 319.307 315.83 320.169 315.83C320.402 315.83 320.637 315.83 320.87 315.83C320.92 315.83 320.969 315.83 321.019 315.83C321.537 315.828 321.989 315.633 322.373 315.3C322.779 314.95 322.994 314.398 323 313.872C323 313.834 323 313.797 323 313.759C323 313.565 323 313.369 323 313.176C323 312.412 323 311.646 323 310.883C323 309.82 323 308.758 323 307.696C323 306.58 323 305.464 323 304.349C323 303.417 323 302.485 323 301.553C323 301.045 323 300.539 323 300.03C323 299.999 323 299.965 323 299.933C322.99 299.253 322.634 298.632 322.047 298.281C321.674 298.06 321.262 298.006 320.842 298.006C320.213 298.006 319.584 298.006 318.954 298.006C317.917 298.006 316.88 298.006 315.844 298.006C314.723 298.006 313.604 298.006 312.483 298.006C311.613 298.006 310.743 298.006 309.873 298.006C309.222 298.006 308.473 297.927 307.914 298.323C307.659 298.503 307.522 298.638 307.34 298.893C307.231 299.045 307.157 299.225 307.103 299.403C307.05 299.581 307.03 299.773 307.03 299.957C307.03 300.101 307.03 300.244 307.03 300.388C307.03 300.918 307.03 301.451 307.03 301.981C307.03 302.285 307.03 302.588 307.03 302.893C307.03 303.197 307.163 303.516 307.38 303.731C307.587 303.937 307.928 304.092 308.224 304.08C308.533 304.066 308.854 303.965 309.069 303.731C309.286 303.5 309.421 303.215 309.421 302.893Z" fill="white"/>
</g>
</g>
<g id="Group_4">
<g id="Group_5">
<path id="Vector_2" d="M312.712 304.341C313.102 304.728 313.493 305.116 313.881 305.502C314.496 306.113 315.113 306.727 315.729 307.338C315.872 307.48 316.013 307.621 316.157 307.763C316.157 307.203 316.157 306.643 316.157 306.084C315.766 306.471 315.376 306.859 314.988 307.245C314.373 307.856 313.755 308.469 313.14 309.081C312.997 309.223 312.855 309.364 312.712 309.506C312.495 309.722 312.362 310.04 312.362 310.345C312.362 310.636 312.491 310.984 312.712 311.183C312.939 311.391 313.238 311.545 313.556 311.532C313.873 311.518 314.172 311.411 314.401 311.183C314.791 310.796 315.181 310.408 315.569 310.022C316.185 309.411 316.802 308.798 317.417 308.186C317.56 308.044 317.702 307.904 317.845 307.761C318.301 307.308 318.303 306.537 317.845 306.082C317.455 305.694 317.065 305.306 316.676 304.92C316.061 304.309 315.444 303.696 314.829 303.085C314.685 302.942 314.544 302.802 314.401 302.659C314.184 302.444 313.863 302.311 313.556 302.311C313.264 302.311 312.913 302.44 312.712 302.659C312.503 302.885 312.348 303.182 312.362 303.498C312.378 303.817 312.483 304.113 312.712 304.341Z" fill="white"/>
</g>
</g>
<g id="Group_6">
<g id="Group_7">
<path id="Vector_3" d="M306.195 308.111C306.554 308.111 306.91 308.111 307.268 308.111C308.129 308.111 308.987 308.111 309.847 308.111C310.886 308.111 311.928 308.111 312.967 308.111C313.867 308.111 314.767 308.111 315.667 308.111C316.105 308.111 316.545 308.115 316.983 308.111C316.989 308.111 316.995 308.111 317.001 308.111C317.308 308.111 317.628 307.979 317.845 307.763C318.052 307.557 318.207 307.219 318.196 306.924C318.182 306.618 318.08 306.299 317.845 306.086C317.612 305.872 317.323 305.737 317.001 305.737C316.642 305.737 316.286 305.737 315.928 305.737C315.068 305.737 314.209 305.737 313.349 305.737C312.31 305.737 311.269 305.737 310.229 305.737C309.329 305.737 308.429 305.737 307.529 305.737C307.091 305.737 306.651 305.733 306.213 305.737C306.207 305.737 306.201 305.737 306.195 305.737C305.889 305.737 305.568 305.87 305.351 306.086C305.144 306.291 304.989 306.63 305.001 306.924C305.015 307.231 305.116 307.549 305.351 307.763C305.586 307.977 305.873 308.111 306.195 308.111Z" fill="white"/>
</g>
</g>
</g>
</g>
<g id="c2-f1-cloakroom2">
<path id="Vector 79" d="M403 1V206H528V1H403Z" fill="#C7E4FF" stroke="#232323" stroke-width="2" stroke-linecap="round" stroke-linejoin="round"/>
<g id="cloakroom">
<rect id="Rectangle 18_3" x="451" y="88" width="30" height="30" rx="3" fill="#3377E4"/>
<path id="Vector_4" d="M458.403 111H473.597C474.131 111 474.649 110.83 475.071 110.516C475.493 110.202 475.793 109.762 475.925 109.266C476.057 108.77 476.013 108.245 475.8 107.776C475.587 107.306 475.218 106.918 474.749 106.673L466.833 102.53V101.304C467.649 101.103 468.355 100.612 468.809 99.9314C469.263 99.2506 469.432 98.4301 469.281 97.6349C469.134 96.8473 468.685 96.1411 468.022 95.6557C467.359 95.1703 466.53 94.941 465.7 95.013C464.869 95.085 464.097 95.4532 463.536 96.0448C462.974 96.6363 462.664 97.4084 462.667 98.2085C462.667 98.4205 462.755 98.6239 462.911 98.7738C463.067 98.9237 463.279 99.008 463.5 99.008C463.721 99.008 463.933 98.9237 464.089 98.7738C464.246 98.6239 464.334 98.4205 464.334 98.2085C464.333 97.9733 464.387 97.741 464.491 97.5281C464.595 97.3151 464.747 97.1269 464.936 96.9766C465.124 96.8264 465.345 96.718 465.582 96.659C465.82 96.6 466.067 96.592 466.308 96.6355C466.637 96.6971 466.939 96.8512 467.177 97.0784C467.414 97.3055 467.575 97.5953 467.639 97.9107C467.685 98.142 467.677 98.38 467.616 98.608C467.554 98.8359 467.441 99.048 467.285 99.2292C467.128 99.4104 466.932 99.5561 466.71 99.6561C466.488 99.7561 466.245 99.8077 466 99.8074C465.779 99.8074 465.567 99.8917 465.411 100.042C465.255 100.192 465.167 100.395 465.167 100.607V102.53L457.251 106.673C456.782 106.918 456.413 107.306 456.2 107.776C455.987 108.245 455.943 108.77 456.075 109.266C456.207 109.762 456.507 110.202 456.929 110.516C457.351 110.83 457.869 111 458.403 111ZM458.051 108.076L466 103.917L473.949 108.076C474.093 108.151 474.206 108.27 474.271 108.413C474.337 108.557 474.35 108.718 474.31 108.87C474.27 109.022 474.178 109.157 474.049 109.253C473.919 109.349 473.761 109.401 473.597 109.401H458.403C458.239 109.401 458.081 109.349 457.951 109.253C457.822 109.157 457.73 109.022 457.69 108.87C457.65 108.718 457.663 108.557 457.729 108.413C457.794 108.27 457.907 108.151 458.051 108.076Z" fill="white" stroke="white" stroke-width="0.5"/>
</g>
</g>
<g id="c2-f1-wc">
<path id="Vector 79_2" d="M316 514V600H399V514H316Z" fill="#C7E4FF" stroke="#232323" stroke-width="2" stroke-linecap="round" stroke-linejoin="round"/>
<g id="wc">
<rect id="Rectangle 18_4" x="342" y="542" width="30" height="30" rx="3" fill="#3377E4"/>
<g id="Group_8">
<path id="Vector_5" fill-rule="evenodd" clip-rule="evenodd" d="M366.83 564.41C367.282 565.409 366.829 566.559 365.527 566.559L358.136 566.561C356.757 566.561 356.501 565.346 356.913 564.353L360.606 556.194C361.198 554.877 362.538 555.047 363.133 556.252L366.83 564.41ZM352.129 548C353.984 548 355.358 549.492 355.358 551.162C355.358 552.832 353.985 554.324 352.129 554.324C350.275 554.324 348.9 552.832 348.9 551.162C348.9 549.492 350.275 548 352.129 548ZM353.398 565.575C352.805 566.777 351.462 566.947 350.871 565.633L347.178 557.473C346.767 556.481 347.026 555.267 348.401 555.267H352.122L355.792 555.268C357.094 555.268 357.547 556.417 357.095 557.416L353.398 565.575ZM361.864 548C363.719 548 365.093 549.492 365.093 551.162C365.093 552.832 363.719 554.324 361.864 554.324C360.01 554.324 358.635 552.832 358.635 551.162C358.635 549.492 360.01 548 361.864 548Z" fill="white"/>
</g>
</g>
</g>
<g id="c2-f1-cloakroom">
<path id="Vector 79_3" d="M1 514L143 514L143 390L1 390L1 514Z" fill="#C7E4FF" stroke="#232323" stroke-width="2" stroke-linecap="round" stroke-linejoin="round"/>
<g id="cloakroom_2">
<rect id="Rectangle 18_5" x="57" y="437" width="30" height="30" rx="3" fill="#3377E4"/>
<path id="Vector_6" d="M64.4029 460H79.5971C80.1309 460 80.6495 459.83 81.071 459.516C81.4926 459.202 81.7932 458.762 81.9253 458.266C82.0574 457.77 82.0135 457.245 81.8005 456.776C81.5875 456.306 81.2176 455.918 80.7491 455.673L72.8332 451.53V450.304C73.6491 450.103 74.355 449.612 74.8091 448.931C75.2632 448.251 75.4318 447.43 75.2809 446.635C75.1341 445.847 74.6849 445.141 74.0219 444.656C73.359 444.17 72.5305 443.941 71.6999 444.013C70.8694 444.085 70.0972 444.453 69.5357 445.045C68.9742 445.636 68.6642 446.408 68.667 447.209C68.667 447.421 68.7548 447.624 68.9111 447.774C69.0673 447.924 69.2793 448.008 69.5003 448.008C69.7212 448.008 69.9332 447.924 70.0895 447.774C70.2457 447.624 70.3335 447.421 70.3335 447.209C70.3333 446.973 70.3871 446.741 70.4911 446.528C70.5952 446.315 70.7469 446.127 70.9355 445.977C71.1241 445.826 71.3449 445.718 71.5822 445.659C71.8195 445.6 72.0674 445.592 72.3083 445.636C72.6372 445.697 72.9394 445.851 73.1765 446.078C73.4136 446.305 73.5748 446.595 73.6394 446.911C73.6851 447.142 73.677 447.38 73.6157 447.608C73.5544 447.836 73.4415 448.048 73.2849 448.229C73.1283 448.41 72.9319 448.556 72.7098 448.656C72.4877 448.756 72.2453 448.808 72 448.807C71.779 448.807 71.5671 448.892 71.4108 449.042C71.2545 449.192 71.1668 449.395 71.1668 449.607V451.53L63.2509 455.673C62.7824 455.918 62.4125 456.306 62.1995 456.776C61.9865 457.245 61.9426 457.77 62.0747 458.266C62.2068 458.762 62.5074 459.202 62.929 459.516C63.3505 459.83 63.8691 460 64.4029 460ZM64.0508 457.076L72 452.917L79.9492 457.076C80.0927 457.151 80.2061 457.27 80.2715 457.413C80.3368 457.557 80.3504 457.718 80.31 457.87C80.2696 458.022 80.1776 458.157 80.0485 458.253C79.9194 458.349 79.7606 458.401 79.5971 458.401H64.4029C64.2394 458.401 64.0806 458.349 63.9515 458.253C63.8224 458.157 63.7304 458.022 63.69 457.87C63.6496 457.718 63.6632 457.557 63.7285 457.413C63.7939 457.27 63.9073 457.151 64.0508 457.076Z" fill="white" stroke="white" stroke-width="0.5"/>
</g>
</g>
<g id="c2-f1-buffet">
<path id="Vector 79_4" d="M119 779L399 779L399 600L316 600L316 514L119 514L119 779Z" fill="#C7E4FF" stroke="#232323" stroke-width="2" stroke-linecap="round" stroke-linejoin="round"/>
<g id="buffet">
<rect id="Rectangle 18_6" x="205" y="667" width="30" height="30" rx="3" fill="#3377E4"/>
<g id="Group_9">
<g id="Group_10">
<path id="Vector_7" d="M224.068 672.617C224.201 673.017 224.25 673.441 224.25 673.865C224.25 674.29 224.201 674.702 224.068 675.102C224.02 675.223 223.983 675.502 223.983 675.768C223.983 676.035 224.02 676.314 224.068 676.435C224.226 676.908 223.971 677.429 223.498 677.587C223.013 677.744 222.504 677.49 222.347 677.017C222.213 676.605 222.165 676.192 222.165 675.768C222.165 675.344 222.213 674.932 222.347 674.52C222.383 674.386 222.432 674.12 222.432 673.865C222.432 673.598 222.383 673.319 222.347 673.186C222.189 672.713 222.444 672.204 222.917 672.046C223.401 671.889 223.911 672.144 224.068 672.617Z" fill="white"/>
<path id="Vector_8" d="M219.037 677.017C218.904 676.605 218.855 676.193 218.855 675.768C218.855 675.344 218.904 674.932 219.037 674.532C219.074 674.399 219.122 674.132 219.122 673.865C219.122 673.599 219.074 673.32 219.037 673.199C218.88 672.714 219.134 672.205 219.607 672.047C220.08 671.89 220.601 672.144 220.759 672.617C220.892 673.017 220.94 673.441 220.94 673.866C220.94 674.29 220.892 674.702 220.759 675.102C220.71 675.223 220.674 675.502 220.674 675.769C220.674 676.035 220.71 676.314 220.759 676.435C220.916 676.908 220.662 677.429 220.189 677.587C219.704 677.744 219.195 677.49 219.037 677.017Z" fill="white"/>
<path id="Vector_9" d="M216.297 672.047C216.77 671.889 217.291 672.144 217.449 672.617C217.582 673.017 217.619 673.441 217.631 673.865C217.619 674.29 217.582 674.702 217.449 675.102C217.401 675.223 217.364 675.502 217.364 675.768C217.364 676.035 217.401 676.314 217.449 676.435C217.607 676.908 217.352 677.429 216.879 677.587C216.394 677.744 215.885 677.49 215.728 677.017C215.594 676.605 215.546 676.192 215.546 675.768C215.546 675.344 215.594 674.932 215.728 674.52C215.764 674.386 215.813 674.12 215.813 673.865C215.813 673.598 215.764 673.319 215.728 673.186C215.57 672.714 215.825 672.204 216.297 672.047Z" fill="white"/>
<path id="Vector_10" d="M224.274 692.001H215.728C213.885 692.001 212.394 690.51 212.394 688.667V683.139L210.6 682.509C210.127 682.339 209.884 681.818 210.054 681.345C210.212 680.872 210.733 680.63 211.206 680.787L212.394 681.212V680.654C212.103 680.508 211.921 680.206 211.921 679.866C211.921 679.357 212.321 678.957 212.83 678.957H213.303H226.698H227.171C227.668 678.957 228.08 679.357 228.08 679.866C228.08 680.205 227.886 680.508 227.608 680.654V681.2L228.784 680.787C229.256 680.63 229.778 680.872 229.947 681.345C230.117 681.818 229.862 682.339 229.39 682.509L227.608 683.139V688.667C227.596 690.51 226.105 692.001 224.274 692.001Z" fill="white"/>
</g>
</g>
</g>
</g>
<g id="c2-f1-n101">
<path id="Vector 79_5" d="M528 104V206H586V104H528Z" fill="#C7E4FF" stroke="#232323" stroke-width="2" stroke-linecap="round" stroke-linejoin="round"/>
<g id="numbers">
<path id="2" d="M544.828 163L542.648 163L542.648 148.551L538.277 150.156L538.277 148.187L544.488 145.855L544.828 145.855L544.828 163ZM561.879 155.723C561.879 158.262 561.445 160.148 560.578 161.383C559.711 162.617 558.355 163.234 556.512 163.234C554.691 163.234 553.344 162.633 552.469 161.43C551.594 160.219 551.141 158.414 551.109 156.016L551.109 153.121C551.109 150.613 551.543 148.75 552.41 147.531C553.277 146.312 554.637 145.703 556.488 145.703C558.324 145.703 559.676 146.293 560.543 147.473C561.41 148.645 561.855 150.457 561.879 152.91L561.879 155.723ZM559.711 152.758C559.711 150.922 559.453 149.586 558.937 148.75C558.422 147.906 557.605 147.484 556.488 147.484C555.379 147.484 554.57 147.902 554.062 148.738C553.555 149.574 553.293 150.859 553.277 152.594L553.277 156.062C553.277 157.906 553.543 159.27 554.074 160.152C554.613 161.027 555.426 161.465 556.512 161.465C557.582 161.465 558.375 161.051 558.891 160.223C559.414 159.395 559.687 158.09 559.711 156.309L559.711 152.758ZM571.781 163L569.602 163L569.602 148.551L565.23 150.156L565.23 148.187L571.441 145.855L571.781 145.855L571.781 163Z" fill="#232323"/>
</g>
</g>
<g id="c2-f1-watchman">
<path id="Vector 79_6" d="M143 390V436H205V390H143Z" fill="#C7E4FF" stroke="#232323" stroke-width="2" stroke-linecap="round" stroke-linejoin="round"/>
<g id="watchman">
<rect id="Rectangle 18_7" x="159" y="398" width="30" height="30" rx="3" fill="#3377E4"/>
<path id="&#208;&#146;" d="M176.011 421C179.011 421 180.667 419.152 180.667 416.68C180.667 414.712 179.275 413.008 177.571 412.744C179.059 412.432 180.355 411.088 180.355 409.072C180.355 406.816 178.723 404.992 175.795 404.992H167.923V421H176.011ZM175.219 411.616H170.731V407.464H175.219C176.659 407.464 177.475 408.352 177.475 409.552C177.475 410.752 176.659 411.616 175.219 411.616ZM175.339 418.528H170.731V414.088H175.339C176.947 414.088 177.787 415.096 177.787 416.296C177.787 417.688 176.875 418.528 175.339 418.528Z" fill="white"/>
</g>
</g>
<g id="c2-f1-n103">
<path id="Vector 79_7" d="M586 104V206H857V104H586Z" fill="#C7E4FF" stroke="#232323" stroke-width="2" stroke-linecap="round" stroke-linejoin="round"/>
<g id="numbers_2">
<path id="2_2" d="M709.828 163L707.648 163L707.648 148.551L703.277 150.156L703.277 148.187L709.488 145.855L709.828 145.855L709.828 163ZM726.879 155.723C726.879 158.262 726.445 160.148 725.578 161.383C724.711 162.617 723.355 163.234 721.512 163.234C719.691 163.234 718.344 162.633 717.469 161.43C716.594 160.219 716.141 158.414 716.109 156.016L716.109 153.121C716.109 150.613 716.543 148.75 717.41 147.531C718.277 146.312 719.637 145.703 721.488 145.703C723.324 145.703 724.676 146.293 725.543 147.473C726.41 148.645 726.855 150.457 726.879 152.91L726.879 155.723ZM724.711 152.758C724.711 150.922 724.453 149.586 723.937 148.75C723.422 147.906 722.605 147.484 721.488 147.484C720.379 147.484 719.57 147.902 719.062 148.738C718.555 149.574 718.293 150.859 718.277 152.594L718.277 156.062C718.277 157.906 718.543 159.27 719.074 160.152C719.613 161.027 720.426 161.465 721.512 161.465C722.582 161.465 723.375 161.051 723.891 160.223C724.414 159.395 724.687 158.09 724.711 156.309L724.711 152.758ZM732.809 153.414L734.437 153.414C735.461 153.398 736.266 153.129 736.852 152.605C737.437 152.082 737.73 151.375 737.73 150.484C737.73 148.484 736.734 147.484 734.742 147.484C733.805 147.484 733.055 147.754 732.492 148.293C731.937 148.824 731.66 149.531 731.66 150.414L729.492 150.414C729.492 149.062 729.984 147.941 730.969 147.051C731.961 146.152 733.219 145.703 734.742 145.703C736.352 145.703 737.613 146.129 738.527 146.98C739.441 147.832 739.898 149.016 739.898 150.531C739.898 151.273 739.656 151.992 739.172 152.687C738.695 153.383 738.043 153.902 737.215 154.246C738.152 154.543 738.875 155.035 739.383 155.723C739.898 156.41 740.156 157.25 740.156 158.242C740.156 159.773 739.656 160.988 738.656 161.887C737.656 162.785 736.355 163.234 734.754 163.234C733.152 163.234 731.848 162.801 730.84 161.934C729.84 161.066 729.34 159.922 729.34 158.5L731.52 158.5C731.52 159.398 731.812 160.117 732.398 160.656C732.984 161.195 733.77 161.465 734.754 161.465C735.801 161.465 736.602 161.191 737.156 160.645C737.711 160.098 737.988 159.312 737.988 158.289C737.988 157.297 737.684 156.535 737.074 156.004C736.465 155.473 735.586 155.199 734.437 155.184L732.809 155.184L732.809 153.414Z" fill="#232323"/>
</g>
</g>
<g id="c2-f1-n111">
<path id="Vector 79_8" d="M963 288V390H1294V288H963Z" fill="#C7E4FF" stroke="#232323" stroke-width="2" stroke-linecap="round" stroke-linejoin="round"/>
<g id="numbers_3">
<path id="2_3" d="M1116.83 347.177L1114.65 347.177L1114.65 332.727L1110.28 334.333L1110.28 332.364L1116.49 330.032L1116.83 330.032L1116.83 347.177ZM1130.3 347.177L1128.12 347.177L1128.12 332.727L1123.75 334.333L1123.75 332.364L1129.96 330.032L1130.3 330.032L1130.3 347.177ZM1143.78 347.177L1141.6 347.177L1141.6 332.727L1137.23 334.333L1137.23 332.364L1143.44 330.032L1143.78 330.032L1143.78 347.177Z" fill="#232323"/>
</g>
</g>
<g id="c2-f1-n113">
<path id="Vector 79_9" d="M640 288V390H857V288H640Z" fill="#C7E4FF" stroke="#232323" stroke-width="2" stroke-linecap="round" stroke-linejoin="round"/>
<g id="numbers_4">
<path id="2_4" d="M736.828 347L734.648 347L734.648 332.551L730.277 334.156L730.277 332.187L736.488 329.855L736.828 329.855L736.828 347ZM750.305 347L748.125 347L748.125 332.551L743.754 334.156L743.754 332.187L749.965 329.855L750.305 329.855L750.305 347ZM759.809 337.414L761.437 337.414C762.461 337.398 763.266 337.129 763.852 336.605C764.437 336.082 764.73 335.375 764.73 334.484C764.73 332.484 763.734 331.484 761.742 331.484C760.805 331.484 760.055 331.754 759.492 332.293C758.937 332.824 758.66 333.531 758.66 334.414L756.492 334.414C756.492 333.062 756.984 331.941 757.969 331.051C758.961 330.152 760.219 329.703 761.742 329.703C763.352 329.703 764.613 330.129 765.527 330.98C766.441 331.832 766.898 333.016 766.898 334.531C766.898 335.273 766.656 335.992 766.172 336.687C765.695 337.383 765.043 337.902 764.215 338.246C765.152 338.543 765.875 339.035 766.383 339.723C766.898 340.41 767.156 341.25 767.156 342.242C767.156 343.773 766.656 344.988 765.656 345.887C764.656 346.785 763.355 347.234 761.754 347.234C760.152 347.234 758.848 346.801 757.84 345.934C756.84 345.066 756.34 343.922 756.34 342.5L758.52 342.5C758.52 343.398 758.812 344.117 759.398 344.656C759.984 345.195 760.77 345.465 761.754 345.465C762.801 345.465 763.602 345.191 764.156 344.645C764.711 344.098 764.988 343.312 764.988 342.289C764.988 341.297 764.684 340.535 764.074 340.004C763.465 339.473 762.586 339.199 761.437 339.184L759.809 339.184L759.809 337.414Z" fill="#232323"/>
</g>
</g>
<g id="c2-f1-n115">
<path id="Vector 79_10" d="M640 390V288H592.212V315.5H570V390H640Z" fill="#C7E4FF" stroke="#232323" stroke-width="2" stroke-linecap="round" stroke-linejoin="round"/>
<g id="numbers_5">
<path id="2_5" d="M592.828 347.177L590.648 347.177L590.648 332.727L586.277 334.333L586.277 332.364L592.488 330.032L592.828 330.032L592.828 347.177ZM606.305 347.177L604.125 347.177L604.125 332.727L599.754 334.333L599.754 332.364L605.965 330.032L606.305 330.032L606.305 347.177ZM613.652 338.622L614.52 330.114L623.262 330.114L623.262 332.118L616.359 332.118L615.844 336.77C616.68 336.278 617.629 336.032 618.691 336.032C620.246 336.032 621.48 336.548 622.395 337.579C623.309 338.602 623.766 339.989 623.766 341.739C623.766 343.497 623.289 344.884 622.336 345.899C621.391 346.907 620.066 347.411 618.363 347.411C616.855 347.411 615.625 346.993 614.672 346.157C613.719 345.321 613.176 344.165 613.043 342.688L615.094 342.688C615.227 343.665 615.574 344.403 616.137 344.903C616.699 345.395 617.441 345.641 618.363 345.641C619.371 345.641 620.16 345.298 620.73 344.61C621.309 343.923 621.598 342.973 621.598 341.762C621.598 340.622 621.285 339.708 620.66 339.02C620.043 338.325 619.219 337.977 618.187 337.977C617.242 337.977 616.5 338.184 615.961 338.598L615.387 339.067L613.652 338.622Z" fill="#232323"/>
</g>
</g>
<g id="c2-f1-n105">
<path id="Vector 79_11" d="M857 104V206H1184V104H857Z" fill="#C7E4FF" stroke="#232323" stroke-width="2" stroke-linecap="round" stroke-linejoin="round"/>
<g id="numbers_6">
<path id="2_6" d="M1008.83 163L1006.65 163L1006.65 148.551L1002.28 150.156L1002.28 148.187L1008.49 145.855L1008.83 145.855L1008.83 163ZM1025.88 155.723C1025.88 158.262 1025.45 160.148 1024.58 161.383C1023.71 162.617 1022.36 163.234 1020.51 163.234C1018.69 163.234 1017.34 162.633 1016.47 161.43C1015.59 160.219 1015.14 158.414 1015.11 156.016L1015.11 153.121C1015.11 150.613 1015.54 148.75 1016.41 147.531C1017.28 146.312 1018.64 145.703 1020.49 145.703C1022.32 145.703 1023.68 146.293 1024.54 147.473C1025.41 148.645 1025.86 150.457 1025.88 152.91L1025.88 155.723ZM1023.71 152.758C1023.71 150.922 1023.45 149.586 1022.94 148.75C1022.42 147.906 1021.61 147.484 1020.49 147.484C1019.38 147.484 1018.57 147.902 1018.06 148.738C1017.55 149.574 1017.29 150.859 1017.28 152.594L1017.28 156.062C1017.28 157.906 1017.54 159.27 1018.07 160.152C1018.61 161.027 1019.43 161.465 1020.51 161.465C1021.58 161.465 1022.37 161.051 1022.89 160.223C1023.41 159.395 1023.69 158.09 1023.71 156.309L1023.71 152.758ZM1029.65 154.445L1030.52 145.937L1039.26 145.937L1039.26 147.941L1032.36 147.941L1031.84 152.594C1032.68 152.102 1033.63 151.855 1034.69 151.855C1036.25 151.855 1037.48 152.371 1038.39 153.402C1039.31 154.426 1039.77 155.812 1039.77 157.562C1039.77 159.32 1039.29 160.707 1038.34 161.723C1037.39 162.73 1036.07 163.234 1034.36 163.234C1032.86 163.234 1031.62 162.816 1030.67 161.98C1029.72 161.145 1029.18 159.988 1029.04 158.512L1031.09 158.512C1031.23 159.488 1031.57 160.227 1032.14 160.727C1032.7 161.219 1033.44 161.465 1034.36 161.465C1035.37 161.465 1036.16 161.121 1036.73 160.434C1037.31 159.746 1037.6 158.797 1037.6 157.586C1037.6 156.445 1037.29 155.531 1036.66 154.844C1036.04 154.148 1035.22 153.801 1034.19 153.801C1033.24 153.801 1032.5 154.008 1031.96 154.422L1031.39 154.891L1029.65 154.445Z" fill="#232323"/>
</g>
</g>
<g id="c2-f1-n107">
<path id="Vector 79_12" d="M1184 104V206H1238V104H1184Z" fill="#C7E4FF" stroke="#232323" stroke-width="2" stroke-linecap="round" stroke-linejoin="round"/>
<g id="numbers_7">
<path id="2_7" d="M1198.83 163.177L1196.65 163.177L1196.65 148.727L1192.28 150.333L1192.28 148.364L1198.49 146.032L1198.83 146.032L1198.83 163.177ZM1215.88 155.899C1215.88 158.438 1215.45 160.325 1214.58 161.559C1213.71 162.794 1212.36 163.411 1210.51 163.411C1208.69 163.411 1207.34 162.809 1206.47 161.606C1205.59 160.395 1205.14 158.591 1205.11 156.192L1205.11 153.298C1205.11 150.79 1205.54 148.927 1206.41 147.708C1207.28 146.489 1208.64 145.88 1210.49 145.88C1212.32 145.88 1213.68 146.469 1214.54 147.649C1215.41 148.821 1215.86 150.634 1215.88 153.087L1215.88 155.899ZM1213.71 152.934C1213.71 151.098 1213.45 149.762 1212.94 148.927C1212.42 148.083 1211.61 147.661 1210.49 147.661C1209.38 147.661 1208.57 148.079 1208.06 148.915C1207.55 149.751 1207.29 151.036 1207.28 152.77L1207.28 156.239C1207.28 158.083 1207.54 159.446 1208.07 160.329C1208.61 161.204 1209.43 161.641 1210.51 161.641C1211.58 161.641 1212.37 161.227 1212.89 160.399C1213.41 159.571 1213.69 158.266 1213.71 156.485L1213.71 152.934ZM1229.67 147.333L1222.61 163.177L1220.33 163.177L1227.37 147.895L1218.14 147.895L1218.14 146.114L1229.67 146.114L1229.67 147.333Z" fill="#232323"/>
</g>
</g>
<g id="c2-f1-n109">
<path id="Vector 79_13" d="M1238 104V206H1294V104H1238Z" fill="#C7E4FF" stroke="#232323" stroke-width="2" stroke-linecap="round" stroke-linejoin="round"/>
<g id="numbers_8">
<path id="2_8" d="M1253.83 163.177L1251.65 163.177L1251.65 148.727L1247.28 150.333L1247.28 148.364L1253.49 146.032L1253.83 146.032L1253.83 163.177ZM1270.88 155.899C1270.88 158.438 1270.45 160.325 1269.58 161.559C1268.71 162.794 1267.36 163.411 1265.51 163.411C1263.69 163.411 1262.34 162.809 1261.47 161.606C1260.59 160.395 1260.14 158.591 1260.11 156.192L1260.11 153.298C1260.11 150.79 1260.54 148.927 1261.41 147.708C1262.28 146.489 1263.64 145.88 1265.49 145.88C1267.32 145.88 1268.68 146.469 1269.54 147.649C1270.41 148.821 1270.86 150.634 1270.88 153.087L1270.88 155.899ZM1268.71 152.934C1268.71 151.098 1268.45 149.762 1267.94 148.927C1267.42 148.083 1266.61 147.661 1265.49 147.661C1264.38 147.661 1263.57 148.079 1263.06 148.915C1262.55 149.751 1262.29 151.036 1262.28 152.77L1262.28 156.239C1262.28 158.083 1262.54 159.446 1263.07 160.329C1263.61 161.204 1264.43 161.641 1265.51 161.641C1266.58 161.641 1267.37 161.227 1267.89 160.399C1268.41 159.571 1268.69 158.266 1268.71 156.485L1268.71 152.934ZM1281.96 155.677C1281.51 156.216 1280.97 156.649 1280.34 156.977C1279.71 157.305 1279.02 157.469 1278.27 157.469C1277.29 157.469 1276.43 157.227 1275.7 156.743C1274.97 156.259 1274.41 155.579 1274.01 154.704C1273.61 153.821 1273.41 152.848 1273.41 151.786C1273.41 150.645 1273.62 149.618 1274.05 148.704C1274.49 147.79 1275.11 147.091 1275.91 146.606C1276.7 146.122 1277.63 145.88 1278.7 145.88C1280.38 145.88 1281.71 146.512 1282.68 147.778C1283.66 149.036 1284.14 150.755 1284.14 152.934L1284.14 153.567C1284.14 156.887 1283.49 159.313 1282.18 160.844C1280.86 162.368 1278.88 163.149 1276.23 163.188L1275.81 163.188L1275.81 161.36L1276.27 161.36C1278.06 161.329 1279.43 160.864 1280.39 159.966C1281.36 159.059 1281.88 157.63 1281.96 155.677ZM1278.62 155.677C1279.35 155.677 1280.02 155.454 1280.63 155.009C1281.25 154.563 1281.7 154.012 1281.98 153.356L1281.98 152.489C1281.98 151.067 1281.67 149.911 1281.05 149.02C1280.43 148.13 1279.65 147.684 1278.71 147.684C1277.75 147.684 1276.99 148.052 1276.41 148.786C1275.83 149.512 1275.54 150.473 1275.54 151.669C1275.54 152.833 1275.82 153.794 1276.37 154.552C1276.94 155.302 1277.69 155.677 1278.62 155.677Z" fill="#232323"/>
</g>
</g>
<g id="stairs">
<rect id="Rectangle 18_8" x="483" y="468" width="30" height="30" rx="3" fill="#3377E4"/>
<path id="Vector 1_2" d="M501.833 478H507.5C507.776 478 508 478.224 508 478.5V493.5C508 493.776 507.776 494 507.5 494H488.5C488.224 494 488 493.776 488 493.5V489.167C488 488.891 488.224 488.667 488.5 488.667H494.167C494.443 488.667 494.667 488.443 494.667 488.167V483.833C494.667 483.557 494.891 483.333 495.167 483.333H500.833C501.109 483.333 501.333 483.109 501.333 482.833V478.5C501.333 478.224 501.557 478 501.833 478Z" fill="white"/>
<path id="Vector 2" d="M487.615 484.695L503.5 473" stroke="white" stroke-width="2" stroke-linecap="round" stroke-linejoin="round"/>
</g>
<g id="coffee">
<rect id="Rectangle 18_9" x="378" y="238" width="30" height="30" rx="3" fill="#3377E4"/>
<g id="Group_11">
<path id="Vector_11" d="M396.522 243.617C396.656 244.017 396.704 244.441 396.704 244.865C396.704 245.29 396.656 245.702 396.522 246.102C396.474 246.223 396.437 246.502 396.437 246.768C396.437 247.035 396.474 247.314 396.522 247.435C396.68 247.908 396.425 248.429 395.952 248.587C395.468 248.744 394.958 248.49 394.801 248.017C394.668 247.605 394.619 247.192 394.619 246.768C394.619 246.344 394.668 245.932 394.801 245.52C394.837 245.386 394.886 245.12 394.886 244.865C394.886 244.598 394.837 244.319 394.801 244.186C394.643 243.713 394.898 243.204 395.371 243.046C395.856 242.889 396.365 243.144 396.522 243.617Z" fill="white"/>
<path id="Vector_12" d="M391.491 248.017C391.358 247.605 391.31 247.193 391.31 246.768C391.31 246.344 391.358 245.932 391.491 245.532C391.528 245.399 391.576 245.132 391.576 244.865C391.576 244.599 391.528 244.32 391.491 244.199C391.334 243.714 391.588 243.205 392.061 243.047C392.534 242.89 393.055 243.144 393.213 243.617C393.346 244.017 393.394 244.441 393.394 244.866C393.394 245.29 393.346 245.702 393.213 246.102C393.164 246.223 393.128 246.502 393.128 246.769C393.128 247.035 393.164 247.314 393.213 247.435C393.37 247.908 393.116 248.429 392.643 248.587C392.158 248.744 391.649 248.49 391.491 248.017Z" fill="white"/>
<path id="Vector_13" d="M388.752 243.047C389.224 242.889 389.746 243.144 389.903 243.617C390.036 244.017 390.073 244.441 390.085 244.865C390.073 245.29 390.036 245.702 389.903 246.102C389.855 246.223 389.818 246.502 389.818 246.768C389.818 247.035 389.855 247.314 389.903 247.435C390.061 247.908 389.806 248.429 389.333 248.587C388.848 248.744 388.339 248.49 388.182 248.017C388.048 247.605 388 247.192 388 246.768C388 246.344 388.048 245.932 388.182 245.52C388.218 245.386 388.267 245.12 388.267 244.865C388.267 244.598 388.218 244.319 388.182 244.186C388.024 243.714 388.279 243.204 388.752 243.047Z" fill="white"/>
<path id="Vector_14" d="M402.899 256.298C403.024 255.787 403.033 255.255 402.925 254.741C402.818 254.227 402.596 253.744 402.278 253.33C401.959 252.916 401.552 252.581 401.087 252.35C400.623 252.12 400.112 252 399.595 252H385.895C385.773 252 385.653 252.025 385.541 252.074C385.43 252.122 385.329 252.194 385.245 252.284C385.161 252.373 385.097 252.48 385.055 252.596C385.013 252.712 384.995 252.835 385.001 252.959C385.109 254.619 385.389 256.262 385.836 257.862C386.171 259.063 386.833 260.143 387.744 260.98H386.565C386.301 260.98 386.049 261.086 385.862 261.276C385.676 261.465 385.572 261.722 385.572 261.99C385.572 262.258 385.676 262.515 385.862 262.704C386.049 262.894 386.301 263 386.565 263H397.738C398.002 263 398.254 262.894 398.441 262.704C398.627 262.515 398.731 262.258 398.731 261.99C398.731 261.722 398.627 261.465 398.441 261.276C398.254 261.086 398.002 260.98 397.738 260.98H396.557C397.187 260.401 397.701 259.702 398.069 258.924H399.595C400.355 258.924 401.094 258.665 401.692 258.189C402.291 257.713 402.716 257.048 402.899 256.298ZM400.898 255.792C400.828 256.09 400.661 256.355 400.425 256.544C400.189 256.734 399.896 256.837 399.595 256.837H398.726C398.936 255.936 399.094 255.025 399.201 254.106H399.595C399.799 254.106 400.001 254.153 400.184 254.244C400.367 254.335 400.528 254.467 400.653 254.63C400.779 254.793 400.866 254.984 400.909 255.186C400.951 255.389 400.947 255.599 400.898 255.8V255.792Z" fill="white"/>
</g>
</g>
<g id="stairs_2">
<rect id="Rectangle 18_10" x="1357" y="116" width="30" height="30" rx="3" fill="#3377E4"/>
<path id="Vector 1_3" d="M1375.83 126H1381.5C1381.78 126 1382 126.224 1382 126.5V141.5C1382 141.776 1381.78 142 1381.5 142H1362.5C1362.22 142 1362 141.776 1362 141.5V137.167C1362 136.891 1362.22 136.667 1362.5 136.667H1368.17C1368.44 136.667 1368.67 136.443 1368.67 136.167V131.833C1368.67 131.557 1368.89 131.333 1369.17 131.333H1374.83C1375.11 131.333 1375.33 131.109 1375.33 130.833V126.5C1375.33 126.224 1375.56 126 1375.83 126Z" fill="white"/>
<path id="Vector 2_2" d="M1361.62 132.695L1377.5 121" stroke="white" stroke-width="2" stroke-linecap="round" stroke-linejoin="round"/>
</g>
<g id="stairs_3">
<rect id="Rectangle 18_11" x="1303" y="350" width="30" height="30" rx="3" fill="#3377E4"/>
<path id="Vector 1_4" d="M1321.83 360H1327.5C1327.78 360 1328 360.224 1328 360.5V375.5C1328 375.776 1327.78 376 1327.5 376H1308.5C1308.22 376 1308 375.776 1308 375.5V371.167C1308 370.891 1308.22 370.667 1308.5 370.667H1314.17C1314.44 370.667 1314.67 370.443 1314.67 370.167V365.833C1314.67 365.557 1314.89 365.333 1315.17 365.333H1320.83C1321.11 365.333 1321.33 365.109 1321.33 364.833V360.5C1321.33 360.224 1321.56 360 1321.83 360Z" fill="white"/>
<path id="Vector 2_3" d="M1307.62 366.695L1323.5 355" stroke="white" stroke-width="2" stroke-linecap="round" stroke-linejoin="round"/>
</g>
<path id="min-stairs" d="M1394 190L1394 196L1441 196L1441 190M1394 190L1394 184L1441 184L1441 190M1394 190L1441 190" stroke="black" stroke-width="2"/>
</g>
</svg>
