<svg width="30" height="30" viewBox="0 0 30 30" fill="none" xmlns="http://www.w3.org/2000/svg">
<rect width="30" height="30" rx="3" fill="#3377E4"/>
<path d="M9.42084 10.8927C9.42084 10.0124 9.42084 9.13009 9.42084 8.24978C9.42084 8.10932 9.41088 7.96095 9.4288 7.8205C9.41487 7.92535 9.40093 8.03019 9.38699 8.13702C9.39695 8.07569 9.41287 8.01832 9.43677 7.96095C9.39695 8.05591 9.35712 8.15087 9.3173 8.24384C9.3412 8.18845 9.37106 8.139 9.4069 8.08954C9.34518 8.16867 9.28146 8.24978 9.21974 8.32891C9.26155 8.27549 9.30934 8.22802 9.3631 8.18647C9.28345 8.2478 9.20182 8.3111 9.12218 8.37243C9.17195 8.33682 9.22173 8.30715 9.27748 8.28143C9.18191 8.32099 9.08634 8.36056 8.99276 8.40012C9.05846 8.37243 9.12616 8.35462 9.19585 8.34275C9.09032 8.3566 8.98479 8.37045 8.87727 8.3843C9.01267 8.36847 9.15403 8.37638 9.28943 8.37638C9.57813 8.37638 9.86684 8.37638 10.1555 8.37638C11.1212 8.37638 12.0869 8.37638 13.0526 8.37638C14.2253 8.37638 15.3961 8.37638 16.5688 8.37638C17.5723 8.37638 18.5778 8.37638 19.5813 8.37638C20.0612 8.37638 20.543 8.37441 21.0229 8.37638C21.0647 8.37638 21.1045 8.37836 21.1463 8.3843C21.0408 8.37045 20.9353 8.3566 20.8277 8.34275C20.8994 8.35462 20.9651 8.37243 21.0328 8.40012C20.9372 8.36056 20.8417 8.32099 20.7481 8.28143C20.8118 8.3111 20.8715 8.34473 20.9273 8.38825C20.8476 8.32693 20.766 8.26362 20.6864 8.2023C20.7342 8.23989 20.774 8.28341 20.8138 8.32891C20.7521 8.24978 20.6884 8.16867 20.6266 8.08954C20.6625 8.139 20.6923 8.18845 20.7182 8.24384C20.6784 8.14889 20.6386 8.05393 20.5988 7.96095C20.6227 8.01832 20.6386 8.07569 20.6505 8.13702C20.6366 8.03217 20.6227 7.92732 20.6087 7.8205C20.6286 7.97085 20.6167 8.12713 20.6167 8.27945C20.6167 8.61377 20.6167 8.95007 20.6167 9.28439C20.6167 9.78489 20.6167 10.2854 20.6167 10.7879C20.6167 11.4011 20.6167 12.0144 20.6167 12.6276C20.6167 13.3042 20.6167 13.9807 20.6167 14.6573C20.6167 15.3378 20.6167 16.0163 20.6167 16.6968C20.6167 17.3299 20.6167 17.9629 20.6167 18.5959C20.6167 19.1301 20.6167 19.6622 20.6167 20.1963C20.6167 20.5762 20.6167 20.958 20.6167 21.3378C20.6167 21.5138 20.6167 21.6879 20.6167 21.864C20.6167 21.9055 20.6147 21.9471 20.6087 21.9906C20.6227 21.8857 20.6366 21.7809 20.6505 21.6741C20.6406 21.7354 20.6227 21.7947 20.5988 21.8541C20.6386 21.7591 20.6784 21.6642 20.7182 21.5712C20.6884 21.6365 20.6545 21.6958 20.6107 21.7512C20.6724 21.6721 20.7361 21.591 20.7979 21.5119C20.758 21.5593 20.7162 21.6029 20.6665 21.6424C20.7461 21.5811 20.8277 21.5178 20.9074 21.4565C20.8496 21.5 20.7899 21.5356 20.7262 21.5633C20.8218 21.5237 20.9173 21.4842 21.0109 21.4446C20.9512 21.4683 20.8934 21.4842 20.8297 21.496C20.9353 21.4822 21.0408 21.4683 21.1483 21.4545C21.0129 21.4723 20.8715 21.4624 20.7361 21.4624C20.4474 21.4624 20.1587 21.4624 19.87 21.4624C18.9044 21.4624 17.9387 21.4624 16.973 21.4624C15.8003 21.4624 14.6295 21.4624 13.4568 21.4624C12.4533 21.4624 11.4478 21.4624 10.4443 21.4624C9.9644 21.4624 9.48256 21.4644 9.00271 21.4624C8.9609 21.4624 8.92108 21.4604 8.87927 21.4545C8.98479 21.4683 9.09032 21.4822 9.19784 21.496C9.13611 21.4861 9.07638 21.4683 9.01864 21.4446C9.11421 21.4842 9.20978 21.5237 9.30337 21.5633C9.24762 21.5376 9.19386 21.5079 9.14408 21.4723C9.22372 21.5336 9.30536 21.5969 9.385 21.6582C9.32925 21.6147 9.27947 21.5672 9.23567 21.5119C9.29739 21.591 9.36111 21.6721 9.42283 21.7512C9.38102 21.6939 9.34518 21.6345 9.3173 21.5712C9.35712 21.6662 9.39695 21.7611 9.43677 21.8541C9.41287 21.7947 9.39695 21.7374 9.38699 21.6741C9.40093 21.7789 9.41487 21.8838 9.4288 21.9906C9.41287 21.8719 9.42084 21.7473 9.42084 21.6266C9.42084 21.3932 9.42084 21.1597 9.42084 20.9283C9.42084 20.3942 9.42084 19.8581 9.42084 19.3239C9.42084 19.1993 9.42084 19.0727 9.42084 18.9481C9.42084 18.6434 9.28744 18.3249 9.07041 18.1093C8.86334 17.8996 8.52286 17.7433 8.22619 17.7572C7.91757 17.771 7.59701 17.8719 7.38197 18.1053C7.16495 18.3368 7.03154 18.6217 7.03154 18.9441C7.03154 19.7947 7.03154 20.6454 7.03154 21.496C7.03154 21.6207 7.02955 21.7453 7.03154 21.8699C7.03951 22.5583 7.40985 23.2507 8.03505 23.5811C8.34566 23.7453 8.66821 23.8284 9.01864 23.8303C9.07638 23.8303 9.13611 23.8303 9.19386 23.8303C9.83299 23.8303 10.4721 23.8303 11.1113 23.8303C12.1526 23.8303 13.1939 23.8303 14.2353 23.8303C15.3503 23.8303 16.4653 23.8303 17.5823 23.8303C18.4444 23.8303 19.3065 23.8303 20.1687 23.8303C20.4016 23.8303 20.6366 23.8303 20.8695 23.8303C20.9193 23.8303 20.9691 23.8303 21.0189 23.8303C21.5366 23.8284 21.9885 23.6325 22.3728 23.3002C22.779 22.95 22.994 22.3981 23 21.8719C23 21.8343 23 21.7967 23 21.7591C23 21.5653 23 21.3694 23 21.1756C23 20.412 23 19.6464 23 18.8828C23 17.8205 23 16.7582 23 15.6958C23 14.5801 23 13.4644 23 12.3487C23 11.4169 23 10.4852 23 9.55343C23 9.04503 23 8.5386 23 8.03019C23 7.99854 23 7.96491 23 7.93326C22.99 7.25275 22.6336 6.63158 22.0463 6.28143C21.6739 6.05987 21.2618 6.00646 20.8417 6.00646C20.2125 6.00646 19.5833 6.00646 18.9541 6.00646C17.9168 6.00646 16.8794 6.00646 15.8441 6.00646C14.7231 6.00646 13.6041 6.00646 12.4831 6.00646C11.613 6.00646 10.7429 6.00646 9.87281 6.00646C9.22173 6.00646 8.47309 5.92733 7.91359 6.32298C7.65873 6.503 7.52135 6.63752 7.34016 6.89271C7.23065 7.04503 7.15698 7.22505 7.10322 7.40309C7.04946 7.58113 7.02955 7.77302 7.02955 7.957C7.02955 8.10141 7.02955 8.24384 7.02955 8.38825C7.02955 8.91842 7.02955 9.45056 7.02955 9.98073C7.02955 10.2854 7.02955 10.588 7.02955 10.8927C7.02955 11.1973 7.16295 11.5158 7.37998 11.7315C7.58705 11.9372 7.92753 12.0915 8.2242 12.0796C8.53282 12.0658 8.85338 11.9649 9.06842 11.7315C9.28545 11.5 9.42084 11.2151 9.42084 10.8927Z" fill="white"/>
<path d="M12.7121 12.3408C13.1024 12.7285 13.4926 13.1162 13.8809 13.502C14.4961 14.1133 15.1133 14.7265 15.7286 15.3378C15.8719 15.4802 16.0133 15.6207 16.1567 15.7631C16.1567 15.2033 16.1567 14.6434 16.1567 14.0836C15.7664 14.4713 15.3762 14.8591 14.9879 15.2448C14.3727 15.8561 13.7554 16.4693 13.1402 17.0806C12.9968 17.2231 12.8555 17.3635 12.7121 17.5059C12.4951 17.7216 12.3617 18.0401 12.3617 18.3447C12.3617 18.6355 12.4911 18.9837 12.7121 19.1835C12.9391 19.3912 13.2377 19.5455 13.5563 19.5317C13.8729 19.5178 14.1716 19.411 14.4005 19.1835C14.7908 18.7958 15.181 18.408 15.5693 18.0223C16.1845 17.411 16.8018 16.7977 17.417 16.1865C17.5604 16.044 17.7017 15.9036 17.8451 15.7611C18.3011 15.3081 18.3031 14.5366 17.8451 14.0816C17.4549 13.6939 17.0646 13.3062 16.6763 12.9204C16.0611 12.3091 15.4439 11.6959 14.8286 11.0846C14.6853 10.9422 14.5439 10.8017 14.4005 10.6593C14.1835 10.4436 13.8629 10.3111 13.5563 10.3111C13.2636 10.3111 12.9132 10.4397 12.7121 10.6593C12.503 10.8848 12.3477 11.1815 12.3617 11.498C12.3776 11.8165 12.4831 12.1133 12.7121 12.3408Z" fill="white"/>
<path d="M6.19529 16.1113C6.55369 16.1113 6.91009 16.1113 7.26848 16.1113C8.12863 16.1113 8.98679 16.1113 9.84693 16.1113C10.8863 16.1113 11.9276 16.1113 12.967 16.1113C13.8669 16.1113 14.7669 16.1113 15.6669 16.1113C16.1049 16.1113 16.5449 16.1152 16.983 16.1113C16.9889 16.1113 16.9949 16.1113 17.0009 16.1113C17.3075 16.1113 17.6281 15.9787 17.8451 15.7631C18.0522 15.5574 18.2075 15.2191 18.1955 14.9243C18.1816 14.6177 18.08 14.2992 17.8451 14.0856C17.6121 13.8719 17.3234 13.7374 17.0009 13.7374C16.6425 13.7374 16.2861 13.7374 15.9277 13.7374C15.0675 13.7374 14.2094 13.7374 13.3492 13.7374C12.3099 13.7374 11.2686 13.7374 10.2292 13.7374C9.32925 13.7374 8.42928 13.7374 7.52932 13.7374C7.09128 13.7374 6.65125 13.7334 6.21321 13.7374C6.20724 13.7374 6.20127 13.7374 6.19529 13.7374C5.88867 13.7374 5.5681 13.8699 5.35108 14.0856C5.144 14.2913 4.9887 14.6296 5.00065 14.9243C5.01458 15.231 5.11613 15.5495 5.35108 15.7631C5.58602 15.9767 5.87274 16.1113 6.19529 16.1113Z" fill="white"/>
</svg>
