<svg width="298" height="283" viewBox="0 0 298 283" fill="none" xmlns="http://www.w3.org/2000/svg">
<g id="c1-f4">
<path id="floor" d="M1 167V1H83.5H297V167H152.5V282H78V167H1Z" fill="white" stroke="black" stroke-width="2" stroke-linecap="round" stroke-linejoin="round"/>
<g id="c1-f4-staff-only">
<path id="Vector 79" d="M216 1V167H297V1H216Z" fill="#C7E4FF" stroke="#232323" stroke-width="2" stroke-linecap="round" stroke-linejoin="round"/>
<g id="numbers">
<path id="2" d="M245.586 133C247.391 133.211 248.785 133.879 249.77 135.004C250.746 136.121 251.234 137.609 251.234 139.469C251.234 141.484 250.512 143.102 249.066 144.32C247.621 145.531 245.688 146.137 243.266 146.137L241.625 146.137C240.039 146.137 238.645 145.855 237.441 145.293C236.238 144.723 235.316 143.918 234.676 142.879C234.027 141.84 233.703 140.637 233.703 139.27C233.703 137.457 234.211 136.004 235.227 134.91C236.234 133.816 237.633 133.18 239.422 133L239.422 135.262C238.063 135.457 237.078 135.883 236.469 136.539C235.859 137.188 235.555 138.098 235.555 139.27C235.555 140.707 236.086 141.836 237.148 142.656C238.211 143.469 239.723 143.875 241.684 143.875L243.336 143.875C245.188 143.875 246.66 143.488 247.754 142.715C248.848 141.941 249.395 140.859 249.395 139.469C249.395 138.219 249.113 137.262 248.551 136.598C247.98 135.926 246.992 135.48 245.586 135.262L245.586 133ZM238.32 119.863L251 119.863L251 122.043L240.113 122.043L240.113 126.355L244.859 126.613C247.039 126.754 248.598 127.121 249.535 127.715C250.473 128.301 250.961 129.234 251 130.516L251 131.383L249.09 131.383L249.043 130.762C248.965 130.059 248.559 129.555 247.824 129.25C247.09 128.945 245.73 128.75 243.746 128.664L238.32 128.43L238.32 119.863ZM247.824 112.234L238.32 109.281L238.32 106.961L252.957 112.059C255.066 112.848 256.121 114.102 256.121 115.82L256.086 116.23L255.934 117.039L254.176 117.039L254.223 116.453C254.223 115.719 254.074 115.148 253.777 114.742C253.48 114.328 252.938 113.988 252.148 113.723L250.859 113.242L238.32 117.766L238.32 115.398L247.824 112.234ZM245.492 94.9023L245.492 96.4258L251 96.4258L251 98.5938L245.492 98.5938L245.492 100.117L251 103.668L251 106.41L244.438 101.875L238.32 105.977L238.32 103.352L243.57 100.082L243.57 98.5938L238.32 98.5938L238.32 96.4258L243.57 96.4258L243.57 94.9492L238.32 91.6563L238.32 89.0313L244.449 93.1445L251 88.6094L251 91.3516L245.492 94.9023ZM251.234 81.6133C251.234 83.332 250.672 84.7305 249.547 85.8086C248.414 86.8867 246.902 87.4258 245.012 87.4258L244.613 87.4258C243.355 87.4258 242.234 87.1875 241.25 86.7109C240.258 86.2266 239.484 85.5547 238.93 84.6953C238.367 83.8281 238.086 82.8906 238.086 81.8828C238.086 80.2344 238.629 78.9531 239.715 78.0391C240.801 77.125 242.355 76.668 244.379 76.668L245.281 76.668L245.281 85.2578C246.531 85.2266 247.543 84.8633 248.316 84.168C249.082 83.4648 249.465 82.5742 249.465 81.4961C249.465 80.7305 249.309 80.082 248.996 79.5508C248.684 79.0195 248.27 78.5547 247.754 78.1563L248.785 76.832C250.418 77.8945 251.234 79.4883 251.234 81.6133ZM239.867 81.8828C239.867 82.7578 240.188 83.4922 240.828 84.0859C241.461 84.6797 242.352 85.0469 243.5 85.1875L243.5 78.8359L243.336 78.8359C242.234 78.8984 241.383 79.1953 240.781 79.7266C240.172 80.2578 239.867 80.9766 239.867 81.8828ZM239.047 68.582C239.047 66.9883 239.582 65.7148 240.652 64.7617C241.715 63.8008 243.117 63.3203 244.859 63.3203L245.059 63.3203C246.254 63.3203 247.324 63.5508 248.27 64.0117C249.207 64.4727 249.938 65.1367 250.461 66.0039C250.977 66.8633 251.234 67.8555 251.234 68.9805C251.234 70.6836 250.668 72.0547 249.535 73.0938C248.395 74.1328 246.867 74.6523 244.953 74.6523L243.898 74.6523C241.234 74.6523 239.117 74.1602 237.547 73.1758C235.977 72.1836 235.02 70.7227 234.676 68.793C234.48 67.6992 234.242 66.9609 233.961 66.5781C233.68 66.1953 233.293 66.0039 232.801 66.0039L232.801 64.2227C233.777 64.2227 234.539 64.4453 235.086 64.8906C235.633 65.3281 236.02 66.0313 236.246 67L236.609 68.6172C236.914 69.9063 237.43 70.875 238.156 71.5234C238.875 72.1641 239.836 72.582 241.039 72.7773C239.711 71.6289 239.047 70.2305 239.047 68.582ZM240.828 69.0039C240.828 70.0664 241.188 70.9102 241.906 71.5352C242.617 72.1602 243.605 72.4727 244.871 72.4727L245.059 72.4727C246.418 72.4727 247.496 72.1602 248.293 71.5352C249.082 70.9023 249.477 70.0508 249.477 68.9805C249.477 67.9023 249.078 67.0508 248.281 66.4258C247.484 65.8008 246.32 65.4883 244.789 65.4883C243.594 65.4883 242.637 65.8047 241.918 66.4375C241.191 67.0625 240.828 67.918 240.828 69.0039ZM251 50.7344L251 52.9023L245.586 52.9023L245.586 58.7266L251 58.7266L251 60.9063L238.32 60.9063L238.32 58.7266L243.816 58.7266L243.816 52.9023L238.32 52.9023L238.32 50.7344L251 50.7344ZM244.543 47.8164C243.301 47.8164 242.184 47.5742 241.191 47.0898C240.199 46.5977 239.434 45.918 238.895 45.0508C238.355 44.1758 238.086 43.1797 238.086 42.0625C238.086 40.3359 238.684 38.9414 239.879 37.8789C241.074 36.8086 242.664 36.2734 244.648 36.2734L244.801 36.2734C246.035 36.2734 247.145 36.5117 248.129 36.9883C249.105 37.457 249.867 38.1328 250.414 39.0156C250.961 39.8906 251.234 40.8984 251.234 42.0391C251.234 43.7578 250.637 45.1523 249.441 46.2227C248.246 47.2852 246.664 47.8164 244.695 47.8164L244.543 47.8164ZM244.801 45.6367C246.207 45.6367 247.336 45.3125 248.188 44.6641C249.039 44.0078 249.465 43.1328 249.465 42.0391C249.465 40.9375 249.035 40.0625 248.176 39.4141C247.309 38.7656 246.098 38.4414 244.543 38.4414C243.152 38.4414 242.027 38.7734 241.168 39.4375C240.301 40.0938 239.867 40.9688 239.867 42.0625C239.867 43.1328 240.293 43.9961 241.145 44.6523C241.996 45.3086 243.215 45.6367 244.801 45.6367ZM251.234 28.293C251.234 30.0117 250.672 31.4102 249.547 32.4883C248.414 33.5664 246.902 34.1055 245.012 34.1055L244.613 34.1055C243.355 34.1055 242.234 33.8672 241.25 33.3906C240.258 32.9063 239.484 32.2344 238.93 31.375C238.367 30.5078 238.086 29.5703 238.086 28.5625C238.086 26.9141 238.629 25.6328 239.715 24.7188C240.801 23.8047 242.355 23.3477 244.379 23.3477L245.281 23.3477L245.281 31.9375C246.531 31.9063 247.543 31.543 248.316 30.8477C249.082 30.1445 249.465 29.2539 249.465 28.1758C249.465 27.4102 249.309 26.7617 248.996 26.2305C248.684 25.6992 248.27 25.2344 247.754 24.8359L248.785 23.5117C250.418 24.5742 251.234 26.168 251.234 28.293ZM239.867 28.5625C239.867 29.4375 240.188 30.1719 240.828 30.7656C241.461 31.3594 242.352 31.7266 243.5 31.8672L243.5 25.5156L243.336 25.5156C242.234 25.5781 241.383 25.875 240.781 26.4063C240.172 26.9375 239.867 27.6563 239.867 28.5625ZM279 138.602L279 140.77L268.113 140.77L268.113 146.605L279 146.605L279 148.785L266.32 148.785L266.32 138.602L279 138.602ZM272.543 135.695C271.301 135.695 270.184 135.453 269.191 134.969C268.199 134.477 267.434 133.797 266.895 132.93C266.355 132.055 266.086 131.059 266.086 129.941C266.086 128.215 266.684 126.82 267.879 125.758C269.074 124.688 270.664 124.152 272.648 124.152L272.801 124.152C274.035 124.152 275.145 124.391 276.129 124.867C277.105 125.336 277.867 126.012 278.414 126.895C278.961 127.77 279.234 128.777 279.234 129.918C279.234 131.637 278.637 133.031 277.441 134.102C276.246 135.164 274.664 135.695 272.695 135.695L272.543 135.695ZM272.801 133.516C274.207 133.516 275.336 133.191 276.188 132.543C277.039 131.887 277.465 131.012 277.465 129.918C277.465 128.816 277.035 127.941 276.176 127.293C275.309 126.645 274.098 126.32 272.543 126.32C271.152 126.32 270.027 126.652 269.168 127.316C268.301 127.973 267.867 128.848 267.867 129.941C267.867 131.012 268.293 131.875 269.145 132.531C269.996 133.188 271.215 133.516 272.801 133.516ZM276.129 114.133L266.32 109.82L266.32 107.113L279 107.113L279 109.281L269.777 109.281L279 113.383L279 114.883L269.578 119.066L279 119.066L279 121.234L266.32 121.234L266.32 118.422L276.129 114.133ZM279.234 98.3594C279.234 100.078 278.672 101.477 277.547 102.555C276.414 103.633 274.902 104.172 273.012 104.172L272.613 104.172C271.355 104.172 270.234 103.934 269.25 103.457C268.258 102.973 267.484 102.301 266.93 101.441C266.367 100.574 266.086 99.6367 266.086 98.6289C266.086 96.9805 266.629 95.6992 267.715 94.7852C268.801 93.8711 270.355 93.4141 272.379 93.4141L273.281 93.4141L273.281 102.004C274.531 101.973 275.543 101.609 276.316 100.914C277.082 100.211 277.465 99.3203 277.465 98.2422C277.465 97.4766 277.309 96.8281 276.996 96.2969C276.684 95.7656 276.27 95.3008 275.754 94.9023L276.785 93.5781C278.418 94.6406 279.234 96.2344 279.234 98.3594ZM267.867 98.6289C267.867 99.5039 268.188 100.238 268.828 100.832C269.461 101.426 270.352 101.793 271.5 101.934L271.5 95.582L271.336 95.582C270.234 95.6445 269.383 95.9414 268.781 96.4727C268.172 97.0039 267.867 97.7227 267.867 98.6289ZM266.32 88.6563L277.23 88.6563L277.23 84.0156L266.32 84.0156L266.32 81.8477L277.23 81.8477L277.23 77.2188L266.32 77.2188L266.32 75.0391L277.23 75.0391L277.23 73.2578L282.762 73.4688L282.762 75.4141L279 75.4141L279 90.8359L266.32 90.8359L266.32 88.6563ZM279.234 65.6406C279.234 67.3594 278.672 68.7578 277.547 69.8359C276.414 70.9141 274.902 71.4531 273.012 71.4531L272.613 71.4531C271.355 71.4531 270.234 71.2148 269.25 70.7383C268.258 70.2539 267.484 69.582 266.93 68.7227C266.367 67.8555 266.086 66.918 266.086 65.9102C266.086 64.2617 266.629 62.9805 267.715 62.0664C268.801 61.1523 270.355 60.6953 272.379 60.6953L273.281 60.6953L273.281 69.2852C274.531 69.2539 275.543 68.8906 276.316 68.1953C277.082 67.4922 277.465 66.6016 277.465 65.5234C277.465 64.7578 277.309 64.1094 276.996 63.5781C276.684 63.0469 276.27 62.582 275.754 62.1836L276.785 60.8594C278.418 61.9219 279.234 63.5156 279.234 65.6406ZM267.867 65.9102C267.867 66.7852 268.188 67.5195 268.828 68.1133C269.461 68.707 270.352 69.0742 271.5 69.2148L271.5 62.8633L271.336 62.8633C270.234 62.9258 269.383 63.2227 268.781 63.7539C268.172 64.2852 267.867 65.0039 267.867 65.9102ZM279 47.8164L279 49.9844L273.586 49.9844L273.586 55.8086L279 55.8086L279 57.9883L266.32 57.9883L266.32 55.8086L271.816 55.8086L271.816 49.9844L266.32 49.9844L266.32 47.8164L279 47.8164ZM266.32 36.1211L266.32 33.9531L279 33.9531L279 36.1211L269.754 36.1211L279 41.9688L279 44.1367L266.32 44.1367L266.32 41.9688L275.578 41.9688L266.32 36.1211ZM279.234 25.2109C279.234 26.9297 278.672 28.3281 277.547 29.4063C276.414 30.4844 274.902 31.0234 273.012 31.0234L272.613 31.0234C271.355 31.0234 270.234 30.7852 269.25 30.3086C268.258 29.8242 267.484 29.1523 266.93 28.293C266.367 27.4258 266.086 26.4883 266.086 25.4805C266.086 23.832 266.629 22.5508 267.715 21.6367C268.801 20.7227 270.355 20.2656 272.379 20.2656L273.281 20.2656L273.281 28.8555C274.531 28.8242 275.543 28.4609 276.316 27.7656C277.082 27.0625 277.465 26.1719 277.465 25.0938C277.465 24.3281 277.309 23.6797 276.996 23.1484C276.684 22.6172 276.27 22.1523 275.754 21.7539L276.785 20.4297C278.418 21.4922 279.234 23.0859 279.234 25.2109ZM267.867 25.4805C267.867 26.3555 268.188 27.0898 268.828 27.6836C269.461 28.2773 270.352 28.6445 271.5 28.7852L271.5 22.4336L271.336 22.4336C270.234 22.4961 269.383 22.793 268.781 23.3242C268.172 23.8555 267.867 24.5742 267.867 25.4805Z" fill="#232323"/>
</g>
</g>
<g id="c1-f4-n401">
<path id="Vector 79_2" d="M78 1V65H216V1H78Z" fill="#C7E4FF" stroke="#232323" stroke-width="2" stroke-linecap="round" stroke-linejoin="round"/>
<g id="numbers_2">
<path id="2_2" d="M137.855 35.2695H140.223V37.0391H137.855V41H135.676V37.0391H127.906V35.7617L135.547 23.9375H137.855V35.2695ZM130.367 35.2695H135.676V26.9023L135.418 27.3711L130.367 35.2695ZM152.879 33.7227C152.879 36.2617 152.445 38.1484 151.578 39.3828C150.711 40.6172 149.355 41.2344 147.512 41.2344C145.691 41.2344 144.344 40.6328 143.469 39.4297C142.594 38.2188 142.141 36.4141 142.109 34.0156V31.1211C142.109 28.6133 142.543 26.75 143.41 25.5312C144.277 24.3125 145.637 23.7031 147.488 23.7031C149.324 23.7031 150.676 24.293 151.543 25.4727C152.41 26.6445 152.855 28.457 152.879 30.9102V33.7227ZM150.711 30.7578C150.711 28.9219 150.453 27.5859 149.938 26.75C149.422 25.9062 148.605 25.4844 147.488 25.4844C146.379 25.4844 145.57 25.9023 145.062 26.7383C144.555 27.5742 144.293 28.8594 144.277 30.5938V34.0625C144.277 35.9062 144.543 37.2695 145.074 38.1523C145.613 39.0273 146.426 39.4648 147.512 39.4648C148.582 39.4648 149.375 39.0508 149.891 38.2227C150.414 37.3945 150.688 36.0898 150.711 34.3086V30.7578ZM162.781 41H160.602V26.5508L156.23 28.1562V26.1875L162.441 23.8555H162.781V41Z" fill="#232323"/>
</g>
</g>
<g id="c1-f4-n400">
<path id="Vector 79_3" d="M1 1V167H78V1H1Z" fill="#C7E4FF" stroke="#232323" stroke-width="2" stroke-linecap="round" stroke-linejoin="round"/>
<g id="numbers_3">
<path id="2_3" d="M29.8555 86.2695H32.2227V88.0391H29.8555V92H27.6758V88.0391H19.9062V86.7617L27.5469 74.9375H29.8555V86.2695ZM22.3672 86.2695H27.6758V77.9023L27.418 78.3711L22.3672 86.2695ZM44.8789 84.7227C44.8789 87.2617 44.4453 89.1484 43.5781 90.3828C42.7109 91.6172 41.3555 92.2344 39.5117 92.2344C37.6914 92.2344 36.3438 91.6328 35.4688 90.4297C34.5938 89.2188 34.1406 87.4141 34.1094 85.0156V82.1211C34.1094 79.6133 34.543 77.75 35.4102 76.5312C36.2773 75.3125 37.6367 74.7031 39.4883 74.7031C41.3242 74.7031 42.6758 75.293 43.543 76.4727C44.4102 77.6445 44.8555 79.457 44.8789 81.9102V84.7227ZM42.7109 81.7578C42.7109 79.9219 42.4531 78.5859 41.9375 77.75C41.4219 76.9062 40.6055 76.4844 39.4883 76.4844C38.3789 76.4844 37.5703 76.9023 37.0625 77.7383C36.5547 78.5742 36.293 79.8594 36.2773 81.5938V85.0625C36.2773 86.9062 36.543 88.2695 37.0742 89.1523C37.6133 90.0273 38.4258 90.4648 39.5117 90.4648C40.582 90.4648 41.375 90.0508 41.8906 89.2227C42.4141 88.3945 42.6875 87.0898 42.7109 85.3086V81.7578ZM58.3555 84.7227C58.3555 87.2617 57.9219 89.1484 57.0547 90.3828C56.1875 91.6172 54.832 92.2344 52.9883 92.2344C51.168 92.2344 49.8203 91.6328 48.9453 90.4297C48.0703 89.2188 47.6172 87.4141 47.5859 85.0156V82.1211C47.5859 79.6133 48.0195 77.75 48.8867 76.5312C49.7539 75.3125 51.1133 74.7031 52.9648 74.7031C54.8008 74.7031 56.1523 75.293 57.0195 76.4727C57.8867 77.6445 58.332 79.457 58.3555 81.9102V84.7227ZM56.1875 81.7578C56.1875 79.9219 55.9297 78.5859 55.4141 77.75C54.8984 76.9062 54.082 76.4844 52.9648 76.4844C51.8555 76.4844 51.0469 76.9023 50.5391 77.7383C50.0312 78.5742 49.7695 79.8594 49.7539 81.5938V85.0625C49.7539 86.9062 50.0195 88.2695 50.5508 89.1523C51.0898 90.0273 51.9023 90.4648 52.9883 90.4648C54.0586 90.4648 54.8516 90.0508 55.3672 89.2227C55.8906 88.3945 56.1641 87.0898 56.1875 85.3086V81.7578Z" fill="#232323"/>
</g>
</g>
<g id="stairs">
<rect id="Rectangle 18" x="101" y="222" width="30" height="30" rx="3" fill="#3377E4"/>
<path id="Vector 1" d="M119.833 232H125.5C125.776 232 126 232.224 126 232.5V247.5C126 247.776 125.776 248 125.5 248H106.5C106.224 248 106 247.776 106 247.5V243.167C106 242.891 106.224 242.667 106.5 242.667H112.167C112.443 242.667 112.667 242.443 112.667 242.167V237.833C112.667 237.557 112.891 237.333 113.167 237.333H118.833C119.109 237.333 119.333 237.109 119.333 236.833V232.5C119.333 232.224 119.557 232 119.833 232Z" fill="white"/>
<path id="Vector 2" d="M105.615 238.695L121.5 227" stroke="white" stroke-width="2" stroke-linecap="round" stroke-linejoin="round"/>
</g>
</g>
</svg>
