<svg width="1127" height="741" viewBox="0 0 1127 741" fill="none" xmlns="http://www.w3.org/2000/svg">
<g id="c1-f3">
<g id="floor">
<path d="M1038 1V574H1126V740H574H501.5H1V563.5L92 563V478H244H432H882V320H770V260V1H1038Z" fill="white"/>
<path d="M770 260V1H1038V574H1126V740H574H501.5H1V563.5L92 563V478H244H432H882V320H770V260ZM770 260H880" stroke="black" stroke-width="2" stroke-linecap="round" stroke-linejoin="round"/>
</g>
<g id="c1-f3-n308">
<path id="Vector 79" d="M642 478V574H770V478H642Z" fill="#C7E4FF" stroke="#232323" stroke-width="2" stroke-linecap="round" stroke-linejoin="round"/>
<g id="numbers">
<path id="2" d="M690.855 524.414H692.484C693.508 524.398 694.312 524.129 694.898 523.605C695.484 523.082 695.777 522.375 695.777 521.484C695.777 519.484 694.781 518.484 692.789 518.484C691.852 518.484 691.102 518.754 690.539 519.293C689.984 519.824 689.707 520.531 689.707 521.414H687.539C687.539 520.062 688.031 518.941 689.016 518.051C690.008 517.152 691.266 516.703 692.789 516.703C694.398 516.703 695.66 517.129 696.574 517.98C697.488 518.832 697.945 520.016 697.945 521.531C697.945 522.273 697.703 522.992 697.219 523.688C696.742 524.383 696.09 524.902 695.262 525.246C696.199 525.543 696.922 526.035 697.43 526.723C697.945 527.41 698.203 528.25 698.203 529.242C698.203 530.773 697.703 531.988 696.703 532.887C695.703 533.785 694.402 534.234 692.801 534.234C691.199 534.234 689.895 533.801 688.887 532.934C687.887 532.066 687.387 530.922 687.387 529.5H689.566C689.566 530.398 689.859 531.117 690.445 531.656C691.031 532.195 691.816 532.465 692.801 532.465C693.848 532.465 694.648 532.191 695.203 531.645C695.758 531.098 696.035 530.312 696.035 529.289C696.035 528.297 695.73 527.535 695.121 527.004C694.512 526.473 693.633 526.199 692.484 526.184H690.855V524.414ZM711.879 526.723C711.879 529.262 711.445 531.148 710.578 532.383C709.711 533.617 708.355 534.234 706.512 534.234C704.691 534.234 703.344 533.633 702.469 532.43C701.594 531.219 701.141 529.414 701.109 527.016V524.121C701.109 521.613 701.543 519.75 702.41 518.531C703.277 517.312 704.637 516.703 706.488 516.703C708.324 516.703 709.676 517.293 710.543 518.473C711.41 519.645 711.855 521.457 711.879 523.91V526.723ZM709.711 523.758C709.711 521.922 709.453 520.586 708.938 519.75C708.422 518.906 707.605 518.484 706.488 518.484C705.379 518.484 704.57 518.902 704.062 519.738C703.555 520.574 703.293 521.859 703.277 523.594V527.062C703.277 528.906 703.543 530.27 704.074 531.152C704.613 532.027 705.426 532.465 706.512 532.465C707.582 532.465 708.375 532.051 708.891 531.223C709.414 530.395 709.688 529.09 709.711 527.309V523.758ZM725.004 521.391C725.004 522.242 724.777 523 724.324 523.664C723.879 524.328 723.273 524.848 722.508 525.223C723.398 525.605 724.102 526.164 724.617 526.898C725.141 527.633 725.402 528.465 725.402 529.395C725.402 530.871 724.902 532.047 723.902 532.922C722.91 533.797 721.602 534.234 719.977 534.234C718.336 534.234 717.02 533.797 716.027 532.922C715.043 532.039 714.551 530.863 714.551 529.395C714.551 528.473 714.801 527.641 715.301 526.898C715.809 526.156 716.508 525.594 717.398 525.211C716.641 524.836 716.043 524.316 715.605 523.652C715.168 522.988 714.949 522.234 714.949 521.391C714.949 519.953 715.41 518.812 716.332 517.969C717.254 517.125 718.469 516.703 719.977 516.703C721.477 516.703 722.688 517.125 723.609 517.969C724.539 518.812 725.004 519.953 725.004 521.391ZM723.234 529.348C723.234 528.395 722.93 527.617 722.32 527.016C721.719 526.414 720.93 526.113 719.953 526.113C718.977 526.113 718.191 526.41 717.598 527.004C717.012 527.598 716.719 528.379 716.719 529.348C716.719 530.316 717.004 531.078 717.574 531.633C718.152 532.188 718.953 532.465 719.977 532.465C720.992 532.465 721.789 532.188 722.367 531.633C722.945 531.07 723.234 530.309 723.234 529.348ZM719.977 518.484C719.125 518.484 718.434 518.75 717.902 519.281C717.379 519.805 717.117 520.52 717.117 521.426C717.117 522.293 717.375 522.996 717.891 523.535C718.414 524.066 719.109 524.332 719.977 524.332C720.844 524.332 721.535 524.066 722.051 523.535C722.574 522.996 722.836 522.293 722.836 521.426C722.836 520.559 722.566 519.852 722.027 519.305C721.488 518.758 720.805 518.484 719.977 518.484Z" fill="#232323"/>
</g>
</g>
<g id="c1-f3-n312">
<path id="Vector 79_2" d="M244 478V563H342V478H244Z" fill="#C7E4FF" stroke="#232323" stroke-width="2" stroke-linecap="round" stroke-linejoin="round"/>
<g id="numbers_2">
<path id="2_2" d="M277.855 518.414H279.484C280.508 518.398 281.312 518.129 281.898 517.605C282.484 517.082 282.777 516.375 282.777 515.484C282.777 513.484 281.781 512.484 279.789 512.484C278.852 512.484 278.102 512.754 277.539 513.293C276.984 513.824 276.707 514.531 276.707 515.414H274.539C274.539 514.062 275.031 512.941 276.016 512.051C277.008 511.152 278.266 510.703 279.789 510.703C281.398 510.703 282.66 511.129 283.574 511.98C284.488 512.832 284.945 514.016 284.945 515.531C284.945 516.273 284.703 516.992 284.219 517.688C283.742 518.383 283.09 518.902 282.262 519.246C283.199 519.543 283.922 520.035 284.43 520.723C284.945 521.41 285.203 522.25 285.203 523.242C285.203 524.773 284.703 525.988 283.703 526.887C282.703 527.785 281.402 528.234 279.801 528.234C278.199 528.234 276.895 527.801 275.887 526.934C274.887 526.066 274.387 524.922 274.387 523.5H276.566C276.566 524.398 276.859 525.117 277.445 525.656C278.031 526.195 278.816 526.465 279.801 526.465C280.848 526.465 281.648 526.191 282.203 525.645C282.758 525.098 283.035 524.312 283.035 523.289C283.035 522.297 282.73 521.535 282.121 521.004C281.512 520.473 280.633 520.199 279.484 520.184H277.855V518.414ZM295.305 528H293.125V513.551L288.754 515.156V513.188L294.965 510.855H295.305V528ZM312.836 528H301.656V526.441L307.562 519.879C308.438 518.887 309.039 518.082 309.367 517.465C309.703 516.84 309.871 516.195 309.871 515.531C309.871 514.641 309.602 513.91 309.062 513.34C308.523 512.77 307.805 512.484 306.906 512.484C305.828 512.484 304.988 512.793 304.387 513.41C303.793 514.02 303.496 514.871 303.496 515.965H301.328C301.328 514.395 301.832 513.125 302.84 512.156C303.855 511.188 305.211 510.703 306.906 510.703C308.492 510.703 309.746 511.121 310.668 511.957C311.59 512.785 312.051 513.891 312.051 515.273C312.051 516.953 310.98 518.953 308.84 521.273L304.27 526.23H312.836V528Z" fill="#232323"/>
</g>
</g>
<g id="c1-f3-n312a">
<path id="Vector 79_3" d="M342 478V563H427V478H342Z" fill="#C7E4FF" stroke="#232323" stroke-width="2" stroke-linecap="round" stroke-linejoin="round"/>
<g id="numbers_3">
<path id="2_3" d="M362.828 518.414H364.457C365.48 518.398 366.285 518.129 366.871 517.605C367.457 517.082 367.75 516.375 367.75 515.484C367.75 513.484 366.754 512.484 364.762 512.484C363.824 512.484 363.074 512.754 362.512 513.293C361.957 513.824 361.68 514.531 361.68 515.414H359.512C359.512 514.062 360.004 512.941 360.988 512.051C361.98 511.152 363.238 510.703 364.762 510.703C366.371 510.703 367.633 511.129 368.547 511.98C369.461 512.832 369.918 514.016 369.918 515.531C369.918 516.273 369.676 516.992 369.191 517.688C368.715 518.383 368.062 518.902 367.234 519.246C368.172 519.543 368.895 520.035 369.402 520.723C369.918 521.41 370.176 522.25 370.176 523.242C370.176 524.773 369.676 525.988 368.676 526.887C367.676 527.785 366.375 528.234 364.773 528.234C363.172 528.234 361.867 527.801 360.859 526.934C359.859 526.066 359.359 524.922 359.359 523.5H361.539C361.539 524.398 361.832 525.117 362.418 525.656C363.004 526.195 363.789 526.465 364.773 526.465C365.82 526.465 366.621 526.191 367.176 525.645C367.73 525.098 368.008 524.312 368.008 523.289C368.008 522.297 367.703 521.535 367.094 521.004C366.484 520.473 365.605 520.199 364.457 520.184H362.828V518.414ZM380.277 528H378.098V513.551L373.727 515.156V513.188L379.938 510.855H380.277V528ZM397.809 528H386.629V526.441L392.535 519.879C393.41 518.887 394.012 518.082 394.34 517.465C394.676 516.84 394.844 516.195 394.844 515.531C394.844 514.641 394.574 513.91 394.035 513.34C393.496 512.77 392.777 512.484 391.879 512.484C390.801 512.484 389.961 512.793 389.359 513.41C388.766 514.02 388.469 514.871 388.469 515.965H386.301C386.301 514.395 386.805 513.125 387.812 512.156C388.828 511.188 390.184 510.703 391.879 510.703C393.465 510.703 394.719 511.121 395.641 511.957C396.562 512.785 397.023 513.891 397.023 515.273C397.023 516.953 395.953 518.953 393.812 521.273L389.242 526.23H397.809V528ZM408.156 528C408.031 527.75 407.93 527.305 407.852 526.664C406.844 527.711 405.641 528.234 404.242 528.234C402.992 528.234 401.965 527.883 401.16 527.18C400.363 526.469 399.965 525.57 399.965 524.484C399.965 523.164 400.465 522.141 401.465 521.414C402.473 520.68 403.887 520.312 405.707 520.312H407.816V519.316C407.816 518.559 407.59 517.957 407.137 517.512C406.684 517.059 406.016 516.832 405.133 516.832C404.359 516.832 403.711 517.027 403.188 517.418C402.664 517.809 402.402 518.281 402.402 518.836H400.223C400.223 518.203 400.445 517.594 400.891 517.008C401.344 516.414 401.953 515.945 402.719 515.602C403.492 515.258 404.34 515.086 405.262 515.086C406.723 515.086 407.867 515.453 408.695 516.188C409.523 516.914 409.953 517.918 409.984 519.199V525.035C409.984 526.199 410.133 527.125 410.43 527.812V528H408.156ZM404.559 526.348C405.238 526.348 405.883 526.172 406.492 525.82C407.102 525.469 407.543 525.012 407.816 524.449V521.848H406.117C403.461 521.848 402.133 522.625 402.133 524.18C402.133 524.859 402.359 525.391 402.812 525.773C403.266 526.156 403.848 526.348 404.559 526.348Z" fill="#232323"/>
</g>
</g>
<g id="c1-f3-n310">
<path id="Vector 79_4" d="M427 478V535H642V478H427Z" fill="#C7E4FF" stroke="#232323" stroke-width="2" stroke-linecap="round" stroke-linejoin="round"/>
<g id="numbers_4">
<path id="2_4" d="M518.855 504.414H520.484C521.508 504.398 522.312 504.129 522.898 503.605C523.484 503.082 523.777 502.375 523.777 501.484C523.777 499.484 522.781 498.484 520.789 498.484C519.852 498.484 519.102 498.754 518.539 499.293C517.984 499.824 517.707 500.531 517.707 501.414H515.539C515.539 500.062 516.031 498.941 517.016 498.051C518.008 497.152 519.266 496.703 520.789 496.703C522.398 496.703 523.66 497.129 524.574 497.98C525.488 498.832 525.945 500.016 525.945 501.531C525.945 502.273 525.703 502.992 525.219 503.688C524.742 504.383 524.09 504.902 523.262 505.246C524.199 505.543 524.922 506.035 525.43 506.723C525.945 507.41 526.203 508.25 526.203 509.242C526.203 510.773 525.703 511.988 524.703 512.887C523.703 513.785 522.402 514.234 520.801 514.234C519.199 514.234 517.895 513.801 516.887 512.934C515.887 512.066 515.387 510.922 515.387 509.5H517.566C517.566 510.398 517.859 511.117 518.445 511.656C519.031 512.195 519.816 512.465 520.801 512.465C521.848 512.465 522.648 512.191 523.203 511.645C523.758 511.098 524.035 510.312 524.035 509.289C524.035 508.297 523.73 507.535 523.121 507.004C522.512 506.473 521.633 506.199 520.484 506.184H518.855V504.414ZM536.305 514H534.125V499.551L529.754 501.156V499.188L535.965 496.855H536.305V514ZM553.355 506.723C553.355 509.262 552.922 511.148 552.055 512.383C551.188 513.617 549.832 514.234 547.988 514.234C546.168 514.234 544.82 513.633 543.945 512.43C543.07 511.219 542.617 509.414 542.586 507.016V504.121C542.586 501.613 543.02 499.75 543.887 498.531C544.754 497.312 546.113 496.703 547.965 496.703C549.801 496.703 551.152 497.293 552.02 498.473C552.887 499.645 553.332 501.457 553.355 503.91V506.723ZM551.188 503.758C551.188 501.922 550.93 500.586 550.414 499.75C549.898 498.906 549.082 498.484 547.965 498.484C546.855 498.484 546.047 498.902 545.539 499.738C545.031 500.574 544.77 501.859 544.754 503.594V507.062C544.754 508.906 545.02 510.27 545.551 511.152C546.09 512.027 546.902 512.465 547.988 512.465C549.059 512.465 549.852 512.051 550.367 511.223C550.891 510.395 551.164 509.09 551.188 507.309V503.758Z" fill="#232323"/>
</g>
</g>
<g id="c1-f3-n315">
<path id="Vector 79_5" d="M642 625V740H742V625H642Z" fill="#C7E4FF" stroke="#232323" stroke-width="2" stroke-linecap="round" stroke-linejoin="round"/>
<g id="numbers_5">
<path id="2_5" d="M676.855 680.414H678.484C679.508 680.398 680.312 680.129 680.898 679.605C681.484 679.082 681.777 678.375 681.777 677.484C681.777 675.484 680.781 674.484 678.789 674.484C677.852 674.484 677.102 674.754 676.539 675.293C675.984 675.824 675.707 676.531 675.707 677.414H673.539C673.539 676.062 674.031 674.941 675.016 674.051C676.008 673.152 677.266 672.703 678.789 672.703C680.398 672.703 681.66 673.129 682.574 673.98C683.488 674.832 683.945 676.016 683.945 677.531C683.945 678.273 683.703 678.992 683.219 679.688C682.742 680.383 682.09 680.902 681.262 681.246C682.199 681.543 682.922 682.035 683.43 682.723C683.945 683.41 684.203 684.25 684.203 685.242C684.203 686.773 683.703 687.988 682.703 688.887C681.703 689.785 680.402 690.234 678.801 690.234C677.199 690.234 675.895 689.801 674.887 688.934C673.887 688.066 673.387 686.922 673.387 685.5H675.566C675.566 686.398 675.859 687.117 676.445 687.656C677.031 688.195 677.816 688.465 678.801 688.465C679.848 688.465 680.648 688.191 681.203 687.645C681.758 687.098 682.035 686.312 682.035 685.289C682.035 684.297 681.73 683.535 681.121 683.004C680.512 682.473 679.633 682.199 678.484 682.184H676.855V680.414ZM694.305 690H692.125V675.551L687.754 677.156V675.188L693.965 672.855H694.305V690ZM701.652 681.445L702.52 672.938H711.262V674.941H704.359L703.844 679.594C704.68 679.102 705.629 678.855 706.691 678.855C708.246 678.855 709.48 679.371 710.395 680.402C711.309 681.426 711.766 682.812 711.766 684.562C711.766 686.32 711.289 687.707 710.336 688.723C709.391 689.73 708.066 690.234 706.363 690.234C704.855 690.234 703.625 689.816 702.672 688.98C701.719 688.145 701.176 686.988 701.043 685.512H703.094C703.227 686.488 703.574 687.227 704.137 687.727C704.699 688.219 705.441 688.465 706.363 688.465C707.371 688.465 708.16 688.121 708.73 687.434C709.309 686.746 709.598 685.797 709.598 684.586C709.598 683.445 709.285 682.531 708.66 681.844C708.043 681.148 707.219 680.801 706.188 680.801C705.242 680.801 704.5 681.008 703.961 681.422L703.387 681.891L701.652 681.445Z" fill="#232323"/>
</g>
</g>
<g id="c1-f3-n313">
<path id="Vector 79_6" d="M742 625V740H977V625H742Z" fill="#C7E4FF" stroke="#232323" stroke-width="2" stroke-linecap="round" stroke-linejoin="round"/>
<g id="numbers_6">
<path id="2_6" d="M843.855 680.414H845.484C846.508 680.398 847.312 680.129 847.898 679.605C848.484 679.082 848.777 678.375 848.777 677.484C848.777 675.484 847.781 674.484 845.789 674.484C844.852 674.484 844.102 674.754 843.539 675.293C842.984 675.824 842.707 676.531 842.707 677.414H840.539C840.539 676.062 841.031 674.941 842.016 674.051C843.008 673.152 844.266 672.703 845.789 672.703C847.398 672.703 848.66 673.129 849.574 673.98C850.488 674.832 850.945 676.016 850.945 677.531C850.945 678.273 850.703 678.992 850.219 679.688C849.742 680.383 849.09 680.902 848.262 681.246C849.199 681.543 849.922 682.035 850.43 682.723C850.945 683.41 851.203 684.25 851.203 685.242C851.203 686.773 850.703 687.988 849.703 688.887C848.703 689.785 847.402 690.234 845.801 690.234C844.199 690.234 842.895 689.801 841.887 688.934C840.887 688.066 840.387 686.922 840.387 685.5H842.566C842.566 686.398 842.859 687.117 843.445 687.656C844.031 688.195 844.816 688.465 845.801 688.465C846.848 688.465 847.648 688.191 848.203 687.645C848.758 687.098 849.035 686.312 849.035 685.289C849.035 684.297 848.73 683.535 848.121 683.004C847.512 682.473 846.633 682.199 845.484 682.184H843.855V680.414ZM861.305 690H859.125V675.551L854.754 677.156V675.188L860.965 672.855H861.305V690ZM870.809 680.414H872.438C873.461 680.398 874.266 680.129 874.852 679.605C875.438 679.082 875.73 678.375 875.73 677.484C875.73 675.484 874.734 674.484 872.742 674.484C871.805 674.484 871.055 674.754 870.492 675.293C869.938 675.824 869.66 676.531 869.66 677.414H867.492C867.492 676.062 867.984 674.941 868.969 674.051C869.961 673.152 871.219 672.703 872.742 672.703C874.352 672.703 875.613 673.129 876.527 673.98C877.441 674.832 877.898 676.016 877.898 677.531C877.898 678.273 877.656 678.992 877.172 679.688C876.695 680.383 876.043 680.902 875.215 681.246C876.152 681.543 876.875 682.035 877.383 682.723C877.898 683.41 878.156 684.25 878.156 685.242C878.156 686.773 877.656 687.988 876.656 688.887C875.656 689.785 874.355 690.234 872.754 690.234C871.152 690.234 869.848 689.801 868.84 688.934C867.84 688.066 867.34 686.922 867.34 685.5H869.52C869.52 686.398 869.812 687.117 870.398 687.656C870.984 688.195 871.77 688.465 872.754 688.465C873.801 688.465 874.602 688.191 875.156 687.645C875.711 687.098 875.988 686.312 875.988 685.289C875.988 684.297 875.684 683.535 875.074 683.004C874.465 682.473 873.586 682.199 872.438 682.184H870.809V680.414Z" fill="#232323"/>
</g>
</g>
<g id="c1-f3-n311">
<path id="Vector 79_7" d="M977 625V740H1038V625H977Z" fill="#C7E4FF" stroke="#232323" stroke-width="2" stroke-linecap="round" stroke-linejoin="round"/>
<g id="numbers_7">
<path id="2_7" d="M991.855 680.414H993.484C994.508 680.398 995.312 680.129 995.898 679.605C996.484 679.082 996.777 678.375 996.777 677.484C996.777 675.484 995.781 674.484 993.789 674.484C992.852 674.484 992.102 674.754 991.539 675.293C990.984 675.824 990.707 676.531 990.707 677.414H988.539C988.539 676.062 989.031 674.941 990.016 674.051C991.008 673.152 992.266 672.703 993.789 672.703C995.398 672.703 996.66 673.129 997.574 673.98C998.488 674.832 998.945 676.016 998.945 677.531C998.945 678.273 998.703 678.992 998.219 679.688C997.742 680.383 997.09 680.902 996.262 681.246C997.199 681.543 997.922 682.035 998.43 682.723C998.945 683.41 999.203 684.25 999.203 685.242C999.203 686.773 998.703 687.988 997.703 688.887C996.703 689.785 995.402 690.234 993.801 690.234C992.199 690.234 990.895 689.801 989.887 688.934C988.887 688.066 988.387 686.922 988.387 685.5H990.566C990.566 686.398 990.859 687.117 991.445 687.656C992.031 688.195 992.816 688.465 993.801 688.465C994.848 688.465 995.648 688.191 996.203 687.645C996.758 687.098 997.035 686.312 997.035 685.289C997.035 684.297 996.73 683.535 996.121 683.004C995.512 682.473 994.633 682.199 993.484 682.184H991.855V680.414ZM1009.3 690H1007.12V675.551L1002.75 677.156V675.188L1008.96 672.855H1009.3V690ZM1022.78 690H1020.6V675.551L1016.23 677.156V675.188L1022.44 672.855H1022.78V690Z" fill="#232323"/>
</g>
</g>
<g id="c1-f3-n309">
<path id="Vector 79_8" d="M1038 574V740H1126V574H1038Z" fill="#C7E4FF" stroke="#232323" stroke-width="2" stroke-linecap="round" stroke-linejoin="round"/>
<g id="numbers_8">
<path id="2_8" d="M1066.86 655.414H1068.48C1069.51 655.398 1070.31 655.129 1070.9 654.605C1071.48 654.082 1071.78 653.375 1071.78 652.484C1071.78 650.484 1070.78 649.484 1068.79 649.484C1067.85 649.484 1067.1 649.754 1066.54 650.293C1065.98 650.824 1065.71 651.531 1065.71 652.414H1063.54C1063.54 651.062 1064.03 649.941 1065.02 649.051C1066.01 648.152 1067.27 647.703 1068.79 647.703C1070.4 647.703 1071.66 648.129 1072.57 648.98C1073.49 649.832 1073.95 651.016 1073.95 652.531C1073.95 653.273 1073.7 653.992 1073.22 654.688C1072.74 655.383 1072.09 655.902 1071.26 656.246C1072.2 656.543 1072.92 657.035 1073.43 657.723C1073.95 658.41 1074.2 659.25 1074.2 660.242C1074.2 661.773 1073.7 662.988 1072.7 663.887C1071.7 664.785 1070.4 665.234 1068.8 665.234C1067.2 665.234 1065.89 664.801 1064.89 663.934C1063.89 663.066 1063.39 661.922 1063.39 660.5H1065.57C1065.57 661.398 1065.86 662.117 1066.45 662.656C1067.03 663.195 1067.82 663.465 1068.8 663.465C1069.85 663.465 1070.65 663.191 1071.2 662.645C1071.76 662.098 1072.04 661.312 1072.04 660.289C1072.04 659.297 1071.73 658.535 1071.12 658.004C1070.51 657.473 1069.63 657.199 1068.48 657.184H1066.86V655.414ZM1087.88 657.723C1087.88 660.262 1087.45 662.148 1086.58 663.383C1085.71 664.617 1084.36 665.234 1082.51 665.234C1080.69 665.234 1079.34 664.633 1078.47 663.43C1077.59 662.219 1077.14 660.414 1077.11 658.016V655.121C1077.11 652.613 1077.54 650.75 1078.41 649.531C1079.28 648.312 1080.64 647.703 1082.49 647.703C1084.32 647.703 1085.68 648.293 1086.54 649.473C1087.41 650.645 1087.86 652.457 1087.88 654.91V657.723ZM1085.71 654.758C1085.71 652.922 1085.45 651.586 1084.94 650.75C1084.42 649.906 1083.61 649.484 1082.49 649.484C1081.38 649.484 1080.57 649.902 1080.06 650.738C1079.55 651.574 1079.29 652.859 1079.28 654.594V658.062C1079.28 659.906 1079.54 661.27 1080.07 662.152C1080.61 663.027 1081.43 663.465 1082.51 663.465C1083.58 663.465 1084.38 663.051 1084.89 662.223C1085.41 661.395 1085.69 660.09 1085.71 658.309V654.758ZM1098.96 657.5C1098.51 658.039 1097.97 658.473 1097.34 658.801C1096.71 659.129 1096.02 659.293 1095.27 659.293C1094.29 659.293 1093.43 659.051 1092.7 658.566C1091.97 658.082 1091.41 657.402 1091.01 656.527C1090.61 655.645 1090.41 654.672 1090.41 653.609C1090.41 652.469 1090.62 651.441 1091.05 650.527C1091.49 649.613 1092.11 648.914 1092.91 648.43C1093.7 647.945 1094.63 647.703 1095.7 647.703C1097.38 647.703 1098.71 648.336 1099.68 649.602C1100.66 650.859 1101.14 652.578 1101.14 654.758V655.391C1101.14 658.711 1100.49 661.137 1099.18 662.668C1097.86 664.191 1095.88 664.973 1093.23 665.012H1092.81V663.184H1093.27C1095.06 663.152 1096.43 662.688 1097.39 661.789C1098.36 660.883 1098.88 659.453 1098.96 657.5ZM1095.62 657.5C1096.35 657.5 1097.02 657.277 1097.63 656.832C1098.25 656.387 1098.7 655.836 1098.98 655.18V654.312C1098.98 652.891 1098.67 651.734 1098.05 650.844C1097.43 649.953 1096.65 649.508 1095.71 649.508C1094.75 649.508 1093.99 649.875 1093.41 650.609C1092.83 651.336 1092.54 652.297 1092.54 653.492C1092.54 654.656 1092.82 655.617 1093.38 656.375C1093.94 657.125 1094.69 657.5 1095.62 657.5Z" fill="#232323"/>
</g>
</g>
<g id="c1-f3-n306">
<path id="Vector 79_9" d="M770 478V574H882V478H770Z" fill="#C7E4FF" stroke="#232323" stroke-width="2" stroke-linecap="round" stroke-linejoin="round"/>
<g id="numbers_9">
<path id="2_9" d="M810.855 524.414H812.484C813.508 524.398 814.312 524.129 814.898 523.605C815.484 523.082 815.777 522.375 815.777 521.484C815.777 519.484 814.781 518.484 812.789 518.484C811.852 518.484 811.102 518.754 810.539 519.293C809.984 519.824 809.707 520.531 809.707 521.414H807.539C807.539 520.062 808.031 518.941 809.016 518.051C810.008 517.152 811.266 516.703 812.789 516.703C814.398 516.703 815.66 517.129 816.574 517.98C817.488 518.832 817.945 520.016 817.945 521.531C817.945 522.273 817.703 522.992 817.219 523.688C816.742 524.383 816.09 524.902 815.262 525.246C816.199 525.543 816.922 526.035 817.43 526.723C817.945 527.41 818.203 528.25 818.203 529.242C818.203 530.773 817.703 531.988 816.703 532.887C815.703 533.785 814.402 534.234 812.801 534.234C811.199 534.234 809.895 533.801 808.887 532.934C807.887 532.066 807.387 530.922 807.387 529.5H809.566C809.566 530.398 809.859 531.117 810.445 531.656C811.031 532.195 811.816 532.465 812.801 532.465C813.848 532.465 814.648 532.191 815.203 531.645C815.758 531.098 816.035 530.312 816.035 529.289C816.035 528.297 815.73 527.535 815.121 527.004C814.512 526.473 813.633 526.199 812.484 526.184H810.855V524.414ZM831.879 526.723C831.879 529.262 831.445 531.148 830.578 532.383C829.711 533.617 828.355 534.234 826.512 534.234C824.691 534.234 823.344 533.633 822.469 532.43C821.594 531.219 821.141 529.414 821.109 527.016V524.121C821.109 521.613 821.543 519.75 822.41 518.531C823.277 517.312 824.637 516.703 826.488 516.703C828.324 516.703 829.676 517.293 830.543 518.473C831.41 519.645 831.855 521.457 831.879 523.91V526.723ZM829.711 523.758C829.711 521.922 829.453 520.586 828.938 519.75C828.422 518.906 827.605 518.484 826.488 518.484C825.379 518.484 824.57 518.902 824.062 519.738C823.555 520.574 823.293 521.859 823.277 523.594V527.062C823.277 528.906 823.543 530.27 824.074 531.152C824.613 532.027 825.426 532.465 826.512 532.465C827.582 532.465 828.375 532.051 828.891 531.223C829.414 530.395 829.688 529.09 829.711 527.309V523.758ZM843.164 516.926V518.766H842.766C841.078 518.797 839.734 519.297 838.734 520.266C837.734 521.234 837.156 522.598 837 524.355C837.898 523.324 839.125 522.809 840.68 522.809C842.164 522.809 843.348 523.332 844.23 524.379C845.121 525.426 845.566 526.777 845.566 528.434C845.566 530.191 845.086 531.598 844.125 532.652C843.172 533.707 841.891 534.234 840.281 534.234C838.648 534.234 837.324 533.609 836.309 532.359C835.293 531.102 834.785 529.484 834.785 527.508V526.676C834.785 523.535 835.453 521.137 836.789 519.48C838.133 517.816 840.129 516.965 842.777 516.926H843.164ZM840.316 524.613C839.574 524.613 838.891 524.836 838.266 525.281C837.641 525.727 837.207 526.285 836.965 526.957V527.754C836.965 529.16 837.281 530.293 837.914 531.152C838.547 532.012 839.336 532.441 840.281 532.441C841.258 532.441 842.023 532.082 842.578 531.363C843.141 530.645 843.422 529.703 843.422 528.539C843.422 527.367 843.137 526.422 842.566 525.703C842.004 524.977 841.254 524.613 840.316 524.613Z" fill="#232323"/>
</g>
</g>
<g id="c1-f3-n307">
<path id="Vector 79_10" d="M945 540V574H1038V540H945Z" fill="#C7E4FF" stroke="#232323" stroke-width="2" stroke-linecap="round" stroke-linejoin="round"/>
<g id="numbers_10">
<path id="2_10" d="M975.855 555.414H977.484C978.508 555.398 979.312 555.129 979.898 554.605C980.484 554.082 980.777 553.375 980.777 552.484C980.777 550.484 979.781 549.484 977.789 549.484C976.852 549.484 976.102 549.754 975.539 550.293C974.984 550.824 974.707 551.531 974.707 552.414H972.539C972.539 551.062 973.031 549.941 974.016 549.051C975.008 548.152 976.266 547.703 977.789 547.703C979.398 547.703 980.66 548.129 981.574 548.98C982.488 549.832 982.945 551.016 982.945 552.531C982.945 553.273 982.703 553.992 982.219 554.688C981.742 555.383 981.09 555.902 980.262 556.246C981.199 556.543 981.922 557.035 982.43 557.723C982.945 558.41 983.203 559.25 983.203 560.242C983.203 561.773 982.703 562.988 981.703 563.887C980.703 564.785 979.402 565.234 977.801 565.234C976.199 565.234 974.895 564.801 973.887 563.934C972.887 563.066 972.387 561.922 972.387 560.5H974.566C974.566 561.398 974.859 562.117 975.445 562.656C976.031 563.195 976.816 563.465 977.801 563.465C978.848 563.465 979.648 563.191 980.203 562.645C980.758 562.098 981.035 561.312 981.035 560.289C981.035 559.297 980.73 558.535 980.121 558.004C979.512 557.473 978.633 557.199 977.484 557.184H975.855V555.414ZM996.879 557.723C996.879 560.262 996.445 562.148 995.578 563.383C994.711 564.617 993.355 565.234 991.512 565.234C989.691 565.234 988.344 564.633 987.469 563.43C986.594 562.219 986.141 560.414 986.109 558.016V555.121C986.109 552.613 986.543 550.75 987.41 549.531C988.277 548.312 989.637 547.703 991.488 547.703C993.324 547.703 994.676 548.293 995.543 549.473C996.41 550.645 996.855 552.457 996.879 554.91V557.723ZM994.711 554.758C994.711 552.922 994.453 551.586 993.938 550.75C993.422 549.906 992.605 549.484 991.488 549.484C990.379 549.484 989.57 549.902 989.062 550.738C988.555 551.574 988.293 552.859 988.277 554.594V558.062C988.277 559.906 988.543 561.27 989.074 562.152C989.613 563.027 990.426 563.465 991.512 563.465C992.582 563.465 993.375 563.051 993.891 562.223C994.414 561.395 994.688 560.09 994.711 558.309V554.758ZM1010.67 549.156L1003.61 565H1001.33L1008.38 549.719H999.141V547.938H1010.67V549.156Z" fill="#232323"/>
</g>
</g>
<g id="c1-f3-n302">
<path id="Vector 79_11" d="M945 206V260H1038V206H945Z" fill="#C7E4FF" stroke="#232323" stroke-width="2" stroke-linecap="round" stroke-linejoin="round"/>
<g id="numbers_11">
<path id="2_11" d="M975.855 231.414H977.484C978.508 231.398 979.312 231.129 979.898 230.605C980.484 230.082 980.777 229.375 980.777 228.484C980.777 226.484 979.781 225.484 977.789 225.484C976.852 225.484 976.102 225.754 975.539 226.293C974.984 226.824 974.707 227.531 974.707 228.414H972.539C972.539 227.062 973.031 225.941 974.016 225.051C975.008 224.152 976.266 223.703 977.789 223.703C979.398 223.703 980.66 224.129 981.574 224.98C982.488 225.832 982.945 227.016 982.945 228.531C982.945 229.273 982.703 229.992 982.219 230.688C981.742 231.383 981.09 231.902 980.262 232.246C981.199 232.543 981.922 233.035 982.43 233.723C982.945 234.41 983.203 235.25 983.203 236.242C983.203 237.773 982.703 238.988 981.703 239.887C980.703 240.785 979.402 241.234 977.801 241.234C976.199 241.234 974.895 240.801 973.887 239.934C972.887 239.066 972.387 237.922 972.387 236.5H974.566C974.566 237.398 974.859 238.117 975.445 238.656C976.031 239.195 976.816 239.465 977.801 239.465C978.848 239.465 979.648 239.191 980.203 238.645C980.758 238.098 981.035 237.312 981.035 236.289C981.035 235.297 980.73 234.535 980.121 234.004C979.512 233.473 978.633 233.199 977.484 233.184H975.855V231.414ZM996.879 233.723C996.879 236.262 996.445 238.148 995.578 239.383C994.711 240.617 993.355 241.234 991.512 241.234C989.691 241.234 988.344 240.633 987.469 239.43C986.594 238.219 986.141 236.414 986.109 234.016V231.121C986.109 228.613 986.543 226.75 987.41 225.531C988.277 224.312 989.637 223.703 991.488 223.703C993.324 223.703 994.676 224.293 995.543 225.473C996.41 226.645 996.855 228.457 996.879 230.91V233.723ZM994.711 230.758C994.711 228.922 994.453 227.586 993.938 226.75C993.422 225.906 992.605 225.484 991.488 225.484C990.379 225.484 989.57 225.902 989.062 226.738C988.555 227.574 988.293 228.859 988.277 230.594V234.062C988.277 235.906 988.543 237.27 989.074 238.152C989.613 239.027 990.426 239.465 991.512 239.465C992.582 239.465 993.375 239.051 993.891 238.223C994.414 237.395 994.688 236.09 994.711 234.309V230.758ZM1010.84 241H999.656V239.441L1005.56 232.879C1006.44 231.887 1007.04 231.082 1007.37 230.465C1007.7 229.84 1007.87 229.195 1007.87 228.531C1007.87 227.641 1007.6 226.91 1007.06 226.34C1006.52 225.77 1005.8 225.484 1004.91 225.484C1003.83 225.484 1002.99 225.793 1002.39 226.41C1001.79 227.02 1001.5 227.871 1001.5 228.965H999.328C999.328 227.395 999.832 226.125 1000.84 225.156C1001.86 224.188 1003.21 223.703 1004.91 223.703C1006.49 223.703 1007.75 224.121 1008.67 224.957C1009.59 225.785 1010.05 226.891 1010.05 228.273C1010.05 229.953 1008.98 231.953 1006.84 234.273L1002.27 239.23H1010.84V241Z" fill="#232323"/>
</g>
</g>
<g id="c1-f3-n302b">
<path id="Vector 79_12" d="M945 76V116H1038V76H945Z" fill="#C7E4FF" stroke="#232323" stroke-width="2" stroke-linecap="round" stroke-linejoin="round"/>
<g id="numbers_12">
<path id="2_12" d="M969.723 94.4141H971.352C972.375 94.3984 973.18 94.1289 973.766 93.6055C974.352 93.082 974.645 92.375 974.645 91.4844C974.645 89.4844 973.648 88.4844 971.656 88.4844C970.719 88.4844 969.969 88.7539 969.406 89.293C968.852 89.8242 968.574 90.5312 968.574 91.4141H966.406C966.406 90.0625 966.898 88.9414 967.883 88.0508C968.875 87.1523 970.133 86.7031 971.656 86.7031C973.266 86.7031 974.527 87.1289 975.441 87.9805C976.355 88.832 976.812 90.0156 976.812 91.5312C976.812 92.2734 976.57 92.9922 976.086 93.6875C975.609 94.3828 974.957 94.9023 974.129 95.2461C975.066 95.543 975.789 96.0352 976.297 96.7227C976.812 97.4102 977.07 98.25 977.07 99.2422C977.07 100.773 976.57 101.988 975.57 102.887C974.57 103.785 973.27 104.234 971.668 104.234C970.066 104.234 968.762 103.801 967.754 102.934C966.754 102.066 966.254 100.922 966.254 99.5H968.434C968.434 100.398 968.727 101.117 969.312 101.656C969.898 102.195 970.684 102.465 971.668 102.465C972.715 102.465 973.516 102.191 974.07 101.645C974.625 101.098 974.902 100.312 974.902 99.2891C974.902 98.2969 974.598 97.5352 973.988 97.0039C973.379 96.4727 972.5 96.1992 971.352 96.1836H969.723V94.4141ZM990.746 96.7227C990.746 99.2617 990.312 101.148 989.445 102.383C988.578 103.617 987.223 104.234 985.379 104.234C983.559 104.234 982.211 103.633 981.336 102.43C980.461 101.219 980.008 99.4141 979.977 97.0156V94.1211C979.977 91.6133 980.41 89.75 981.277 88.5312C982.145 87.3125 983.504 86.7031 985.355 86.7031C987.191 86.7031 988.543 87.293 989.41 88.4727C990.277 89.6445 990.723 91.457 990.746 93.9102V96.7227ZM988.578 93.7578C988.578 91.9219 988.32 90.5859 987.805 89.75C987.289 88.9062 986.473 88.4844 985.355 88.4844C984.246 88.4844 983.438 88.9023 982.93 89.7383C982.422 90.5742 982.16 91.8594 982.145 93.5938V97.0625C982.145 98.9062 982.41 100.27 982.941 101.152C983.48 102.027 984.293 102.465 985.379 102.465C986.449 102.465 987.242 102.051 987.758 101.223C988.281 100.395 988.555 99.0898 988.578 97.3086V93.7578ZM1004.22 96.7227C1004.22 99.2617 1003.79 101.148 1002.92 102.383C1002.05 103.617 1000.7 104.234 998.855 104.234C997.035 104.234 995.688 103.633 994.812 102.43C993.938 101.219 993.484 99.4141 993.453 97.0156V94.1211C993.453 91.6133 993.887 89.75 994.754 88.5312C995.621 87.3125 996.98 86.7031 998.832 86.7031C1000.67 86.7031 1002.02 87.293 1002.89 88.4727C1003.75 89.6445 1004.2 91.457 1004.22 93.9102V96.7227ZM1002.05 93.7578C1002.05 91.9219 1001.8 90.5859 1001.28 89.75C1000.77 88.9062 999.949 88.4844 998.832 88.4844C997.723 88.4844 996.914 88.9023 996.406 89.7383C995.898 90.5742 995.637 91.8594 995.621 93.5938V97.0625C995.621 98.9062 995.887 100.27 996.418 101.152C996.957 102.027 997.77 102.465 998.855 102.465C999.926 102.465 1000.72 102.051 1001.23 101.223C1001.76 100.395 1002.03 99.0898 1002.05 97.3086V93.7578ZM1012.79 92.0469C1014.38 92.0469 1015.66 92.582 1016.61 93.6523C1017.57 94.7148 1018.05 96.1172 1018.05 97.8594V98.0586C1018.05 99.2539 1017.82 100.324 1017.36 101.27C1016.9 102.207 1016.23 102.938 1015.37 103.461C1014.51 103.977 1013.52 104.234 1012.39 104.234C1010.69 104.234 1009.32 103.668 1008.28 102.535C1007.24 101.395 1006.72 99.8672 1006.72 97.9531V96.8984C1006.72 94.2344 1007.21 92.1172 1008.2 90.5469C1009.19 88.9766 1010.65 88.0195 1012.58 87.6758C1013.67 87.4805 1014.41 87.2422 1014.79 86.9609C1015.18 86.6797 1015.37 86.293 1015.37 85.8008H1017.15C1017.15 86.7773 1016.93 87.5391 1016.48 88.0859C1016.04 88.6328 1015.34 89.0195 1014.37 89.2461L1012.75 89.6094C1011.46 89.9141 1010.5 90.4297 1009.85 91.1562C1009.21 91.875 1008.79 92.8359 1008.59 94.0391C1009.74 92.7109 1011.14 92.0469 1012.79 92.0469ZM1012.37 93.8281C1011.3 93.8281 1010.46 94.1875 1009.84 94.9062C1009.21 95.6172 1008.9 96.6055 1008.9 97.8711V98.0586C1008.9 99.418 1009.21 100.496 1009.84 101.293C1010.47 102.082 1011.32 102.477 1012.39 102.477C1013.47 102.477 1014.32 102.078 1014.95 101.281C1015.57 100.484 1015.88 99.3203 1015.88 97.7891C1015.88 96.5938 1015.57 95.6367 1014.93 94.918C1014.31 94.1914 1013.45 93.8281 1012.37 93.8281Z" fill="#232323"/>
</g>
</g>
<g id="c1-f3-wc">
<path id="Vector 79_13" d="M945 260V323H1038V260H945Z" fill="white" stroke="#232323" stroke-width="2" stroke-linecap="round" stroke-linejoin="round"/>
<g id="wc">
<rect id="Rectangle 18" x="977" y="277" width="30" height="30" rx="3" fill="#3377E4"/>
<g id="Group">
<path id="Vector" fill-rule="evenodd" clip-rule="evenodd" d="M1001.83 299.41C1002.28 300.409 1001.83 301.559 1000.53 301.559L993.136 301.561C991.757 301.561 991.501 300.346 991.913 299.353L995.606 291.194C996.198 289.877 997.538 290.047 998.133 291.252L1001.83 299.41ZM987.129 283C988.984 283 990.358 284.492 990.358 286.162C990.358 287.832 988.985 289.324 987.129 289.324C985.275 289.324 983.9 287.832 983.9 286.162C983.9 284.492 985.275 283 987.129 283ZM988.398 300.575C987.805 301.777 986.462 301.947 985.871 300.633L982.178 292.473C981.767 291.481 982.026 290.267 983.401 290.267H987.122L990.792 290.268C992.094 290.268 992.547 291.417 992.095 292.416L988.398 300.575ZM996.864 283C998.719 283 1000.09 284.492 1000.09 286.162C1000.09 287.832 998.719 289.324 996.864 289.324C995.01 289.324 993.635 287.832 993.635 286.162C993.635 284.492 995.01 283 996.864 283Z" fill="white"/>
</g>
</g>
</g>
<g id="c1-f3-n304">
<path id="Vector 79_14" d="M770 116V206H880V116H770Z" fill="#C7E4FF" stroke="#232323" stroke-width="2" stroke-linecap="round" stroke-linejoin="round"/>
<g id="numbers_13">
<path id="2_13" d="M809.855 159.414H811.484C812.508 159.398 813.312 159.129 813.898 158.605C814.484 158.082 814.777 157.375 814.777 156.484C814.777 154.484 813.781 153.484 811.789 153.484C810.852 153.484 810.102 153.754 809.539 154.293C808.984 154.824 808.707 155.531 808.707 156.414H806.539C806.539 155.062 807.031 153.941 808.016 153.051C809.008 152.152 810.266 151.703 811.789 151.703C813.398 151.703 814.66 152.129 815.574 152.98C816.488 153.832 816.945 155.016 816.945 156.531C816.945 157.273 816.703 157.992 816.219 158.688C815.742 159.383 815.09 159.902 814.262 160.246C815.199 160.543 815.922 161.035 816.43 161.723C816.945 162.41 817.203 163.25 817.203 164.242C817.203 165.773 816.703 166.988 815.703 167.887C814.703 168.785 813.402 169.234 811.801 169.234C810.199 169.234 808.895 168.801 807.887 167.934C806.887 167.066 806.387 165.922 806.387 164.5H808.566C808.566 165.398 808.859 166.117 809.445 166.656C810.031 167.195 810.816 167.465 811.801 167.465C812.848 167.465 813.648 167.191 814.203 166.645C814.758 166.098 815.035 165.312 815.035 164.289C815.035 163.297 814.73 162.535 814.121 162.004C813.512 161.473 812.633 161.199 811.484 161.184H809.855V159.414ZM830.879 161.723C830.879 164.262 830.445 166.148 829.578 167.383C828.711 168.617 827.355 169.234 825.512 169.234C823.691 169.234 822.344 168.633 821.469 167.43C820.594 166.219 820.141 164.414 820.109 162.016V159.121C820.109 156.613 820.543 154.75 821.41 153.531C822.277 152.312 823.637 151.703 825.488 151.703C827.324 151.703 828.676 152.293 829.543 153.473C830.41 154.645 830.855 156.457 830.879 158.91V161.723ZM828.711 158.758C828.711 156.922 828.453 155.586 827.938 154.75C827.422 153.906 826.605 153.484 825.488 153.484C824.379 153.484 823.57 153.902 823.062 154.738C822.555 155.574 822.293 156.859 822.277 158.594V162.062C822.277 163.906 822.543 165.27 823.074 166.152C823.613 167.027 824.426 167.465 825.512 167.465C826.582 167.465 827.375 167.051 827.891 166.223C828.414 165.395 828.688 164.09 828.711 162.309V158.758ZM842.809 163.27H845.176V165.039H842.809V169H840.629V165.039H832.859V163.762L840.5 151.938H842.809V163.27ZM835.32 163.27H840.629V154.902L840.371 155.371L835.32 163.27Z" fill="#232323"/>
</g>
</g>
<g id="c1-f3-n300">
<path id="Vector 79_15" d="M770 1V116H880V1H770Z" fill="#C7E4FF" stroke="#232323" stroke-width="2" stroke-linecap="round" stroke-linejoin="round"/>
<g id="numbers_14">
<path id="2_14" d="M809.855 56.4141H811.484C812.508 56.3984 813.312 56.1289 813.898 55.6055C814.484 55.082 814.777 54.375 814.777 53.4844C814.777 51.4844 813.781 50.4844 811.789 50.4844C810.852 50.4844 810.102 50.7539 809.539 51.293C808.984 51.8242 808.707 52.5312 808.707 53.4141H806.539C806.539 52.0625 807.031 50.9414 808.016 50.0508C809.008 49.1523 810.266 48.7031 811.789 48.7031C813.398 48.7031 814.66 49.1289 815.574 49.9805C816.488 50.832 816.945 52.0156 816.945 53.5312C816.945 54.2734 816.703 54.9922 816.219 55.6875C815.742 56.3828 815.09 56.9023 814.262 57.2461C815.199 57.543 815.922 58.0352 816.43 58.7227C816.945 59.4102 817.203 60.25 817.203 61.2422C817.203 62.7734 816.703 63.9883 815.703 64.8867C814.703 65.7852 813.402 66.2344 811.801 66.2344C810.199 66.2344 808.895 65.8008 807.887 64.9336C806.887 64.0664 806.387 62.9219 806.387 61.5H808.566C808.566 62.3984 808.859 63.1172 809.445 63.6562C810.031 64.1953 810.816 64.4648 811.801 64.4648C812.848 64.4648 813.648 64.1914 814.203 63.6445C814.758 63.0977 815.035 62.3125 815.035 61.2891C815.035 60.2969 814.73 59.5352 814.121 59.0039C813.512 58.4727 812.633 58.1992 811.484 58.1836H809.855V56.4141ZM830.879 58.7227C830.879 61.2617 830.445 63.1484 829.578 64.3828C828.711 65.6172 827.355 66.2344 825.512 66.2344C823.691 66.2344 822.344 65.6328 821.469 64.4297C820.594 63.2188 820.141 61.4141 820.109 59.0156V56.1211C820.109 53.6133 820.543 51.75 821.41 50.5312C822.277 49.3125 823.637 48.7031 825.488 48.7031C827.324 48.7031 828.676 49.293 829.543 50.4727C830.41 51.6445 830.855 53.457 830.879 55.9102V58.7227ZM828.711 55.7578C828.711 53.9219 828.453 52.5859 827.938 51.75C827.422 50.9062 826.605 50.4844 825.488 50.4844C824.379 50.4844 823.57 50.9023 823.062 51.7383C822.555 52.5742 822.293 53.8594 822.277 55.5938V59.0625C822.277 60.9062 822.543 62.2695 823.074 63.1523C823.613 64.0273 824.426 64.4648 825.512 64.4648C826.582 64.4648 827.375 64.0508 827.891 63.2227C828.414 62.3945 828.688 61.0898 828.711 59.3086V55.7578ZM844.355 58.7227C844.355 61.2617 843.922 63.1484 843.055 64.3828C842.188 65.6172 840.832 66.2344 838.988 66.2344C837.168 66.2344 835.82 65.6328 834.945 64.4297C834.07 63.2188 833.617 61.4141 833.586 59.0156V56.1211C833.586 53.6133 834.02 51.75 834.887 50.5312C835.754 49.3125 837.113 48.7031 838.965 48.7031C840.801 48.7031 842.152 49.293 843.02 50.4727C843.887 51.6445 844.332 53.457 844.355 55.9102V58.7227ZM842.188 55.7578C842.188 53.9219 841.93 52.5859 841.414 51.75C840.898 50.9062 840.082 50.4844 838.965 50.4844C837.855 50.4844 837.047 50.9023 836.539 51.7383C836.031 52.5742 835.77 53.8594 835.754 55.5938V59.0625C835.754 60.9062 836.02 62.2695 836.551 63.1523C837.09 64.0273 837.902 64.4648 838.988 64.4648C840.059 64.4648 840.852 64.0508 841.367 63.2227C841.891 62.3945 842.164 61.0898 842.188 59.3086V55.7578Z" fill="#232323"/>
</g>
</g>
<g id="c1-f3-n301">
<path id="Vector 79_16" d="M945 116V206H1038V116H945Z" fill="#C7E4FF" stroke="#232323" stroke-width="2" stroke-linecap="round" stroke-linejoin="round"/>
<g id="numbers_15">
<path id="2_15" d="M975.855 159.414H977.484C978.508 159.398 979.312 159.129 979.898 158.605C980.484 158.082 980.777 157.375 980.777 156.484C980.777 154.484 979.781 153.484 977.789 153.484C976.852 153.484 976.102 153.754 975.539 154.293C974.984 154.824 974.707 155.531 974.707 156.414H972.539C972.539 155.062 973.031 153.941 974.016 153.051C975.008 152.152 976.266 151.703 977.789 151.703C979.398 151.703 980.66 152.129 981.574 152.98C982.488 153.832 982.945 155.016 982.945 156.531C982.945 157.273 982.703 157.992 982.219 158.688C981.742 159.383 981.09 159.902 980.262 160.246C981.199 160.543 981.922 161.035 982.43 161.723C982.945 162.41 983.203 163.25 983.203 164.242C983.203 165.773 982.703 166.988 981.703 167.887C980.703 168.785 979.402 169.234 977.801 169.234C976.199 169.234 974.895 168.801 973.887 167.934C972.887 167.066 972.387 165.922 972.387 164.5H974.566C974.566 165.398 974.859 166.117 975.445 166.656C976.031 167.195 976.816 167.465 977.801 167.465C978.848 167.465 979.648 167.191 980.203 166.645C980.758 166.098 981.035 165.312 981.035 164.289C981.035 163.297 980.73 162.535 980.121 162.004C979.512 161.473 978.633 161.199 977.484 161.184H975.855V159.414ZM996.879 161.723C996.879 164.262 996.445 166.148 995.578 167.383C994.711 168.617 993.355 169.234 991.512 169.234C989.691 169.234 988.344 168.633 987.469 167.43C986.594 166.219 986.141 164.414 986.109 162.016V159.121C986.109 156.613 986.543 154.75 987.41 153.531C988.277 152.312 989.637 151.703 991.488 151.703C993.324 151.703 994.676 152.293 995.543 153.473C996.41 154.645 996.855 156.457 996.879 158.91V161.723ZM994.711 158.758C994.711 156.922 994.453 155.586 993.938 154.75C993.422 153.906 992.605 153.484 991.488 153.484C990.379 153.484 989.57 153.902 989.062 154.738C988.555 155.574 988.293 156.859 988.277 158.594V162.062C988.277 163.906 988.543 165.27 989.074 166.152C989.613 167.027 990.426 167.465 991.512 167.465C992.582 167.465 993.375 167.051 993.891 166.223C994.414 165.395 994.688 164.09 994.711 162.309V158.758ZM1006.78 169H1004.6V154.551L1000.23 156.156V154.188L1006.44 151.855H1006.78V169Z" fill="#232323"/>
</g>
</g>
<g id="c1-f3-n300a">
<path id="Vector 79_17" d="M880 1V76H1038V1H880Z" fill="#C7E4FF" stroke="#232323" stroke-width="2" stroke-linecap="round" stroke-linejoin="round"/>
<g id="numbers_16">
<path id="2_16" d="M943.828 36.4141H945.457C946.48 36.3984 947.285 36.1289 947.871 35.6055C948.457 35.082 948.75 34.375 948.75 33.4844C948.75 31.4844 947.754 30.4844 945.762 30.4844C944.824 30.4844 944.074 30.7539 943.512 31.293C942.957 31.8242 942.68 32.5312 942.68 33.4141H940.512C940.512 32.0625 941.004 30.9414 941.988 30.0508C942.98 29.1523 944.238 28.7031 945.762 28.7031C947.371 28.7031 948.633 29.1289 949.547 29.9805C950.461 30.832 950.918 32.0156 950.918 33.5312C950.918 34.2734 950.676 34.9922 950.191 35.6875C949.715 36.3828 949.062 36.9023 948.234 37.2461C949.172 37.543 949.895 38.0352 950.402 38.7227C950.918 39.4102 951.176 40.25 951.176 41.2422C951.176 42.7734 950.676 43.9883 949.676 44.8867C948.676 45.7852 947.375 46.2344 945.773 46.2344C944.172 46.2344 942.867 45.8008 941.859 44.9336C940.859 44.0664 940.359 42.9219 940.359 41.5H942.539C942.539 42.3984 942.832 43.1172 943.418 43.6562C944.004 44.1953 944.789 44.4648 945.773 44.4648C946.82 44.4648 947.621 44.1914 948.176 43.6445C948.73 43.0977 949.008 42.3125 949.008 41.2891C949.008 40.2969 948.703 39.5352 948.094 39.0039C947.484 38.4727 946.605 38.1992 945.457 38.1836H943.828V36.4141ZM964.852 38.7227C964.852 41.2617 964.418 43.1484 963.551 44.3828C962.684 45.6172 961.328 46.2344 959.484 46.2344C957.664 46.2344 956.316 45.6328 955.441 44.4297C954.566 43.2188 954.113 41.4141 954.082 39.0156V36.1211C954.082 33.6133 954.516 31.75 955.383 30.5312C956.25 29.3125 957.609 28.7031 959.461 28.7031C961.297 28.7031 962.648 29.293 963.516 30.4727C964.383 31.6445 964.828 33.457 964.852 35.9102V38.7227ZM962.684 35.7578C962.684 33.9219 962.426 32.5859 961.91 31.75C961.395 30.9062 960.578 30.4844 959.461 30.4844C958.352 30.4844 957.543 30.9023 957.035 31.7383C956.527 32.5742 956.266 33.8594 956.25 35.5938V39.0625C956.25 40.9062 956.516 42.2695 957.047 43.1523C957.586 44.0273 958.398 44.4648 959.484 44.4648C960.555 44.4648 961.348 44.0508 961.863 43.2227C962.387 42.3945 962.66 41.0898 962.684 39.3086V35.7578ZM978.328 38.7227C978.328 41.2617 977.895 43.1484 977.027 44.3828C976.16 45.6172 974.805 46.2344 972.961 46.2344C971.141 46.2344 969.793 45.6328 968.918 44.4297C968.043 43.2188 967.59 41.4141 967.559 39.0156V36.1211C967.559 33.6133 967.992 31.75 968.859 30.5312C969.727 29.3125 971.086 28.7031 972.938 28.7031C974.773 28.7031 976.125 29.293 976.992 30.4727C977.859 31.6445 978.305 33.457 978.328 35.9102V38.7227ZM976.16 35.7578C976.16 33.9219 975.902 32.5859 975.387 31.75C974.871 30.9062 974.055 30.4844 972.938 30.4844C971.828 30.4844 971.02 30.9023 970.512 31.7383C970.004 32.5742 969.742 33.8594 969.727 35.5938V39.0625C969.727 40.9062 969.992 42.2695 970.523 43.1523C971.062 44.0273 971.875 44.4648 972.961 44.4648C974.031 44.4648 974.824 44.0508 975.34 43.2227C975.863 42.3945 976.137 41.0898 976.16 39.3086V35.7578ZM989.156 46C989.031 45.75 988.93 45.3047 988.852 44.6641C987.844 45.7109 986.641 46.2344 985.242 46.2344C983.992 46.2344 982.965 45.8828 982.16 45.1797C981.363 44.4688 980.965 43.5703 980.965 42.4844C980.965 41.1641 981.465 40.1406 982.465 39.4141C983.473 38.6797 984.887 38.3125 986.707 38.3125H988.816V37.3164C988.816 36.5586 988.59 35.957 988.137 35.5117C987.684 35.0586 987.016 34.832 986.133 34.832C985.359 34.832 984.711 35.0273 984.188 35.418C983.664 35.8086 983.402 36.2812 983.402 36.8359H981.223C981.223 36.2031 981.445 35.5938 981.891 35.0078C982.344 34.4141 982.953 33.9453 983.719 33.6016C984.492 33.2578 985.34 33.0859 986.262 33.0859C987.723 33.0859 988.867 33.4531 989.695 34.1875C990.523 34.9141 990.953 35.918 990.984 37.1992V43.0352C990.984 44.1992 991.133 45.125 991.43 45.8125V46H989.156ZM985.559 44.3477C986.238 44.3477 986.883 44.1719 987.492 43.8203C988.102 43.4688 988.543 43.0117 988.816 42.4492V39.8477H987.117C984.461 39.8477 983.133 40.625 983.133 42.1797C983.133 42.8594 983.359 43.3906 983.812 43.7734C984.266 44.1562 984.848 44.3477 985.559 44.3477Z" fill="#232323"/>
</g>
</g>
<g id="c1-f3-n305">
<path id="Vector 79_18" d="M945 478V540H1038V478H945Z" fill="#C7E4FF" stroke="#232323" stroke-width="2" stroke-linecap="round" stroke-linejoin="round"/>
<g id="numbers_17">
<path id="2_17" d="M975.855 507.414H977.484C978.508 507.398 979.312 507.129 979.898 506.605C980.484 506.082 980.777 505.375 980.777 504.484C980.777 502.484 979.781 501.484 977.789 501.484C976.852 501.484 976.102 501.754 975.539 502.293C974.984 502.824 974.707 503.531 974.707 504.414H972.539C972.539 503.062 973.031 501.941 974.016 501.051C975.008 500.152 976.266 499.703 977.789 499.703C979.398 499.703 980.66 500.129 981.574 500.98C982.488 501.832 982.945 503.016 982.945 504.531C982.945 505.273 982.703 505.992 982.219 506.688C981.742 507.383 981.09 507.902 980.262 508.246C981.199 508.543 981.922 509.035 982.43 509.723C982.945 510.41 983.203 511.25 983.203 512.242C983.203 513.773 982.703 514.988 981.703 515.887C980.703 516.785 979.402 517.234 977.801 517.234C976.199 517.234 974.895 516.801 973.887 515.934C972.887 515.066 972.387 513.922 972.387 512.5H974.566C974.566 513.398 974.859 514.117 975.445 514.656C976.031 515.195 976.816 515.465 977.801 515.465C978.848 515.465 979.648 515.191 980.203 514.645C980.758 514.098 981.035 513.312 981.035 512.289C981.035 511.297 980.73 510.535 980.121 510.004C979.512 509.473 978.633 509.199 977.484 509.184H975.855V507.414ZM996.879 509.723C996.879 512.262 996.445 514.148 995.578 515.383C994.711 516.617 993.355 517.234 991.512 517.234C989.691 517.234 988.344 516.633 987.469 515.43C986.594 514.219 986.141 512.414 986.109 510.016V507.121C986.109 504.613 986.543 502.75 987.41 501.531C988.277 500.312 989.637 499.703 991.488 499.703C993.324 499.703 994.676 500.293 995.543 501.473C996.41 502.645 996.855 504.457 996.879 506.91V509.723ZM994.711 506.758C994.711 504.922 994.453 503.586 993.938 502.75C993.422 501.906 992.605 501.484 991.488 501.484C990.379 501.484 989.57 501.902 989.062 502.738C988.555 503.574 988.293 504.859 988.277 506.594V510.062C988.277 511.906 988.543 513.27 989.074 514.152C989.613 515.027 990.426 515.465 991.512 515.465C992.582 515.465 993.375 515.051 993.891 514.223C994.414 513.395 994.688 512.09 994.711 510.309V506.758ZM1000.65 508.445L1001.52 499.938H1010.26V501.941H1003.36L1002.84 506.594C1003.68 506.102 1004.63 505.855 1005.69 505.855C1007.25 505.855 1008.48 506.371 1009.39 507.402C1010.31 508.426 1010.77 509.812 1010.77 511.562C1010.77 513.32 1010.29 514.707 1009.34 515.723C1008.39 516.73 1007.07 517.234 1005.36 517.234C1003.86 517.234 1002.62 516.816 1001.67 515.98C1000.72 515.145 1000.18 513.988 1000.04 512.512H1002.09C1002.23 513.488 1002.57 514.227 1003.14 514.727C1003.7 515.219 1004.44 515.465 1005.36 515.465C1006.37 515.465 1007.16 515.121 1007.73 514.434C1008.31 513.746 1008.6 512.797 1008.6 511.586C1008.6 510.445 1008.29 509.531 1007.66 508.844C1007.04 508.148 1006.22 507.801 1005.19 507.801C1004.24 507.801 1003.5 508.008 1002.96 508.422L1002.39 508.891L1000.65 508.445Z" fill="#232323"/>
</g>
</g>
<g id="c1-f3-n303">
<path id="Vector 79_19" d="M945 323V478H1038V323H945Z" fill="#C7E4FF" stroke="#232323" stroke-width="2" stroke-linecap="round" stroke-linejoin="round"/>
<g id="numbers_18">
<path id="2_18" d="M975.855 398.414H977.484C978.508 398.398 979.312 398.129 979.898 397.605C980.484 397.082 980.777 396.375 980.777 395.484C980.777 393.484 979.781 392.484 977.789 392.484C976.852 392.484 976.102 392.754 975.539 393.293C974.984 393.824 974.707 394.531 974.707 395.414H972.539C972.539 394.062 973.031 392.941 974.016 392.051C975.008 391.152 976.266 390.703 977.789 390.703C979.398 390.703 980.66 391.129 981.574 391.98C982.488 392.832 982.945 394.016 982.945 395.531C982.945 396.273 982.703 396.992 982.219 397.688C981.742 398.383 981.09 398.902 980.262 399.246C981.199 399.543 981.922 400.035 982.43 400.723C982.945 401.41 983.203 402.25 983.203 403.242C983.203 404.773 982.703 405.988 981.703 406.887C980.703 407.785 979.402 408.234 977.801 408.234C976.199 408.234 974.895 407.801 973.887 406.934C972.887 406.066 972.387 404.922 972.387 403.5H974.566C974.566 404.398 974.859 405.117 975.445 405.656C976.031 406.195 976.816 406.465 977.801 406.465C978.848 406.465 979.648 406.191 980.203 405.645C980.758 405.098 981.035 404.312 981.035 403.289C981.035 402.297 980.73 401.535 980.121 401.004C979.512 400.473 978.633 400.199 977.484 400.184H975.855V398.414ZM996.879 400.723C996.879 403.262 996.445 405.148 995.578 406.383C994.711 407.617 993.355 408.234 991.512 408.234C989.691 408.234 988.344 407.633 987.469 406.43C986.594 405.219 986.141 403.414 986.109 401.016V398.121C986.109 395.613 986.543 393.75 987.41 392.531C988.277 391.312 989.637 390.703 991.488 390.703C993.324 390.703 994.676 391.293 995.543 392.473C996.41 393.645 996.855 395.457 996.879 397.91V400.723ZM994.711 397.758C994.711 395.922 994.453 394.586 993.938 393.75C993.422 392.906 992.605 392.484 991.488 392.484C990.379 392.484 989.57 392.902 989.062 393.738C988.555 394.574 988.293 395.859 988.277 397.594V401.062C988.277 402.906 988.543 404.27 989.074 405.152C989.613 406.027 990.426 406.465 991.512 406.465C992.582 406.465 993.375 406.051 993.891 405.223C994.414 404.395 994.688 403.09 994.711 401.309V397.758ZM1002.81 398.414H1004.44C1005.46 398.398 1006.27 398.129 1006.85 397.605C1007.44 397.082 1007.73 396.375 1007.73 395.484C1007.73 393.484 1006.73 392.484 1004.74 392.484C1003.8 392.484 1003.05 392.754 1002.49 393.293C1001.94 393.824 1001.66 394.531 1001.66 395.414H999.492C999.492 394.062 999.984 392.941 1000.97 392.051C1001.96 391.152 1003.22 390.703 1004.74 390.703C1006.35 390.703 1007.61 391.129 1008.53 391.98C1009.44 392.832 1009.9 394.016 1009.9 395.531C1009.9 396.273 1009.66 396.992 1009.17 397.688C1008.7 398.383 1008.04 398.902 1007.21 399.246C1008.15 399.543 1008.88 400.035 1009.38 400.723C1009.9 401.41 1010.16 402.25 1010.16 403.242C1010.16 404.773 1009.66 405.988 1008.66 406.887C1007.66 407.785 1006.36 408.234 1004.75 408.234C1003.15 408.234 1001.85 407.801 1000.84 406.934C999.84 406.066 999.34 404.922 999.34 403.5H1001.52C1001.52 404.398 1001.81 405.117 1002.4 405.656C1002.98 406.195 1003.77 406.465 1004.75 406.465C1005.8 406.465 1006.6 406.191 1007.16 405.645C1007.71 405.098 1007.99 404.312 1007.99 403.289C1007.99 402.297 1007.68 401.535 1007.07 401.004C1006.46 400.473 1005.59 400.199 1004.44 400.184H1002.81V398.414Z" fill="#232323"/>
</g>
</g>
<g id="c1-f3-n316">
<path id="Vector 79_20" d="M1 563V740H92V563H1Z" fill="#C7E4FF" stroke="#232323" stroke-width="2" stroke-linecap="round" stroke-linejoin="round"/>
<g id="numbers_19">
<path id="2_19" d="M30.8555 649.414H32.4844C33.5078 649.398 34.3125 649.129 34.8984 648.605C35.4844 648.082 35.7773 647.375 35.7773 646.484C35.7773 644.484 34.7812 643.484 32.7891 643.484C31.8516 643.484 31.1016 643.754 30.5391 644.293C29.9844 644.824 29.707 645.531 29.707 646.414H27.5391C27.5391 645.062 28.0312 643.941 29.0156 643.051C30.0078 642.152 31.2656 641.703 32.7891 641.703C34.3984 641.703 35.6602 642.129 36.5742 642.98C37.4883 643.832 37.9453 645.016 37.9453 646.531C37.9453 647.273 37.7031 647.992 37.2188 648.688C36.7422 649.383 36.0898 649.902 35.2617 650.246C36.1992 650.543 36.9219 651.035 37.4297 651.723C37.9453 652.41 38.2031 653.25 38.2031 654.242C38.2031 655.773 37.7031 656.988 36.7031 657.887C35.7031 658.785 34.4023 659.234 32.8008 659.234C31.1992 659.234 29.8945 658.801 28.8867 657.934C27.8867 657.066 27.3867 655.922 27.3867 654.5H29.5664C29.5664 655.398 29.8594 656.117 30.4453 656.656C31.0312 657.195 31.8164 657.465 32.8008 657.465C33.8477 657.465 34.6484 657.191 35.2031 656.645C35.7578 656.098 36.0352 655.312 36.0352 654.289C36.0352 653.297 35.7305 652.535 35.1211 652.004C34.5117 651.473 33.6328 651.199 32.4844 651.184H30.8555V649.414ZM48.3047 659H46.125V644.551L41.7539 646.156V644.188L47.9648 641.855H48.3047V659ZM63.1641 641.926V643.766H62.7656C61.0781 643.797 59.7344 644.297 58.7344 645.266C57.7344 646.234 57.1562 647.598 57 649.355C57.8984 648.324 59.125 647.809 60.6797 647.809C62.1641 647.809 63.3477 648.332 64.2305 649.379C65.1211 650.426 65.5664 651.777 65.5664 653.434C65.5664 655.191 65.0859 656.598 64.125 657.652C63.1719 658.707 61.8906 659.234 60.2812 659.234C58.6484 659.234 57.3242 658.609 56.3086 657.359C55.293 656.102 54.7852 654.484 54.7852 652.508V651.676C54.7852 648.535 55.4531 646.137 56.7891 644.48C58.1328 642.816 60.1289 641.965 62.7773 641.926H63.1641ZM60.3164 649.613C59.5742 649.613 58.8906 649.836 58.2656 650.281C57.6406 650.727 57.207 651.285 56.9648 651.957V652.754C56.9648 654.16 57.2812 655.293 57.9141 656.152C58.5469 657.012 59.3359 657.441 60.2812 657.441C61.2578 657.441 62.0234 657.082 62.5781 656.363C63.1406 655.645 63.4219 654.703 63.4219 653.539C63.4219 652.367 63.1367 651.422 62.5664 650.703C62.0039 649.977 61.2539 649.613 60.3164 649.613Z" fill="#232323"/>
</g>
</g>
<g id="c1-f3-n327">
<path id="Vector 79_21" d="M92 478V563H183V478H92Z" fill="#C7E4FF" stroke="#232323" stroke-width="2" stroke-linecap="round" stroke-linejoin="round"/>
<g id="numbers_20">
<path id="2_20" d="M121.855 518.414H123.484C124.508 518.398 125.312 518.129 125.898 517.605C126.484 517.082 126.777 516.375 126.777 515.484C126.777 513.484 125.781 512.484 123.789 512.484C122.852 512.484 122.102 512.754 121.539 513.293C120.984 513.824 120.707 514.531 120.707 515.414H118.539C118.539 514.062 119.031 512.941 120.016 512.051C121.008 511.152 122.266 510.703 123.789 510.703C125.398 510.703 126.66 511.129 127.574 511.98C128.488 512.832 128.945 514.016 128.945 515.531C128.945 516.273 128.703 516.992 128.219 517.688C127.742 518.383 127.09 518.902 126.262 519.246C127.199 519.543 127.922 520.035 128.43 520.723C128.945 521.41 129.203 522.25 129.203 523.242C129.203 524.773 128.703 525.988 127.703 526.887C126.703 527.785 125.402 528.234 123.801 528.234C122.199 528.234 120.895 527.801 119.887 526.934C118.887 526.066 118.387 524.922 118.387 523.5H120.566C120.566 524.398 120.859 525.117 121.445 525.656C122.031 526.195 122.816 526.465 123.801 526.465C124.848 526.465 125.648 526.191 126.203 525.645C126.758 525.098 127.035 524.312 127.035 523.289C127.035 522.297 126.73 521.535 126.121 521.004C125.512 520.473 124.633 520.199 123.484 520.184H121.855V518.414ZM143.359 528H132.18V526.441L138.086 519.879C138.961 518.887 139.562 518.082 139.891 517.465C140.227 516.84 140.395 516.195 140.395 515.531C140.395 514.641 140.125 513.91 139.586 513.34C139.047 512.77 138.328 512.484 137.43 512.484C136.352 512.484 135.512 512.793 134.91 513.41C134.316 514.02 134.02 514.871 134.02 515.965H131.852C131.852 514.395 132.355 513.125 133.363 512.156C134.379 511.188 135.734 510.703 137.43 510.703C139.016 510.703 140.27 511.121 141.191 511.957C142.113 512.785 142.574 513.891 142.574 515.273C142.574 516.953 141.504 518.953 139.363 521.273L134.793 526.23H143.359V528ZM156.672 512.156L149.605 528H147.332L154.375 512.719H145.141V510.938H156.672V512.156Z" fill="#232323"/>
</g>
</g>
<g id="c1-f3-n323">
<path id="Vector 79_22" d="M183 625V740H427V625H183Z" fill="#C7E4FF" stroke="#232323" stroke-width="2" stroke-linecap="round" stroke-linejoin="round"/>
<g id="numbers_21">
<path id="2_21" d="M289.855 680.414H291.484C292.508 680.398 293.312 680.129 293.898 679.605C294.484 679.082 294.777 678.375 294.777 677.484C294.777 675.484 293.781 674.484 291.789 674.484C290.852 674.484 290.102 674.754 289.539 675.293C288.984 675.824 288.707 676.531 288.707 677.414H286.539C286.539 676.062 287.031 674.941 288.016 674.051C289.008 673.152 290.266 672.703 291.789 672.703C293.398 672.703 294.66 673.129 295.574 673.98C296.488 674.832 296.945 676.016 296.945 677.531C296.945 678.273 296.703 678.992 296.219 679.688C295.742 680.383 295.09 680.902 294.262 681.246C295.199 681.543 295.922 682.035 296.43 682.723C296.945 683.41 297.203 684.25 297.203 685.242C297.203 686.773 296.703 687.988 295.703 688.887C294.703 689.785 293.402 690.234 291.801 690.234C290.199 690.234 288.895 689.801 287.887 688.934C286.887 688.066 286.387 686.922 286.387 685.5H288.566C288.566 686.398 288.859 687.117 289.445 687.656C290.031 688.195 290.816 688.465 291.801 688.465C292.848 688.465 293.648 688.191 294.203 687.645C294.758 687.098 295.035 686.312 295.035 685.289C295.035 684.297 294.73 683.535 294.121 683.004C293.512 682.473 292.633 682.199 291.484 682.184H289.855V680.414ZM311.359 690H300.18V688.441L306.086 681.879C306.961 680.887 307.562 680.082 307.891 679.465C308.227 678.84 308.395 678.195 308.395 677.531C308.395 676.641 308.125 675.91 307.586 675.34C307.047 674.77 306.328 674.484 305.43 674.484C304.352 674.484 303.512 674.793 302.91 675.41C302.316 676.02 302.02 676.871 302.02 677.965H299.852C299.852 676.395 300.355 675.125 301.363 674.156C302.379 673.188 303.734 672.703 305.43 672.703C307.016 672.703 308.27 673.121 309.191 673.957C310.113 674.785 310.574 675.891 310.574 677.273C310.574 678.953 309.504 680.953 307.363 683.273L302.793 688.23H311.359V690ZM316.809 680.414H318.438C319.461 680.398 320.266 680.129 320.852 679.605C321.438 679.082 321.73 678.375 321.73 677.484C321.73 675.484 320.734 674.484 318.742 674.484C317.805 674.484 317.055 674.754 316.492 675.293C315.938 675.824 315.66 676.531 315.66 677.414H313.492C313.492 676.062 313.984 674.941 314.969 674.051C315.961 673.152 317.219 672.703 318.742 672.703C320.352 672.703 321.613 673.129 322.527 673.98C323.441 674.832 323.898 676.016 323.898 677.531C323.898 678.273 323.656 678.992 323.172 679.688C322.695 680.383 322.043 680.902 321.215 681.246C322.152 681.543 322.875 682.035 323.383 682.723C323.898 683.41 324.156 684.25 324.156 685.242C324.156 686.773 323.656 687.988 322.656 688.887C321.656 689.785 320.355 690.234 318.754 690.234C317.152 690.234 315.848 689.801 314.84 688.934C313.84 688.066 313.34 686.922 313.34 685.5H315.52C315.52 686.398 315.812 687.117 316.398 687.656C316.984 688.195 317.77 688.465 318.754 688.465C319.801 688.465 320.602 688.191 321.156 687.645C321.711 687.098 321.988 686.312 321.988 685.289C321.988 684.297 321.684 683.535 321.074 683.004C320.465 682.473 319.586 682.199 318.438 682.184H316.809V680.414Z" fill="#232323"/>
</g>
</g>
<g id="c1-f3-n317">
<path id="Vector 79_23" d="M504 625V740H567V625H504Z" fill="#C7E4FF" stroke="#232323" stroke-width="2" stroke-linecap="round" stroke-linejoin="round"/>
<g id="numbers_22">
<path id="2_22" d="M519.855 680.414H521.484C522.508 680.398 523.312 680.129 523.898 679.605C524.484 679.082 524.777 678.375 524.777 677.484C524.777 675.484 523.781 674.484 521.789 674.484C520.852 674.484 520.102 674.754 519.539 675.293C518.984 675.824 518.707 676.531 518.707 677.414H516.539C516.539 676.062 517.031 674.941 518.016 674.051C519.008 673.152 520.266 672.703 521.789 672.703C523.398 672.703 524.66 673.129 525.574 673.98C526.488 674.832 526.945 676.016 526.945 677.531C526.945 678.273 526.703 678.992 526.219 679.688C525.742 680.383 525.09 680.902 524.262 681.246C525.199 681.543 525.922 682.035 526.43 682.723C526.945 683.41 527.203 684.25 527.203 685.242C527.203 686.773 526.703 687.988 525.703 688.887C524.703 689.785 523.402 690.234 521.801 690.234C520.199 690.234 518.895 689.801 517.887 688.934C516.887 688.066 516.387 686.922 516.387 685.5H518.566C518.566 686.398 518.859 687.117 519.445 687.656C520.031 688.195 520.816 688.465 521.801 688.465C522.848 688.465 523.648 688.191 524.203 687.645C524.758 687.098 525.035 686.312 525.035 685.289C525.035 684.297 524.73 683.535 524.121 683.004C523.512 682.473 522.633 682.199 521.484 682.184H519.855V680.414ZM537.305 690H535.125V675.551L530.754 677.156V675.188L536.965 672.855H537.305V690ZM554.672 674.156L547.605 690H545.332L552.375 674.719H543.141V672.938H554.672V674.156Z" fill="#232323"/>
</g>
</g>
<g id="c1-f3-n319">
<path id="Vector 79_24" d="M427 625V740H504V625H427Z" fill="#C7E4FF" stroke="#232323" stroke-width="2" stroke-linecap="round" stroke-linejoin="round"/>
<g id="numbers_23">
<path id="2_23" d="M449.855 680.414H451.484C452.508 680.398 453.312 680.129 453.898 679.605C454.484 679.082 454.777 678.375 454.777 677.484C454.777 675.484 453.781 674.484 451.789 674.484C450.852 674.484 450.102 674.754 449.539 675.293C448.984 675.824 448.707 676.531 448.707 677.414H446.539C446.539 676.062 447.031 674.941 448.016 674.051C449.008 673.152 450.266 672.703 451.789 672.703C453.398 672.703 454.66 673.129 455.574 673.98C456.488 674.832 456.945 676.016 456.945 677.531C456.945 678.273 456.703 678.992 456.219 679.688C455.742 680.383 455.09 680.902 454.262 681.246C455.199 681.543 455.922 682.035 456.43 682.723C456.945 683.41 457.203 684.25 457.203 685.242C457.203 686.773 456.703 687.988 455.703 688.887C454.703 689.785 453.402 690.234 451.801 690.234C450.199 690.234 448.895 689.801 447.887 688.934C446.887 688.066 446.387 686.922 446.387 685.5H448.566C448.566 686.398 448.859 687.117 449.445 687.656C450.031 688.195 450.816 688.465 451.801 688.465C452.848 688.465 453.648 688.191 454.203 687.645C454.758 687.098 455.035 686.312 455.035 685.289C455.035 684.297 454.73 683.535 454.121 683.004C453.512 682.473 452.633 682.199 451.484 682.184H449.855V680.414ZM467.305 690H465.125V675.551L460.754 677.156V675.188L466.965 672.855H467.305V690ZM481.965 682.5C481.512 683.039 480.969 683.473 480.336 683.801C479.711 684.129 479.023 684.293 478.273 684.293C477.289 684.293 476.43 684.051 475.695 683.566C474.969 683.082 474.406 682.402 474.008 681.527C473.609 680.645 473.41 679.672 473.41 678.609C473.41 677.469 473.625 676.441 474.055 675.527C474.492 674.613 475.109 673.914 475.906 673.43C476.703 672.945 477.633 672.703 478.695 672.703C480.383 672.703 481.711 673.336 482.68 674.602C483.656 675.859 484.145 677.578 484.145 679.758V680.391C484.145 683.711 483.488 686.137 482.176 687.668C480.863 689.191 478.883 689.973 476.234 690.012H475.812V688.184H476.27C478.059 688.152 479.434 687.688 480.395 686.789C481.355 685.883 481.879 684.453 481.965 682.5ZM478.625 682.5C479.352 682.5 480.02 682.277 480.629 681.832C481.246 681.387 481.695 680.836 481.977 680.18V679.312C481.977 677.891 481.668 676.734 481.051 675.844C480.434 674.953 479.652 674.508 478.707 674.508C477.754 674.508 476.988 674.875 476.41 675.609C475.832 676.336 475.543 677.297 475.543 678.492C475.543 679.656 475.82 680.617 476.375 681.375C476.938 682.125 477.688 682.5 478.625 682.5Z" fill="#232323"/>
</g>
</g>
<g id="c1-f3-n314">
<path id="Vector 79_25" d="M92 625V740H183V625H92Z" fill="#C7E4FF" stroke="#232323" stroke-width="2" stroke-linecap="round" stroke-linejoin="round"/>
<g id="numbers_24">
<path id="2_24" d="M121.855 680.414H123.484C124.508 680.398 125.312 680.129 125.898 679.605C126.484 679.082 126.777 678.375 126.777 677.484C126.777 675.484 125.781 674.484 123.789 674.484C122.852 674.484 122.102 674.754 121.539 675.293C120.984 675.824 120.707 676.531 120.707 677.414H118.539C118.539 676.062 119.031 674.941 120.016 674.051C121.008 673.152 122.266 672.703 123.789 672.703C125.398 672.703 126.66 673.129 127.574 673.98C128.488 674.832 128.945 676.016 128.945 677.531C128.945 678.273 128.703 678.992 128.219 679.688C127.742 680.383 127.09 680.902 126.262 681.246C127.199 681.543 127.922 682.035 128.43 682.723C128.945 683.41 129.203 684.25 129.203 685.242C129.203 686.773 128.703 687.988 127.703 688.887C126.703 689.785 125.402 690.234 123.801 690.234C122.199 690.234 120.895 689.801 119.887 688.934C118.887 688.066 118.387 686.922 118.387 685.5H120.566C120.566 686.398 120.859 687.117 121.445 687.656C122.031 688.195 122.816 688.465 123.801 688.465C124.848 688.465 125.648 688.191 126.203 687.645C126.758 687.098 127.035 686.312 127.035 685.289C127.035 684.297 126.73 683.535 126.121 683.004C125.512 682.473 124.633 682.199 123.484 682.184H121.855V680.414ZM139.305 690H137.125V675.551L132.754 677.156V675.188L138.965 672.855H139.305V690ZM154.809 684.27H157.176V686.039H154.809V690H152.629V686.039H144.859V684.762L152.5 672.938H154.809V684.27ZM147.32 684.27H152.629V675.902L152.371 676.371L147.32 684.27Z" fill="#232323"/>
</g>
</g>
<g id="stairs">
<rect id="Rectangle 18_2" x="198" y="511" width="30" height="30" rx="3" fill="#3377E4"/>
<path id="Vector 1" d="M216.833 521H222.5C222.776 521 223 521.224 223 521.5V536.5C223 536.776 222.776 537 222.5 537H203.5C203.224 537 203 536.776 203 536.5V532.167C203 531.891 203.224 531.667 203.5 531.667H209.167C209.443 531.667 209.667 531.443 209.667 531.167V526.833C209.667 526.557 209.891 526.333 210.167 526.333H215.833C216.109 526.333 216.333 526.109 216.333 525.833V521.5C216.333 521.224 216.557 521 216.833 521Z" fill="white"/>
<path id="Vector 2" d="M202.615 527.695L218.5 516" stroke="white" stroke-width="2" stroke-linecap="round" stroke-linejoin="round"/>
</g>
<g id="stairs_2">
<rect id="Rectangle 18_3" x="590" y="680" width="30" height="30" rx="3" fill="#3377E4"/>
<path id="Vector 1_2" d="M608.833 690H614.5C614.776 690 615 690.224 615 690.5V705.5C615 705.776 614.776 706 614.5 706H595.5C595.224 706 595 705.776 595 705.5V701.167C595 700.891 595.224 700.667 595.5 700.667H601.167C601.443 700.667 601.667 700.443 601.667 700.167V695.833C601.667 695.557 601.891 695.333 602.167 695.333H607.833C608.109 695.333 608.333 695.109 608.333 694.833V690.5C608.333 690.224 608.557 690 608.833 690Z" fill="white"/>
<path id="Vector 2_2" d="M594.615 696.695L610.5 685" stroke="white" stroke-width="2" stroke-linecap="round" stroke-linejoin="round"/>
</g>
<g id="stairs_3">
<rect id="Rectangle 18_4" x="813" y="276" width="30" height="30" rx="3" fill="#3377E4"/>
<path id="Vector 1_3" d="M831.833 286H837.5C837.776 286 838 286.224 838 286.5V301.5C838 301.776 837.776 302 837.5 302H818.5C818.224 302 818 301.776 818 301.5V297.167C818 296.891 818.224 296.667 818.5 296.667H824.167C824.443 296.667 824.667 296.443 824.667 296.167V291.833C824.667 291.557 824.891 291.333 825.167 291.333H830.833C831.109 291.333 831.333 291.109 831.333 290.833V286.5C831.333 286.224 831.557 286 831.833 286Z" fill="white"/>
<path id="Vector 2_3" d="M817.615 292.695L833.5 281" stroke="white" stroke-width="2" stroke-linecap="round" stroke-linejoin="round"/>
</g>
</g>
</svg>
