<svg width="1030" height="290" viewBox="0 0 1030 290" fill="none" xmlns="http://www.w3.org/2000/svg">
<g id="c5-f3">
<g id="floor">
<path d="M123.979 1.00037H1V184.5V289H123.979H1029V194V1.00037H123.979Z" fill="white"/>
<path d="M1029 194V1.00037H123.979H1L1 184.5L1 289H123.979H1029V194ZM1029 194H805M673 194H805M805 194V164.5M805 101V126" stroke="#232323" stroke-width="2" stroke-linecap="round" stroke-linejoin="round"/>
</g>
<g id="stairs">
<rect id="Rectangle 18" x="745" y="225" width="30" height="30" rx="3" fill="#3377E4"/>
<path id="Vector 1" d="M763.833 235H769.5C769.776 235 770 235.224 770 235.5V250.5C770 250.776 769.776 251 769.5 251H750.5C750.224 251 750 250.776 750 250.5V246.167C750 245.891 750.224 245.667 750.5 245.667H756.167C756.443 245.667 756.667 245.443 756.667 245.167V240.833C756.667 240.557 756.891 240.333 757.167 240.333H762.833C763.109 240.333 763.333 240.109 763.333 239.833V235.5C763.333 235.224 763.557 235 763.833 235Z" fill="white"/>
<path id="Vector 2" d="M749.615 241.695L765.5 230" stroke="white" stroke-width="2" stroke-linecap="round" stroke-linejoin="round"/>
</g>
<g id="c5-f3-59">
<path id="Vector 70" d="M321 101L498 101L498 1L321 1.00001L321 101Z" fill="#C7E4FF" stroke="#232323" stroke-width="2" stroke-linecap="round" stroke-linejoin="round"/>
<g id="numbers">
<path id="2" d="M398.437 50.4453L399.305 41.9375L408.047 41.9375L408.047 43.9414L401.145 43.9414L400.629 48.5937C401.465 48.1016 402.414 47.8555 403.477 47.8555C405.031 47.8555 406.266 48.3711 407.18 49.4023C408.094 50.4258 408.551 51.8125 408.551 53.5625C408.551 55.3203 408.074 56.707 407.121 57.7227C406.176 58.7305 404.852 59.2344 403.148 59.2344C401.641 59.2344 400.41 58.8164 399.457 57.9805C398.504 57.1445 397.961 55.9883 397.828 54.5117L399.879 54.5117C400.012 55.4883 400.359 56.2266 400.922 56.7266C401.484 57.2187 402.227 57.4648 403.148 57.4648C404.156 57.4648 404.945 57.1211 405.516 56.4336C406.094 55.7461 406.383 54.7969 406.383 53.5859C406.383 52.4453 406.07 51.5312 405.445 50.8437C404.828 50.1484 404.004 49.8008 402.973 49.8008C402.027 49.8008 401.285 50.0078 400.746 50.4219L400.172 50.8906L398.437 50.4453ZM419.227 51.5C418.773 52.0391 418.23 52.4727 417.598 52.8008C416.973 53.1289 416.285 53.293 415.535 53.293C414.551 53.293 413.691 53.0508 412.957 52.5664C412.23 52.082 411.668 51.4023 411.27 50.5273C410.871 49.6445 410.672 48.6719 410.672 47.6094C410.672 46.4687 410.887 45.4414 411.316 44.5273C411.754 43.6133 412.371 42.9141 413.168 42.4297C413.965 41.9453 414.895 41.7031 415.957 41.7031C417.645 41.7031 418.973 42.3359 419.941 43.6016C420.918 44.8594 421.406 46.5781 421.406 48.7578L421.406 49.3906C421.406 52.7109 420.75 55.1367 419.437 56.668C418.125 58.1914 416.145 58.9727 413.496 59.0117L413.074 59.0117L413.074 57.1836L413.531 57.1836C415.32 57.1523 416.695 56.6875 417.656 55.7891C418.617 54.8828 419.141 53.4531 419.227 51.5ZM415.887 51.5C416.613 51.5 417.281 51.2773 417.891 50.832C418.508 50.3867 418.957 49.8359 419.238 49.1797L419.238 48.3125C419.238 46.8906 418.93 45.7344 418.312 44.8437C417.695 43.9531 416.914 43.5078 415.969 43.5078C415.016 43.5078 414.25 43.875 413.672 44.6094C413.094 45.3359 412.805 46.2969 412.805 47.4922C412.805 48.6562 413.082 49.6172 413.637 50.375C414.199 51.125 414.949 51.5 415.887 51.5Z" fill="#232323"/>
</g>
</g>
<g id="c5-f3-67">
<path id="Vector 70_2" d="M972 101L1029 101L1029 1L972 1.00001L972 101Z" fill="#C7E4FF" stroke="#232323" stroke-width="2" stroke-linecap="round" stroke-linejoin="round"/>
<g id="numbers_2">
<path id="2_2" d="M996.949 41.9258L996.949 43.7656L996.551 43.7656C994.863 43.7969 993.52 44.2969 992.52 45.2656C991.52 46.2344 990.941 47.5977 990.785 49.3555C991.684 48.3242 992.91 47.8086 994.465 47.8086C995.949 47.8086 997.133 48.332 998.016 49.3789C998.906 50.4258 999.352 51.7773 999.352 53.4336C999.352 55.1914 998.871 56.5977 997.91 57.6523C996.957 58.707 995.676 59.2344 994.066 59.2344C992.434 59.2344 991.109 58.6094 990.094 57.3594C989.078 56.1016 988.57 54.4844 988.57 52.5078L988.57 51.6758C988.57 48.5352 989.238 46.1367 990.574 44.4805C991.918 42.8164 993.914 41.9648 996.562 41.9258L996.949 41.9258ZM994.102 49.6133C993.359 49.6133 992.676 49.8359 992.051 50.2812C991.426 50.7266 990.992 51.2852 990.75 51.957L990.75 52.7539C990.75 54.1602 991.066 55.293 991.699 56.1523C992.332 57.0117 993.121 57.4414 994.066 57.4414C995.043 57.4414 995.809 57.082 996.363 56.3633C996.926 55.6445 997.207 54.7031 997.207 53.5391C997.207 52.3672 996.922 51.4219 996.352 50.7031C995.789 49.9766 995.039 49.6133 994.102 49.6133ZM1012.93 43.1562L1005.87 59L1003.59 59L1010.64 43.7187L1001.4 43.7187L1001.4 41.9375L1012.93 41.9375L1012.93 43.1562Z" fill="#232323"/>
</g>
</g>
<g id="c5-f3-57">
<path id="Vector 70_3" d="M264 101L321 101L321 1L264 1.00001L264 101Z" fill="#C7E4FF" stroke="#232323" stroke-width="2" stroke-linecap="round" stroke-linejoin="round"/>
<g id="numbers_3">
<path id="2_3" d="M281.437 50.4453L282.305 41.9375L291.047 41.9375L291.047 43.9414L284.145 43.9414L283.629 48.5937C284.465 48.1016 285.414 47.8555 286.477 47.8555C288.031 47.8555 289.266 48.3711 290.18 49.4023C291.094 50.4258 291.551 51.8125 291.551 53.5625C291.551 55.3203 291.074 56.707 290.121 57.7227C289.176 58.7305 287.852 59.2344 286.148 59.2344C284.641 59.2344 283.41 58.8164 282.457 57.9805C281.504 57.1445 280.961 55.9883 280.828 54.5117L282.879 54.5117C283.012 55.4883 283.359 56.2266 283.922 56.7266C284.484 57.2187 285.227 57.4648 286.148 57.4648C287.156 57.4648 287.945 57.1211 288.516 56.4336C289.094 55.7461 289.383 54.7969 289.383 53.5859C289.383 52.4453 289.07 51.5312 288.445 50.8437C287.828 50.1484 287.004 49.8008 285.973 49.8008C285.027 49.8008 284.285 50.0078 283.746 50.4219L283.172 50.8906L281.437 50.4453ZM304.934 43.1562L297.867 59L295.594 59L302.637 43.7187L293.402 43.7187L293.402 41.9375L304.934 41.9375L304.934 43.1562Z" fill="#232323"/>
</g>
</g>
<g id="c5-f3-55">
<path id="Vector 70_4" d="M207 101L264 101L264 1L207 1.00001L207 101Z" fill="#C7E4FF" stroke="#232323" stroke-width="2" stroke-linecap="round" stroke-linejoin="round"/>
<g id="numbers_4">
<path id="2_4" d="M224.437 50.4453L225.305 41.9375L234.047 41.9375L234.047 43.9414L227.145 43.9414L226.629 48.5937C227.465 48.1016 228.414 47.8555 229.477 47.8555C231.031 47.8555 232.266 48.3711 233.18 49.4023C234.094 50.4258 234.551 51.8125 234.551 53.5625C234.551 55.3203 234.074 56.707 233.121 57.7227C232.176 58.7305 230.852 59.2344 229.148 59.2344C227.641 59.2344 226.41 58.8164 225.457 57.9805C224.504 57.1445 223.961 55.9883 223.828 54.5117L225.879 54.5117C226.012 55.4883 226.359 56.2266 226.922 56.7266C227.484 57.2187 228.227 57.4648 229.148 57.4648C230.156 57.4648 230.945 57.1211 231.516 56.4336C232.094 55.7461 232.383 54.7969 232.383 53.5859C232.383 52.4453 232.07 51.5312 231.445 50.8437C230.828 50.1484 230.004 49.8008 228.973 49.8008C228.027 49.8008 227.285 50.0078 226.746 50.4219L226.172 50.8906L224.437 50.4453ZM237.914 50.4453L238.781 41.9375L247.523 41.9375L247.523 43.9414L240.621 43.9414L240.105 48.5937C240.941 48.1016 241.891 47.8555 242.953 47.8555C244.508 47.8555 245.742 48.3711 246.656 49.4023C247.57 50.4258 248.027 51.8125 248.027 53.5625C248.027 55.3203 247.551 56.707 246.598 57.7227C245.652 58.7305 244.328 59.2344 242.625 59.2344C241.117 59.2344 239.887 58.8164 238.934 57.9805C237.98 57.1445 237.437 55.9883 237.305 54.5117L239.355 54.5117C239.488 55.4883 239.836 56.2266 240.398 56.7266C240.961 57.2187 241.703 57.4648 242.625 57.4648C243.633 57.4648 244.422 57.1211 244.992 56.4336C245.57 55.7461 245.859 54.7969 245.859 53.5859C245.859 52.4453 245.547 51.5312 244.922 50.8437C244.305 50.1484 243.48 49.8008 242.449 49.8008C241.504 49.8008 240.762 50.0078 240.223 50.4219L239.648 50.8906L237.914 50.4453Z" fill="#232323"/>
</g>
</g>
<g id="c5-f3-storeroom">
<path id="Vector 70_5" d="M1 101L58 101L58 1L0.999997 1.00001L1 101Z" fill="#C7E4FF" stroke="#232323" stroke-width="2" stroke-linecap="round" stroke-linejoin="round"/>
<g id="storeroom">
<rect id="Rectangle 18_2" x="15" y="36" width="30" height="30" rx="3" fill="#3377E4"/>
<path id="Vector" fill-rule="evenodd" clip-rule="evenodd" d="M20.3579 47.7699H21.9223C22.3569 47.7699 22.7417 48.0506 22.8745 48.4643L23.6621 50.9183C23.5277 51.1787 23.4531 51.3923 23.4531 51.694C23.4531 52.5537 24.1506 53.2497 25.0111 53.2497C25.8717 53.2497 26.5689 52.5534 26.5689 51.694C26.5689 51.1099 26.2399 50.5788 25.7227 50.3121L25.1162 48.4224C25.0126 48.0997 25.2533 47.7696 25.5922 47.7696L30.6641 47.7694C30.8623 47.7694 31.0231 47.9299 31.0231 48.1278L30.4726 59.9539C30.4646 60.1458 30.3055 60.2958 30.1151 60.2958L20.9072 60.2969C20.709 60.2969 20.5482 60.1363 20.5482 59.9385L20.0004 48.1433C19.9915 47.9308 20.1514 47.7814 20.3579 47.7699ZM40 57.8847C40 57.3324 39.5523 56.8847 39 56.8847L33.2837 56.8847C32.7314 56.8847 32.2837 57.3324 32.2837 57.8847V59.2966C32.2837 59.8489 32.7314 60.2966 33.2837 60.2966H37V58.2969C37 58.0208 37.2239 57.7969 37.5 57.7969C37.7761 57.7969 38 58.0208 38 58.2969V60.2969L39.0001 60.2968C39.5524 60.2967 40 59.849 40 59.2968V57.8847ZM37.293 51.2857C37.0978 51.2822 36.9404 51.1231 36.9404 50.9272L36.9404 41.7969C36.9404 41.3596 36.5797 41 36.1418 41C35.7039 41 35.343 41.3593 35.343 41.7969L35.343 50.9272C35.3418 51.1093 35.2029 51.2656 35.0176 51.2828C33.4748 51.4316 32.2837 52.7459 32.2837 54.2932V55.1678C32.2837 55.7201 32.7314 56.1678 33.2837 56.1678L39 56.1678C39.5523 56.1678 40 55.7201 40 55.1678V54.2932C40 52.7562 38.8244 51.4471 37.293 51.2857ZM22.1968 44.0102C22.0529 43.5622 22.7349 43.3443 22.8785 43.7916L25.149 50.8667C25.5473 50.9324 25.8511 51.2773 25.8511 51.694C25.8511 52.1574 25.4752 52.5328 25.0111 52.5328C24.5468 52.5328 24.1709 52.1574 24.1709 51.694C24.1709 51.4414 24.2826 51.2148 24.4595 51.0611L22.1968 44.0102Z" fill="white"/>
</g>
</g>
<g id="c5-f3-55_2">
<path id="Vector 70_6" d="M58 101L207 101L207 0.999999L58 1.00001L58 101Z" fill="#C7E4FF" stroke="#232323" stroke-width="2" stroke-linecap="round" stroke-linejoin="round"/>
<g id="numbers_5">
<path id="2_5" d="M121.437 50.4453L122.305 41.9375L131.047 41.9375L131.047 43.9414L124.145 43.9414L123.629 48.5937C124.465 48.1016 125.414 47.8555 126.477 47.8555C128.031 47.8555 129.266 48.3711 130.18 49.4023C131.094 50.4258 131.551 51.8125 131.551 53.5625C131.551 55.3203 131.074 56.707 130.121 57.7227C129.176 58.7305 127.852 59.2344 126.148 59.2344C124.641 59.2344 123.41 58.8164 122.457 57.9805C121.504 57.1445 120.961 55.9883 120.828 54.5117L122.879 54.5117C123.012 55.4883 123.359 56.2266 123.922 56.7266C124.484 57.2187 125.227 57.4648 126.148 57.4648C127.156 57.4648 127.945 57.1211 128.516 56.4336C129.094 55.7461 129.383 54.7969 129.383 53.5859C129.383 52.4453 129.07 51.5312 128.445 50.8437C127.828 50.1484 127.004 49.8008 125.973 49.8008C125.027 49.8008 124.285 50.0078 123.746 50.4219L123.172 50.8906L121.437 50.4453ZM137.07 49.4141L138.699 49.4141C139.723 49.3984 140.527 49.1289 141.113 48.6055C141.699 48.082 141.992 47.375 141.992 46.4844C141.992 44.4844 140.996 43.4844 139.004 43.4844C138.066 43.4844 137.316 43.7539 136.754 44.293C136.199 44.8242 135.922 45.5312 135.922 46.4141L133.754 46.4141C133.754 45.0625 134.246 43.9414 135.23 43.0508C136.223 42.1523 137.48 41.7031 139.004 41.7031C140.613 41.7031 141.875 42.1289 142.789 42.9805C143.703 43.832 144.16 45.0156 144.16 46.5312C144.16 47.2734 143.918 47.9922 143.434 48.6875C142.957 49.3828 142.305 49.9023 141.477 50.2461C142.414 50.543 143.137 51.0352 143.645 51.7227C144.16 52.4102 144.418 53.25 144.418 54.2422C144.418 55.7734 143.918 56.9883 142.918 57.8867C141.918 58.7852 140.617 59.2344 139.016 59.2344C137.414 59.2344 136.109 58.8008 135.102 57.9336C134.102 57.0664 133.602 55.9219 133.602 54.5L135.781 54.5C135.781 55.3984 136.074 56.1172 136.66 56.6562C137.246 57.1953 138.031 57.4648 139.016 57.4648C140.062 57.4648 140.863 57.1914 141.418 56.6445C141.973 56.0977 142.25 55.3125 142.25 54.2891C142.25 53.2969 141.945 52.5352 141.336 52.0039C140.727 51.4727 139.848 51.1992 138.699 51.1836L137.07 51.1836L137.07 49.4141Z" fill="#232323"/>
</g>
</g>
<g id="c5-f3-65">
<path id="Vector 70_7" d="M879 101L972 101L972 1L879 1.00001L879 101Z" fill="#C7E4FF" stroke="#232323" stroke-width="2" stroke-linecap="round" stroke-linejoin="round"/>
<g id="numbers_6">
<path id="2_6" d="M921.949 41.9258L921.949 43.7656L921.551 43.7656C919.863 43.7969 918.52 44.2969 917.52 45.2656C916.52 46.2344 915.941 47.5977 915.785 49.3555C916.684 48.3242 917.91 47.8086 919.465 47.8086C920.949 47.8086 922.133 48.332 923.016 49.3789C923.906 50.4258 924.352 51.7773 924.352 53.4336C924.352 55.1914 923.871 56.5977 922.91 57.6523C921.957 58.707 920.676 59.2344 919.066 59.2344C917.434 59.2344 916.109 58.6094 915.094 57.3594C914.078 56.1016 913.57 54.4844 913.57 52.5078L913.57 51.6758C913.57 48.5352 914.238 46.1367 915.574 44.4805C916.918 42.8164 918.914 41.9648 921.562 41.9258L921.949 41.9258ZM919.102 49.6133C918.359 49.6133 917.676 49.8359 917.051 50.2812C916.426 50.7266 915.992 51.2852 915.75 51.957L915.75 52.7539C915.75 54.1602 916.066 55.293 916.699 56.1523C917.332 57.0117 918.121 57.4414 919.066 57.4414C920.043 57.4414 920.809 57.082 921.363 56.3633C921.926 55.6445 922.207 54.7031 922.207 53.5391C922.207 52.3672 921.922 51.4219 921.352 50.7031C920.789 49.9766 920.039 49.6133 919.102 49.6133ZM927.914 50.4453L928.781 41.9375L937.523 41.9375L937.523 43.9414L930.621 43.9414L930.105 48.5937C930.941 48.1016 931.891 47.8555 932.953 47.8555C934.508 47.8555 935.742 48.3711 936.656 49.4023C937.57 50.4258 938.027 51.8125 938.027 53.5625C938.027 55.3203 937.551 56.707 936.598 57.7227C935.652 58.7305 934.328 59.2344 932.625 59.2344C931.117 59.2344 929.887 58.8164 928.934 57.9805C927.98 57.1445 927.437 55.9883 927.305 54.5117L929.355 54.5117C929.488 55.4883 929.836 56.2266 930.398 56.7266C930.961 57.2187 931.703 57.4648 932.625 57.4648C933.633 57.4648 934.422 57.1211 934.992 56.4336C935.57 55.7461 935.859 54.7969 935.859 53.5859C935.859 52.4453 935.547 51.5312 934.922 50.8437C934.305 50.1484 933.48 49.8008 932.449 49.8008C931.504 49.8008 930.762 50.0078 930.223 50.4219L929.648 50.8906L927.914 50.4453Z" fill="#232323"/>
</g>
</g>
<g id="c5-f3-61">
<path id="Vector 70_8" d="M673 101L553 101L498 101L498 51L498 0.999992L673 0.999992L673 101Z" fill="#C7E4FF" stroke="#232323" stroke-width="2" stroke-linecap="round" stroke-linejoin="round"/>
<g id="numbers_7">
<path id="2_7" d="M581.949 41.9258L581.949 43.7656L581.551 43.7656C579.863 43.7969 578.52 44.2969 577.52 45.2656C576.52 46.2344 575.941 47.5977 575.785 49.3555C576.684 48.3242 577.91 47.8086 579.465 47.8086C580.949 47.8086 582.133 48.332 583.016 49.3789C583.906 50.4258 584.352 51.7773 584.352 53.4336C584.352 55.1914 583.871 56.5977 582.91 57.6523C581.957 58.707 580.676 59.2344 579.066 59.2344C577.434 59.2344 576.109 58.6094 575.094 57.3594C574.078 56.1016 573.57 54.4844 573.57 52.5078L573.57 51.6758C573.57 48.5352 574.238 46.1367 575.574 44.4805C576.918 42.8164 578.914 41.9648 581.562 41.9258L581.949 41.9258ZM579.102 49.6133C578.359 49.6133 577.676 49.8359 577.051 50.2812C576.426 50.7266 575.992 51.2852 575.75 51.957L575.75 52.7539C575.75 54.1602 576.066 55.293 576.699 56.1523C577.332 57.0117 578.121 57.4414 579.066 57.4414C580.043 57.4414 580.809 57.082 581.363 56.3633C581.926 55.6445 582.207 54.7031 582.207 53.5391C582.207 52.3672 581.922 51.4219 581.352 50.7031C580.789 49.9766 580.039 49.6133 579.102 49.6133ZM594.043 59L591.863 59L591.863 44.5508L587.492 46.1562L587.492 44.1875L593.703 41.8555L594.043 41.8555L594.043 59Z" fill="#232323"/>
</g>
</g>
<g id="c5-f3-63">
<path id="Vector 70_9" d="M745 101L879 101L879 1L745 1.00001L745 101Z" fill="#C7E4FF" stroke="#232323" stroke-width="2" stroke-linecap="round" stroke-linejoin="round"/>
<g id="numbers_8">
<path id="2_8" d="M807.949 41.9258L807.949 43.7656L807.551 43.7656C805.863 43.7969 804.52 44.2969 803.52 45.2656C802.52 46.2344 801.941 47.5977 801.785 49.3555C802.684 48.3242 803.91 47.8086 805.465 47.8086C806.949 47.8086 808.133 48.332 809.016 49.3789C809.906 50.4258 810.352 51.7773 810.352 53.4336C810.352 55.1914 809.871 56.5977 808.91 57.6523C807.957 58.707 806.676 59.2344 805.066 59.2344C803.434 59.2344 802.109 58.6094 801.094 57.3594C800.078 56.1016 799.57 54.4844 799.57 52.5078L799.57 51.6758C799.57 48.5352 800.238 46.1367 801.574 44.4805C802.918 42.8164 804.914 41.9648 807.562 41.9258L807.949 41.9258ZM805.102 49.6133C804.359 49.6133 803.676 49.8359 803.051 50.2812C802.426 50.7266 801.992 51.2852 801.75 51.957L801.75 52.7539C801.75 54.1602 802.066 55.293 802.699 56.1523C803.332 57.0117 804.121 57.4414 805.066 57.4414C806.043 57.4414 806.809 57.082 807.363 56.3633C807.926 55.6445 808.207 54.7031 808.207 53.5391C808.207 52.3672 807.922 51.4219 807.352 50.7031C806.789 49.9766 806.039 49.6133 805.102 49.6133ZM816.07 49.4141L817.699 49.4141C818.723 49.3984 819.527 49.1289 820.113 48.6055C820.699 48.082 820.992 47.375 820.992 46.4844C820.992 44.4844 819.996 43.4844 818.004 43.4844C817.066 43.4844 816.316 43.7539 815.754 44.293C815.199 44.8242 814.922 45.5312 814.922 46.4141L812.754 46.4141C812.754 45.0625 813.246 43.9414 814.23 43.0508C815.223 42.1523 816.48 41.7031 818.004 41.7031C819.613 41.7031 820.875 42.1289 821.789 42.9805C822.703 43.832 823.16 45.0156 823.16 46.5312C823.16 47.2734 822.918 47.9922 822.434 48.6875C821.957 49.3828 821.305 49.9023 820.477 50.2461C821.414 50.543 822.137 51.0352 822.645 51.7227C823.16 52.4102 823.418 53.25 823.418 54.2422C823.418 55.7734 822.918 56.9883 821.918 57.8867C820.918 58.7852 819.617 59.2344 818.016 59.2344C816.414 59.2344 815.109 58.8008 814.102 57.9336C813.102 57.0664 812.602 55.9219 812.602 54.5L814.781 54.5C814.781 55.3984 815.074 56.1172 815.66 56.6562C816.246 57.1953 817.031 57.4648 818.016 57.4648C819.062 57.4648 819.863 57.1914 820.418 56.6445C820.973 56.0977 821.25 55.3125 821.25 54.2891C821.25 53.2969 820.945 52.5352 820.336 52.0039C819.727 51.4727 818.848 51.1992 817.699 51.1836L816.07 51.1836L816.07 49.4141Z" fill="#232323"/>
</g>
</g>
<g id="c5-f3-50">
<path id="Vector 70_10" d="M58 289L107.667 289L107.667 194L58 194L58 289Z" fill="#C7E4FF" stroke="#232323" stroke-width="2" stroke-linecap="round" stroke-linejoin="round"/>
<g id="numbers_9">
<path id="2_9" d="M71.4375 240.445L72.3047 231.937L81.0469 231.937L81.0469 233.941L74.1445 233.941L73.6289 238.594C74.4648 238.102 75.4141 237.855 76.4766 237.855C78.0312 237.855 79.2656 238.371 80.1797 239.402C81.0937 240.426 81.5508 241.812 81.5508 243.562C81.5508 245.32 81.0742 246.707 80.1211 247.723C79.1758 248.73 77.8516 249.234 76.1484 249.234C74.6406 249.234 73.4102 248.816 72.457 247.98C71.5039 247.145 70.9609 245.988 70.8281 244.512L72.8789 244.512C73.0117 245.488 73.3594 246.227 73.9219 246.727C74.4844 247.219 75.2266 247.465 76.1484 247.465C77.1562 247.465 77.9453 247.121 78.5156 246.434C79.0937 245.746 79.3828 244.797 79.3828 243.586C79.3828 242.445 79.0703 241.531 78.4453 240.844C77.8281 240.148 77.0039 239.801 75.9727 239.801C75.0273 239.801 74.2852 240.008 73.7461 240.422L73.1719 240.891L71.4375 240.445ZM94.6172 241.723C94.6172 244.262 94.1836 246.148 93.3164 247.383C92.4492 248.617 91.0937 249.234 89.25 249.234C87.4297 249.234 86.082 248.633 85.207 247.43C84.332 246.219 83.8789 244.414 83.8477 242.016L83.8477 239.121C83.8477 236.613 84.2812 234.75 85.1484 233.531C86.0156 232.312 87.375 231.703 89.2266 231.703C91.0625 231.703 92.4141 232.293 93.2812 233.473C94.1484 234.645 94.5937 236.457 94.6172 238.91L94.6172 241.723ZM92.4492 238.758C92.4492 236.922 92.1914 235.586 91.6758 234.75C91.1602 233.906 90.3437 233.484 89.2266 233.484C88.1172 233.484 87.3086 233.902 86.8008 234.738C86.293 235.574 86.0312 236.859 86.0156 238.594L86.0156 242.062C86.0156 243.906 86.2812 245.27 86.8125 246.152C87.3516 247.027 88.1641 247.465 89.25 247.465C90.3203 247.465 91.1133 247.051 91.6289 246.223C92.1523 245.395 92.4258 244.09 92.4492 242.309L92.4492 238.758Z" fill="#232323"/>
</g>
</g>
<g id="c5-f3-52">
<path id="Vector 70_11" d="M107.667 289L157.333 289L157.333 194L107.667 194L107.667 289Z" fill="#C7E4FF" stroke="#232323" stroke-width="2" stroke-linecap="round" stroke-linejoin="round"/>
<g id="numbers_10">
<path id="2_10" d="M121.437 240.445L122.305 231.937L131.047 231.937L131.047 233.941L124.145 233.941L123.629 238.594C124.465 238.102 125.414 237.855 126.477 237.855C128.031 237.855 129.266 238.371 130.18 239.402C131.094 240.426 131.551 241.812 131.551 243.562C131.551 245.32 131.074 246.707 130.121 247.723C129.176 248.73 127.852 249.234 126.148 249.234C124.641 249.234 123.41 248.816 122.457 247.98C121.504 247.145 120.961 245.988 120.828 244.512L122.879 244.512C123.012 245.488 123.359 246.227 123.922 246.727C124.484 247.219 125.227 247.465 126.148 247.465C127.156 247.465 127.945 247.121 128.516 246.434C129.094 245.746 129.383 244.797 129.383 243.586C129.383 242.445 129.07 241.531 128.445 240.844C127.828 240.148 127.004 239.801 125.973 239.801C125.027 239.801 124.285 240.008 123.746 240.422L123.172 240.891L121.437 240.445ZM145.098 249L133.918 249L133.918 247.441L139.824 240.879C140.699 239.887 141.301 239.082 141.629 238.465C141.965 237.84 142.133 237.195 142.133 236.531C142.133 235.641 141.863 234.91 141.324 234.34C140.785 233.77 140.066 233.484 139.168 233.484C138.09 233.484 137.25 233.793 136.648 234.41C136.055 235.02 135.758 235.871 135.758 236.965L133.59 236.965C133.59 235.395 134.094 234.125 135.102 233.156C136.117 232.187 137.473 231.703 139.168 231.703C140.754 231.703 142.008 232.121 142.93 232.957C143.852 233.785 144.312 234.891 144.312 236.273C144.312 237.953 143.242 239.953 141.102 242.273L136.531 247.23L145.098 247.23L145.098 249Z" fill="#232323"/>
</g>
</g>
<g id="c5-f3-54">
<path id="Vector 70_12" d="M157.333 289L207 289L207 194L157.333 194L157.333 289Z" fill="#C7E4FF" stroke="#232323" stroke-width="2" stroke-linecap="round" stroke-linejoin="round"/>
<g id="numbers_11">
<path id="2_11" d="M171.437 240.445L172.305 231.937L181.047 231.937L181.047 233.941L174.145 233.941L173.629 238.594C174.465 238.102 175.414 237.855 176.477 237.855C178.031 237.855 179.266 238.371 180.18 239.402C181.094 240.426 181.551 241.812 181.551 243.562C181.551 245.32 181.074 246.707 180.121 247.723C179.176 248.73 177.852 249.234 176.148 249.234C174.641 249.234 173.41 248.816 172.457 247.98C171.504 247.145 170.961 245.988 170.828 244.512L172.879 244.512C173.012 245.488 173.359 246.227 173.922 246.727C174.484 247.219 175.227 247.465 176.148 247.465C177.156 247.465 177.945 247.121 178.516 246.434C179.094 245.746 179.383 244.797 179.383 243.586C179.383 242.445 179.07 241.531 178.445 240.844C177.828 240.148 177.004 239.801 175.973 239.801C175.027 239.801 174.285 240.008 173.746 240.422L173.172 240.891L171.437 240.445ZM193.07 243.27L195.437 243.27L195.437 245.039L193.07 245.039L193.07 249L190.891 249L190.891 245.039L183.121 245.039L183.121 243.762L190.762 231.937L193.07 231.937L193.07 243.27ZM185.582 243.27L190.891 243.27L190.891 234.902L190.633 235.371L185.582 243.27Z" fill="#232323"/>
</g>
</g>
<g id="c5-f3-56">
<path id="Vector 70_13" d="M207 289L321 289L321 194L207 194L207 289Z" fill="#C7E4FF" stroke="#232323" stroke-width="2" stroke-linecap="round" stroke-linejoin="round"/>
<g id="numbers_12">
<path id="2_12" d="M253.437 241.445L254.305 232.937L263.047 232.937L263.047 234.941L256.145 234.941L255.629 239.594C256.465 239.102 257.414 238.855 258.477 238.855C260.031 238.855 261.266 239.371 262.18 240.402C263.094 241.426 263.551 242.812 263.551 244.562C263.551 246.32 263.074 247.707 262.121 248.723C261.176 249.73 259.852 250.234 258.148 250.234C256.641 250.234 255.41 249.816 254.457 248.98C253.504 248.145 252.961 246.988 252.828 245.512L254.879 245.512C255.012 246.488 255.359 247.227 255.922 247.727C256.484 248.219 257.227 248.465 258.148 248.465C259.156 248.465 259.945 248.121 260.516 247.434C261.094 246.746 261.383 245.797 261.383 244.586C261.383 243.445 261.07 242.531 260.445 241.844C259.828 241.148 259.004 240.801 257.973 240.801C257.027 240.801 256.285 241.008 255.746 241.422L255.172 241.891L253.437 241.445ZM274.426 232.926L274.426 234.766L274.027 234.766C272.34 234.797 270.996 235.297 269.996 236.266C268.996 237.234 268.418 238.598 268.262 240.355C269.16 239.324 270.387 238.809 271.941 238.809C273.426 238.809 274.609 239.332 275.492 240.379C276.383 241.426 276.828 242.777 276.828 244.434C276.828 246.191 276.348 247.598 275.387 248.652C274.434 249.707 273.152 250.234 271.543 250.234C269.91 250.234 268.586 249.609 267.57 248.359C266.555 247.102 266.047 245.484 266.047 243.508L266.047 242.676C266.047 239.535 266.715 237.137 268.051 235.48C269.395 233.816 271.391 232.965 274.039 232.926L274.426 232.926ZM271.578 240.613C270.836 240.613 270.152 240.836 269.527 241.281C268.902 241.727 268.469 242.285 268.227 242.957L268.227 243.754C268.227 245.16 268.543 246.293 269.176 247.152C269.809 248.012 270.598 248.441 271.543 248.441C272.52 248.441 273.285 248.082 273.84 247.363C274.402 246.645 274.684 245.703 274.684 244.539C274.684 243.367 274.398 242.422 273.828 241.703C273.266 240.977 272.516 240.613 271.578 240.613Z" fill="#232323"/>
</g>
</g>
<g id="c5-f3-58">
<path id="Vector 70_14" d="M321 289L553 289L553 194L321 194L321 289Z" fill="#C7E4FF" stroke="#232323" stroke-width="2" stroke-linecap="round" stroke-linejoin="round"/>
<g id="numbers_13">
<path id="2_13" d="M426.437 241.445L427.305 232.937L436.047 232.937L436.047 234.941L429.145 234.941L428.629 239.594C429.465 239.102 430.414 238.855 431.477 238.855C433.031 238.855 434.266 239.371 435.18 240.402C436.094 241.426 436.551 242.812 436.551 244.562C436.551 246.32 436.074 247.707 435.121 248.723C434.176 249.73 432.852 250.234 431.148 250.234C429.641 250.234 428.41 249.816 427.457 248.98C426.504 248.145 425.961 246.988 425.828 245.512L427.879 245.512C428.012 246.488 428.359 247.227 428.922 247.727C429.484 248.219 430.227 248.465 431.148 248.465C432.156 248.465 432.945 248.121 433.516 247.434C434.094 246.746 434.383 245.797 434.383 244.586C434.383 243.445 434.07 242.531 433.445 241.844C432.828 241.148 432.004 240.801 430.973 240.801C430.027 240.801 429.285 241.008 428.746 241.422L428.172 241.891L426.437 241.445ZM449.266 237.391C449.266 238.242 449.039 239 448.586 239.664C448.141 240.328 447.535 240.848 446.77 241.223C447.66 241.605 448.363 242.164 448.879 242.898C449.402 243.633 449.664 244.465 449.664 245.395C449.664 246.871 449.164 248.047 448.164 248.922C447.172 249.797 445.863 250.234 444.238 250.234C442.598 250.234 441.281 249.797 440.289 248.922C439.305 248.039 438.812 246.863 438.812 245.395C438.812 244.473 439.062 243.641 439.562 242.898C440.07 242.156 440.77 241.594 441.66 241.211C440.902 240.836 440.305 240.316 439.867 239.652C439.43 238.988 439.211 238.234 439.211 237.391C439.211 235.953 439.672 234.812 440.594 233.969C441.516 233.125 442.73 232.703 444.238 232.703C445.738 232.703 446.949 233.125 447.871 233.969C448.801 234.812 449.266 235.953 449.266 237.391ZM447.496 245.348C447.496 244.395 447.191 243.617 446.582 243.016C445.98 242.414 445.191 242.113 444.215 242.113C443.238 242.113 442.453 242.41 441.859 243.004C441.273 243.598 440.98 244.379 440.98 245.348C440.98 246.316 441.266 247.078 441.836 247.633C442.414 248.187 443.215 248.465 444.238 248.465C445.254 248.465 446.051 248.187 446.629 247.633C447.207 247.07 447.496 246.309 447.496 245.348ZM444.238 234.484C443.387 234.484 442.695 234.75 442.164 235.281C441.641 235.805 441.379 236.52 441.379 237.426C441.379 238.293 441.637 238.996 442.152 239.535C442.676 240.066 443.371 240.332 444.238 240.332C445.105 240.332 445.797 240.066 446.312 239.535C446.836 238.996 447.098 238.293 447.098 237.426C447.098 236.559 446.828 235.852 446.289 235.305C445.75 234.758 445.066 234.484 444.238 234.484Z" fill="#232323"/>
</g>
</g>
<g id="c5-f3-60">
<path id="Vector 70_15" d="M805 289L1029 289L1029 194L805 194L805 289Z" fill="#C7E4FF" stroke="#232323" stroke-width="2" stroke-linecap="round" stroke-linejoin="round"/>
<g id="numbers_14">
<path id="2_14" d="M912.949 232.926L912.949 234.766L912.551 234.766C910.863 234.797 909.52 235.297 908.52 236.266C907.52 237.234 906.941 238.598 906.785 240.355C907.684 239.324 908.91 238.809 910.465 238.809C911.949 238.809 913.133 239.332 914.016 240.379C914.906 241.426 915.352 242.777 915.352 244.434C915.352 246.191 914.871 247.598 913.91 248.652C912.957 249.707 911.676 250.234 910.066 250.234C908.434 250.234 907.109 249.609 906.094 248.359C905.078 247.102 904.57 245.484 904.57 243.508L904.57 242.676C904.57 239.535 905.238 237.137 906.574 235.48C907.918 233.816 909.914 232.965 912.562 232.926L912.949 232.926ZM910.102 240.613C909.359 240.613 908.676 240.836 908.051 241.281C907.426 241.727 906.992 242.285 906.75 242.957L906.75 243.754C906.75 245.16 907.066 246.293 907.699 247.152C908.332 248.012 909.121 248.441 910.066 248.441C911.043 248.441 911.809 248.082 912.363 247.363C912.926 246.645 913.207 245.703 913.207 244.539C913.207 243.367 912.922 242.422 912.352 241.703C911.789 240.977 911.039 240.613 910.102 240.613ZM928.617 242.723C928.617 245.262 928.184 247.148 927.316 248.383C926.449 249.617 925.094 250.234 923.25 250.234C921.43 250.234 920.082 249.633 919.207 248.43C918.332 247.219 917.879 245.414 917.848 243.016L917.848 240.121C917.848 237.613 918.281 235.75 919.148 234.531C920.016 233.312 921.375 232.703 923.227 232.703C925.062 232.703 926.414 233.293 927.281 234.473C928.148 235.645 928.594 237.457 928.617 239.91L928.617 242.723ZM926.449 239.758C926.449 237.922 926.191 236.586 925.676 235.75C925.16 234.906 924.344 234.484 923.227 234.484C922.117 234.484 921.309 234.902 920.801 235.738C920.293 236.574 920.031 237.859 920.016 239.594L920.016 243.062C920.016 244.906 920.281 246.27 920.812 247.152C921.352 248.027 922.164 248.465 923.25 248.465C924.32 248.465 925.113 248.051 925.629 247.223C926.152 246.395 926.426 245.09 926.449 243.309L926.449 239.758Z" fill="#232323"/>
</g>
</g>
<g id="c5-f3-cp2">
<path id="Vector 70_16" d="M709 101L745 101L745 51L709 51L709 101Z" fill="#C7E4FF" stroke="#232323" stroke-width="2" stroke-linecap="round" stroke-linejoin="round"/>
<g id="numbers_15">
<path id="2_15" d="M721.02 82.4648C721.793 82.4648 722.469 82.2305 723.047 81.7617C723.625 81.293 723.945 80.707 724.008 80.0039L726.059 80.0039C726.02 80.7305 725.77 81.4219 725.309 82.0781C724.848 82.7344 724.23 83.2578 723.457 83.6484C722.691 84.0391 721.879 84.2344 721.02 84.2344C719.293 84.2344 717.918 83.6602 716.895 82.5117C715.879 81.3555 715.371 79.7773 715.371 77.7773L715.371 77.4141C715.371 76.1797 715.598 75.082 716.051 74.1211C716.504 73.1602 717.152 72.4141 717.996 71.8828C718.848 71.3516 719.852 71.0859 721.008 71.0859C722.43 71.0859 723.609 71.5117 724.547 72.3633C725.492 73.2148 725.996 74.3203 726.059 75.6797L724.008 75.6797C723.945 74.8594 723.633 74.1875 723.07 73.6641C722.516 73.1328 721.828 72.8672 721.008 72.8672C719.906 72.8672 719.051 73.2656 718.441 74.0625C717.84 74.8516 717.539 75.9961 717.539 77.4961L717.539 77.9062C717.539 79.3672 717.84 80.4922 718.441 81.2812C719.043 82.0703 719.902 82.4648 721.02 82.4648ZM738.867 84L736.699 84L736.699 73.1133L730.863 73.1133L730.863 84L728.684 84L728.684 71.3203L738.867 71.3203L738.867 84Z" fill="#232323"/>
</g>
</g>
<g id="c5-f3-wc">
<path id="Vector 70_17" d="M673 0.999992L673 101L709 101L709 51L745 51L745 0.999989L673 0.999992Z" fill="white" stroke="#232323" stroke-width="2" stroke-linecap="round" stroke-linejoin="round"/>
<g id="wc">
<rect id="Rectangle 18_3" x="694" y="15" width="30" height="30" rx="3" fill="#3377E4"/>
<g id="Group">
<path id="Vector_2" fill-rule="evenodd" clip-rule="evenodd" d="M718.83 37.4099C719.282 38.4093 718.829 39.5588 717.527 39.5588L710.136 39.5606C708.757 39.5606 708.501 38.3461 708.913 37.3533L712.606 29.1939C713.198 27.8769 714.538 28.0468 715.133 29.2519L718.83 37.4099ZM704.129 21C705.984 21 707.358 22.492 707.358 24.1619C707.358 25.8319 705.985 27.3239 704.129 27.3239C702.275 27.3239 700.9 25.8323 700.9 24.1619C700.9 22.492 702.275 21 704.129 21ZM705.398 38.5749C704.805 39.7772 703.462 39.9466 702.871 38.633L699.178 30.4731C698.767 29.4812 699.026 28.2667 700.401 28.2667L704.122 28.2667L707.792 28.2681C709.094 28.2681 709.547 29.4171 709.095 30.4165L705.398 38.5749ZM713.864 21C715.719 21 717.093 22.492 717.093 24.1619C717.093 25.8319 715.719 27.3239 713.864 27.3239C712.01 27.3239 710.635 25.8323 710.635 24.1619C710.635 22.492 712.01 21 713.864 21Z" fill="white"/>
</g>
</g>
</g>
</g>
</svg>
